<svg width="65" height="67" viewBox="0 0 65 67" fill="none" xmlns="http://www.w3.org/2000/svg">
<g clip-path="url(#clip0_336_126)">
<path d="M64.8275 24.6703C64.4431 24.2801 64.0654 23.8876 63.7033 23.5041C62.9792 22.7053 62.2052 21.9388 61.4015 21.2253C61.4164 20.1605 61.371 19.0788 61.2677 18.0104L61.2654 17.9847C61.2 17.1477 61.1331 16.282 61.1175 15.3987C61.113 15.3591 61.0967 15.3223 61.0818 15.3069L61.0677 15.2848C61.0506 15.2555 61.0245 15.2305 60.9874 15.2106C60.2171 14.8586 59.4714 14.4655 58.7502 14.0856L58.6379 14.0268C57.6892 13.5036 56.7019 13.0267 55.7033 12.61C55.3643 11.5923 54.9636 10.5789 54.513 9.60084C54.2074 8.90053 53.8602 8.10837 53.5598 7.30813L53.5524 7.26918C53.5294 7.15308 53.4245 7.06857 53.2929 7.06857C53.2877 7.06857 53.281 7.06857 53.2751 7.0693L53.2684 7.07151C52.4126 6.98039 51.5762 6.84738 50.768 6.71952C49.6952 6.52699 48.597 6.39105 47.5048 6.31756C46.8446 5.45559 46.1294 4.62154 45.3792 3.83894C44.8082 3.2224 44.2506 2.61469 43.716 1.96729L43.7011 1.94084C43.6364 1.83429 43.5063 1.78946 43.3881 1.83576L43.3688 1.84678C42.5234 2.03637 41.6706 2.1826 40.8766 2.3112C39.7993 2.47433 38.7204 2.69846 37.6699 2.97697C36.7658 2.3766 35.8186 1.82032 34.8558 1.3221C34.1955 0.965703 33.4335 0.549047 32.7011 0.105937L32.6862 0.0846268C32.6424 0.0214303 32.5665 -0.00869822 32.4922 0.00452894C32.4149 -0.00575885 32.3457 0.0236349 32.3026 0.0838919L32.2959 0.100793C31.6037 0.522593 30.9056 0.903976 30.1346 1.32137C29.1695 1.82032 28.2216 2.37734 27.3175 2.9777C26.2617 2.69846 25.1829 2.47507 24.1108 2.31267C23.2357 2.1635 22.4446 2.02461 21.6506 1.84678L21.6424 1.8409C21.5829 1.79681 21.5041 1.7902 21.4379 1.82326C21.374 1.83502 21.3197 1.87691 21.2944 1.9357L21.2706 1.95994L21.2743 1.97611C20.7279 2.63453 20.142 3.2687 19.626 3.82865C18.8743 4.61273 18.1613 5.44236 17.5071 6.29699C16.4216 6.37047 15.3286 6.50495 14.2587 6.69527C13.4959 6.81799 12.6089 6.95614 11.7279 7.048C11.6647 7.03697 11.6045 7.05608 11.5606 7.0987C11.51 7.13103 11.4788 7.18468 11.4736 7.24346C11.1792 8.03562 10.8476 8.80133 10.5056 9.57879C10.0454 10.5745 9.63941 11.6033 9.29888 12.6372C8.28253 13.0605 7.27955 13.5469 6.31747 14.0819C5.58662 14.4692 4.86989 14.8461 4.13606 15.1893C4.13011 15.1878 4.12416 15.1864 4.11822 15.1856L4.08327 15.1798L4.0513 15.1967C3.94424 15.254 3.87584 15.3598 3.8684 15.4796L3.86617 15.5016L3.87286 15.5171L3.64684 15.6199L3.89442 15.5861C3.87286 16.3687 3.81636 17.133 3.75093 17.9744C3.6461 19.0436 3.6 20.1311 3.61561 21.2062C2.80744 21.9227 2.03048 22.6913 1.30409 23.4923C0.92119 23.9001 0.54052 24.2962 0.171747 24.6703L0 24.8451H0.559108L0.589591 24.8135C0.933829 24.4616 1.27063 24.1088 1.59851 23.7598C2.23941 23.0551 2.92342 22.3709 3.63271 21.725C3.67584 22.7898 3.9881 23.8465 4.54052 24.7937L4.57026 24.8451H5.02082L4.92639 24.6894C4.37398 23.7796 4.08625 22.7288 4.01859 21.3862C5.54721 20.126 7.57323 19.0149 10.9903 20.1848C10.8193 21.3319 10.7792 22.4973 10.8721 23.6569C10.9048 23.9097 10.9546 24.1632 11.0208 24.4138C10.916 24.4718 10.8149 24.5358 10.716 24.5982L10.3227 24.8451H11.0669L11.0907 24.8319C11.1086 24.8224 11.1249 24.8121 11.1413 24.8011L11.1561 24.8444H11.5807L11.5331 24.7077C11.5227 24.6783 11.5123 24.6497 11.5011 24.621C11.5004 24.6195 11.4996 24.6181 11.4989 24.6166C12.8216 24.039 14.2074 23.5952 15.623 23.2946L15.7651 23.2594C15.8312 23.651 15.8922 24.0456 15.9145 24.3513C15.9309 24.4513 15.9524 24.5497 15.974 24.6482L16.0164 24.8437H16.4178L16.368 24.6188C16.345 24.5145 16.3212 24.4094 16.3048 24.3131C16.2892 24.0853 16.2528 23.7936 16.1926 23.4276L18.3844 24.8437H19.1048L16.3985 23.0955C16.7896 22.9948 17.0572 22.9169 17.2632 22.8449C18.1234 22.6274 19.0097 22.5473 19.8937 22.6083C19.9829 23.2505 20.1019 23.9376 20.2691 24.7606L20.2862 24.8437H20.6989L20.6736 24.7202C20.51 23.9251 20.3911 23.2564 20.3011 22.6274C21.4491 22.6906 22.6067 22.8111 23.745 22.9845L24.1398 24.8437H24.5509L24.2907 23.6158L25.2572 24.8437H25.7584L24.6178 23.396L27.2662 24.6732L27.2446 24.8437H28.5197L27.6952 24.4461L28.0617 21.545L29.1836 24.7746L29.2074 24.8437H29.6268L28.4342 21.4112L30.5212 23.4732L29.8454 24.8437H30.2877L30.8178 23.7708L31.9033 24.8437H33.1004L34.1725 23.7833L34.6989 24.8437H35.139L34.4677 23.4894L36.5703 21.4112L35.3792 24.8437H35.7985L36.9524 21.5215L37.316 24.4219L36.4491 24.8429H37.768L37.7435 24.6475L40.426 23.3453L39.2476 24.8422H39.7494L40.7123 23.6202L40.4528 24.8422H40.8595L41.2602 22.9573C42.3978 22.7824 43.5561 22.6612 44.7056 22.5965C44.6156 23.2366 44.4967 23.9148 44.3323 24.7188L44.3071 24.8422H44.713L44.7301 24.7592C44.9004 23.9185 45.0208 23.2211 45.1093 22.5745C45.9822 22.5135 46.8572 22.5914 47.6996 22.8023C47.9643 22.8941 48.2974 22.9845 48.6364 23.0698L45.8952 24.8422H46.6193L48.8164 23.4225C48.7606 23.7774 48.7204 24.0699 48.7033 24.3065C48.6848 24.4131 48.661 24.5174 48.6372 24.6232L48.5881 24.8422H48.9918L49.0327 24.6519C49.055 24.5519 49.0766 24.4527 49.0937 24.3432C49.1182 24.0331 49.1814 23.6268 49.2491 23.2226L49.3606 23.2505C50.7911 23.5489 52.1926 23.9971 53.5286 24.5828C53.5257 24.5894 53.5234 24.5968 53.5204 24.6034C53.5078 24.6379 53.4944 24.6717 53.4833 24.7063L53.4364 24.8422H53.8572L53.8833 24.765C53.887 24.7673 53.8907 24.7702 53.8952 24.7724C53.9242 24.7915 53.9539 24.8106 53.9844 24.8282L54.0089 24.8422H54.3874L54.716 24.8282L54.4238 24.6394C54.2885 24.5519 54.1487 24.4623 54.003 24.3829C54.0632 24.15 54.1093 23.9112 54.1398 23.6701L54.1413 23.6481C54.232 22.4944 54.1918 21.3289 54.0216 20.1826C57.4402 19.0134 59.4669 20.1289 60.9955 21.3936C60.9294 22.7325 60.6431 23.7804 60.0974 24.6872L60.0037 24.8429H60.4558L60.4855 24.7915C61.0335 23.848 61.3428 22.7949 61.3859 21.7331C62.09 22.3746 62.7703 23.0558 63.4119 23.7605C63.7383 24.1074 64.0751 24.4608 64.4193 24.8121L64.4498 24.8429H65.0015L64.8275 24.6703ZM49.6193 22.9088L53.6357 20.3126C53.7948 21.4061 53.8305 22.5194 53.742 23.6246C53.7175 23.8215 53.6833 24.0162 53.6379 24.2051C52.3465 23.6444 50.9955 23.2087 49.6193 22.9088ZM45.1175 19.5322C45.0394 19.2383 44.9665 18.8415 44.9004 18.4454L45.0007 18.4373L45.0045 18.4388L45.0349 18.4351C46.4751 18.2624 47.9353 18.2382 49.3807 18.3609C49.3859 19.7924 49.2416 21.2305 48.9509 22.6355L48.9316 22.745C48.5294 22.6458 48.1256 22.5399 47.8208 22.4356C47.1204 22.257 46.4045 22.1674 45.684 22.1674C45.51 22.1674 45.3353 22.1725 45.1606 22.1828C45.287 21.3047 45.2736 20.4163 45.1175 19.5322ZM37.6922 24.2396L37.255 20.7521C38.2743 20.2245 39.3323 19.7409 40.4015 19.3133C40.6208 20.4265 40.7859 21.5597 40.8944 22.6847L37.6922 24.2396ZM19.8461 22.2151C18.9398 22.16 18.0335 22.2475 17.1457 22.4767C16.8751 22.5737 16.5197 22.6671 16.0877 22.7751L16.0595 22.6377C15.7688 21.2327 15.623 19.7946 15.629 18.3609C17.0721 18.2382 18.5331 18.2624 19.9747 18.4351L20.1048 18.4461C20.0387 18.84 19.9665 19.2361 19.8855 19.5411C19.7294 20.4273 19.7167 21.326 19.8461 22.2151ZM11.3874 24.2323C11.3331 24.0221 11.2922 23.8134 11.2654 23.6121C11.177 22.5128 11.2134 21.4039 11.371 20.3148L15.426 22.9338C14.0431 23.2351 12.6848 23.6716 11.3874 24.2323ZM4.28922 15.7419L10.0929 19.4896C7.9658 18.9407 5.70781 19.4404 4.01041 20.8711C4.01041 19.9195 4.05576 18.9598 4.14572 18.0148V18.0133C4.20446 17.2873 4.2632 16.5179 4.28922 15.7419ZM9.15465 13.1288C8.52193 15.2437 8.97398 17.4842 10.3502 19.1839L4.54498 15.4355C5.14126 15.1496 5.77249 14.827 6.51301 14.4302C7.36729 13.9563 8.25427 13.519 9.15465 13.1288ZM17.2074 6.71658C15.9145 8.50004 15.5955 10.8229 16.3331 12.8731L12.0342 7.41395C12.8476 7.32136 13.6625 7.19202 14.3316 7.08474C15.2803 6.91866 16.2461 6.79447 17.2074 6.71658ZM28.3844 11.1403C27.5093 12.2477 26.7428 13.4441 26.1041 14.6999L24.5309 10.1725C25.6543 10.2909 26.7643 10.5326 27.829 10.8905C28.0178 10.9632 28.2045 11.0477 28.3844 11.1403ZM32.3026 13.6667C31.2892 12.6864 30.1762 11.8032 28.9903 11.0382C29.1286 10.8934 29.2766 10.7553 29.4275 10.6274C30.3175 9.94768 31.284 9.36569 32.3026 8.89612V13.6667ZM26.023 15.6795L27.6007 20.2333C26.652 19.7505 25.6714 19.3074 24.6825 18.915C24.8394 18.0581 25.1323 17.2359 25.5487 16.4768C25.6877 16.2717 25.8416 16.0065 26.023 15.6795ZM21.7234 13.436C21.8126 13.2376 21.913 13.0436 22.023 12.8591C22.6387 11.9347 23.3584 11.0793 24.1621 10.3144L25.7435 14.8697C24.4558 14.2641 23.1041 13.7828 21.7234 13.436ZM20.5219 13.6601C20.7428 13.6697 20.9628 13.6917 21.1807 13.7262C20.7257 15.0475 20.3993 16.4165 20.2089 17.798L17.2439 14.0319C18.319 13.7872 19.4223 13.6623 20.5219 13.6601ZM19.89 18.031C19.0743 17.9391 18.252 17.8935 17.4305 17.8935C16.8357 17.8935 16.2409 17.9171 15.6491 17.9656C15.6684 17.7591 15.6996 17.5504 15.742 17.3461C16.0201 16.2798 16.4178 15.2437 16.9242 14.2641L19.89 18.031ZM20.5874 17.9582C20.7725 16.5466 21.1041 15.1496 21.574 13.8034C22.9717 14.1495 24.3383 14.6374 25.6357 15.2547L25.7725 15.3142C25.5829 15.6596 25.3881 16.0057 25.2126 16.2666C24.7777 17.0507 24.4729 17.8913 24.3041 18.7673C23.4743 18.4307 22.6022 18.2242 21.7011 18.1522H21.6461C21.348 18.1522 20.9554 18.125 20.5651 18.0927L20.5874 17.9582ZM26.4312 14.9292C27.0691 13.6601 27.8424 12.452 28.7301 11.3358C29.9546 12.1191 31.0981 13.0303 32.1331 14.0459L32.223 14.1289C31.8743 14.4449 31.5918 14.6926 31.3591 14.8704C30.6825 15.4788 30.1123 16.1843 29.6602 16.9691C28.9747 16.3724 28.2015 15.8896 27.3532 15.5295C27.0833 15.4414 26.7465 15.3032 26.3286 15.1232L26.4335 14.9307L26.4312 14.9292ZM31.6052 15.1783C31.803 15.0284 32.0335 14.8285 32.3048 14.586V19.4235C31.5621 18.6592 30.777 17.9237 29.9673 17.2322C30.4 16.4635 30.9539 15.7706 31.6052 15.1783ZM32.3011 7.38014C31.603 5.32773 29.9502 3.74341 27.8223 3.12173C28.632 2.59999 29.4736 2.11132 30.3264 1.66895L30.3955 1.63147C31.0208 1.28977 31.6647 0.938514 32.3011 0.557865V7.38014ZM32.197 8.4442L32.1167 8.40819L32.2119 8.50225C32.2126 8.50372 32.2134 8.50592 32.2134 8.50739C31.1375 8.9968 30.1182 9.60745 29.1784 10.3254C28.9896 10.4849 28.8104 10.6561 28.6439 10.8354C28.4275 10.7185 28.2007 10.6135 27.9665 10.5223C26.8476 10.1454 25.6848 9.89478 24.5093 9.7772C24.2074 6.22497 25.7888 4.56129 27.3955 3.40979C29.2818 3.9815 31.31 5.03967 32.197 8.4442ZM24.0483 8.78296L21.7896 2.28034C22.5353 2.43906 23.2848 2.57133 24.0506 2.70214C25 2.8469 25.9554 3.03869 26.8937 3.27237C25.0684 4.55394 24.0238 6.59901 24.0483 8.78296ZM23.6483 8.8366C22.374 7.21407 20.4238 6.26759 18.3353 6.26759C18.2364 6.26759 18.1368 6.2698 18.0372 6.27421C18.6283 5.52393 19.2625 4.7935 19.9249 4.10054L19.9256 4.09907C20.3941 3.5913 20.9182 3.024 21.423 2.42804L23.6483 8.8366ZM23.9569 9.96385C23.1011 10.7714 22.3383 11.6753 21.6862 12.6548C21.5532 12.8768 21.4327 13.1119 21.3271 13.3537C21.0669 13.3089 20.8007 13.2802 20.5323 13.2684C19.377 13.2721 18.2208 13.4051 17.0944 13.6645C15.623 10.3834 16.5762 8.29429 17.7234 6.68425C19.7145 6.62032 21.9903 6.97378 23.9569 9.96385ZM11.7413 7.68069L16.1309 13.2545C14.7004 12.319 13.4082 12.003 12.2632 12.003C11.3368 12.003 10.5071 12.2095 9.78067 12.4631C10.0989 11.5445 10.4669 10.6304 10.8766 9.74266L10.9502 9.57144C11.2171 8.95932 11.4914 8.32882 11.7413 7.68069ZM16.5874 14.0577C16.0595 15.0717 15.6461 16.1468 15.3576 17.2586C15.3056 17.5077 15.2691 17.7613 15.2498 18.0141C14.9948 18.0537 14.7405 18.1103 14.4929 18.1823L13.7985 18.3844H13.9405C13.0305 18.7357 12.1532 19.1714 11.3249 19.6836C8.8803 17.0698 9.08476 14.8094 9.62677 12.9378C11.4721 12.2463 13.7361 11.8553 16.5874 14.0577ZM15.2297 18.4145C15.2297 19.8203 15.371 21.2319 15.6483 22.6105L11.5859 19.9871C12.5361 19.4014 13.5539 18.9208 14.6082 18.5586C14.8119 18.499 15.0208 18.4505 15.2297 18.4145ZM20.252 22.2343C20.1167 21.3671 20.1234 20.4897 20.2669 19.6344C20.3361 19.3845 20.397 19.0678 20.4543 18.7467L23.4468 22.5444C22.3911 22.393 21.3182 22.2886 20.252 22.2343ZM21.6439 18.5417H21.6892C22.5621 18.6152 23.4134 18.8224 24.2216 19.1582C24.0134 20.1929 23.8528 21.2452 23.7428 22.2923L20.7569 18.4998C21.0617 18.5218 21.3814 18.5417 21.6439 18.5417ZM24.1063 22.7163C24.2156 21.578 24.3836 20.4332 24.6059 19.3103C25.6781 19.7395 26.739 20.2259 27.7613 20.7572L27.319 24.2632L24.1063 22.7163ZM27.2112 15.897C28.0305 16.249 28.7829 16.7251 29.4491 17.313C28.9167 18.2198 28.4216 19.1582 27.9762 20.1076L26.4037 15.5839C26.6944 15.7059 26.9807 15.8213 27.2112 15.897ZM28.1851 20.6161C28.6572 19.5822 29.1859 18.5615 29.7561 17.5798C30.6253 18.3256 31.4654 19.1222 32.2558 19.9482L30.6981 23.1014L28.1851 20.6161ZM50.7019 7.10311H50.7033C51.4126 7.21921 52.1725 7.33826 52.9606 7.42938L48.6877 12.8547C49.4312 10.7986 49.1167 8.5287 47.8126 6.72981C48.7762 6.80844 49.748 6.93409 50.7019 7.10311ZM50.3926 18.5586C51.4528 18.9223 52.4714 19.4022 53.4223 19.9871L49.3613 22.6046C49.6387 21.2297 49.7792 19.8218 49.7792 18.4167C49.9881 18.4535 50.1948 18.5013 50.3926 18.5586ZM50.5115 18.1853C50.2662 18.114 50.0141 18.0581 49.7621 18.0177C49.7427 17.7657 49.7063 17.5151 49.6572 17.2829L49.6535 17.2572C49.3591 16.1306 48.9353 15.0357 48.3933 14.0025C51.2409 11.8017 53.5197 12.2029 55.3777 12.9032C55.9331 14.7925 56.1502 17.0705 53.6959 19.6939C52.6981 19.0759 51.6283 18.5681 50.5115 18.1853ZM49.0446 13.0399L53.2736 7.67041C53.548 8.38247 53.8506 9.07543 54.1494 9.75663C54.5465 10.6215 54.9048 11.5136 55.2171 12.4109C53.1584 11.6092 50.8721 11.8517 49.0446 13.0399ZM39.4483 16.4701C39.8699 17.2359 40.1636 18.0589 40.3204 18.9179C39.3294 19.3118 38.3472 19.7549 37.397 20.2384L38.9807 15.6839C39.1755 16.0359 39.3234 16.2842 39.4483 16.4701ZM32.7019 13.6888V8.89759C33.7212 9.36863 34.687 9.95136 35.571 10.6281C35.7279 10.759 35.8796 10.9022 36.0238 11.0536C34.8342 11.8201 33.7175 12.7063 32.7019 13.6888ZM32.7019 14.5698C32.9524 14.7954 33.2022 15.0137 33.4134 15.1731C34.0602 15.7618 34.6052 16.4422 35.032 17.1976C34.223 17.8891 33.4401 18.6247 32.7011 19.3867L32.7019 14.5698ZM40.4706 10.1843L38.9026 14.7006C38.2677 13.4492 37.5056 12.2558 36.6364 11.1506C36.8201 11.0544 37.0104 10.9676 37.1993 10.8942C38.258 10.54 39.3576 10.3019 40.4706 10.1843ZM43.2677 13.4C41.8959 13.7439 40.5554 14.2223 39.2788 14.8234L40.8454 10.3136C41.6498 11.0793 42.368 11.9347 42.9807 12.8547C43.0862 13.0311 43.1829 13.2141 43.2677 13.4ZM43.8141 13.6902C44.0193 13.6586 44.2268 13.6373 44.4297 13.6285C45.5561 13.6329 46.6825 13.7608 47.7799 14.0092L44.797 17.7965C44.6067 16.4003 44.2758 15.0203 43.8141 13.6902ZM33.6625 14.8682C33.432 14.6948 33.1517 14.4479 32.8067 14.1333L33.0015 13.9518L32.9978 13.9496C34.0015 12.9804 35.1078 12.1067 36.2892 11.3512C37.1859 12.4814 37.9658 13.7071 38.6089 14.9953L38.6654 15.0982C38.2327 15.2856 37.8848 15.4303 37.6022 15.5237C36.777 15.8757 36.0171 16.3504 35.3413 16.9368C34.8967 16.1652 34.3338 15.4715 33.6625 14.8682ZM39.2141 15.2841L39.3227 15.2363C40.6297 14.611 42.0059 14.1187 43.4149 13.7711C43.8937 15.1291 44.2312 16.5392 44.4171 17.9641L44.4379 18.0941C43.9963 18.1302 43.6401 18.1537 43.3569 18.1537H43.2937C42.3993 18.2257 41.5271 18.4329 40.6981 18.7687C40.5301 17.8906 40.2238 17.0485 39.7851 16.2578C39.6387 16.0373 39.4565 15.7258 39.2141 15.2841ZM44.548 18.746C44.6141 19.1119 44.6758 19.4014 44.7331 19.6234C44.8781 20.4802 44.8855 21.348 44.7532 22.2049C43.6952 22.26 42.629 22.3651 41.5792 22.5179L44.548 18.746ZM45.1145 18.028L48.084 14.2605C48.5911 15.24 48.9881 16.2769 49.2677 17.3431C49.31 17.5438 49.3413 17.7517 49.3606 17.9611C47.9487 17.8472 46.5204 17.87 45.1145 18.028ZM47.9264 13.6447C46.7807 13.3809 45.6022 13.2457 44.4178 13.2412C44.1658 13.253 43.913 13.2795 43.6639 13.3221C43.5643 13.0943 43.4483 12.8702 43.3167 12.6504C42.6714 11.6812 41.9152 10.7847 41.0669 9.98443C43.0349 6.99141 45.3152 6.63501 47.2952 6.70115C48.4335 8.30384 49.3807 10.382 47.9264 13.6447ZM41.3361 8.90053L43.5859 2.42216C44.0639 2.98725 44.5569 3.52516 45.0595 4.06894L45.0877 4.10201C45.7509 4.79644 46.3888 5.53201 46.9851 6.29111C44.768 6.20072 42.6706 7.17145 41.3361 8.90053ZM40.9576 8.78075C40.9829 6.5968 39.9368 4.55173 38.1115 3.27164C39.0453 3.03722 40.0007 2.8447 40.9532 2.6992H40.9546C41.6528 2.57942 42.4342 2.44641 43.2186 2.27666L40.9576 8.78075ZM40.5011 9.78896C39.3323 9.90727 38.1777 10.1556 37.0632 10.5304C36.8283 10.6215 36.5955 10.7281 36.3717 10.8493C36.2007 10.6634 36.0171 10.4885 35.8223 10.3247C34.8848 9.60892 33.8662 8.999 32.7911 8.51107C33.6691 5.05143 35.7108 3.98444 37.6089 3.40979C39.2186 4.56202 40.8037 6.22718 40.5011 9.78896ZM32.6981 7.37867V0.554926C33.3911 0.972317 34.0981 1.35443 34.6796 1.66895C35.5323 2.11279 36.3717 2.6022 37.177 3.12394C35.0513 3.74488 33.3978 5.32773 32.6981 7.37867ZM35.2372 17.546C35.8164 18.5365 36.3509 19.5638 36.8283 20.6044L34.284 23.119L32.7093 19.9489C33.5071 19.1112 34.3569 18.3028 35.2372 17.546ZM37.7331 15.8926C37.9896 15.8081 38.3056 15.678 38.6067 15.5494L37.0275 20.0966C36.5784 19.1391 36.0796 18.1941 35.5442 17.2836C36.1978 16.706 36.9361 16.2372 37.7331 15.8926ZM43.3019 18.5431H43.3561C43.6156 18.5431 43.9286 18.524 44.2431 18.5005L41.2558 22.293C41.1457 21.2444 40.9859 20.1929 40.7784 19.1604C41.5866 18.8238 42.4372 18.6166 43.3019 18.5431ZM58.4431 14.367L58.4454 14.3678C59.1621 14.7455 59.8201 15.0886 60.5004 15.4112L54.6892 19.1633C56.058 17.4563 56.4989 15.2114 55.8543 13.0987C56.7338 13.4801 57.6037 13.9063 58.4431 14.367ZM60.7264 15.7324C60.7532 16.5157 60.8119 17.2858 60.8699 18.0346C60.9584 18.9708 61.0022 19.9254 61.0022 20.8748C59.7554 19.8203 58.2059 19.2677 56.626 19.2677C56.0543 19.2677 55.4781 19.3404 54.9108 19.4874L60.7264 15.7324ZM32.3048 24.6864L31.0022 23.396L32.3048 20.7587V24.6864ZM32.7019 24.6864V20.827L33.9881 23.4151L32.719 24.6695L32.7019 24.6864Z" fill="black"/>
<path d="M63.7304 47.0461C63.6159 46.218 63.5378 45.3891 63.4702 44.6175C63.4204 43.8973 63.3334 43.1427 63.1966 42.2432L63.1832 42.1558H62.7854L62.8033 42.2741C62.9364 43.1529 63.0248 43.9289 63.0754 44.6476C63.1326 45.2935 63.2018 46.0798 63.3044 46.8654L57.0405 44.1487C58.9341 44.3015 60.8352 43.6468 62.2315 42.3343L62.4204 42.1565H61.804L61.775 42.183C60.2129 43.5615 58.3698 44.0186 55.9802 43.6166C55.972 43.1978 55.9423 42.7488 55.8888 42.2491L55.8784 42.1572H55.4828L55.4947 42.2711C55.5438 42.7194 55.5721 43.1294 55.5825 43.5189L52.4531 42.1661L51.4449 42.1572L55.4382 43.8893C54.5899 44.6278 53.6561 45.2737 52.6672 45.8065C52.4851 45.8932 52.2984 45.9711 52.1089 46.0372C51.8962 44.7622 51.5535 43.4807 51.091 42.2256L51.0665 42.158H50.6449L50.6962 42.2961C51.1676 43.5608 51.5133 44.8563 51.7252 46.1482C50.3111 46.5104 48.8553 46.7257 47.3936 46.7904L47.2888 46.7985C47.2888 46.3245 47.294 45.9475 47.3207 45.6551C47.3252 44.7578 47.1892 43.8724 46.9141 43.0199C47.7825 42.9288 48.6338 42.7054 49.4449 42.3556L49.9029 42.158H48.8999L48.8642 42.1646C48.1854 42.4122 47.4895 42.5724 46.7944 42.6393C46.7721 42.5709 46.7483 42.5026 46.7245 42.435C46.7007 42.3667 46.6761 42.2983 46.6538 42.2292L46.6308 42.158H46.2092L46.2538 42.2924C46.2791 42.3689 46.3051 42.4438 46.3319 42.5188C46.3512 42.5732 46.3698 42.6275 46.3892 42.6819C45.239 42.809 44.0709 42.8811 42.917 42.8957L42.6256 42.158H42.1981L42.2784 42.3608L42.0561 42.158H41.4717L41.9906 42.6297L40.3951 42.1616L38.7825 42.158L38.8984 45.0018L37.3706 42.2116L37.3416 42.158H36.8903L38.578 45.2399L36.1602 43.5299L36.5721 42.158H36.1587L35.8204 43.2882L34.2226 42.158H33.6947L32.497 43.8136L31.2999 42.158H30.775L29.1877 43.2808L28.8486 42.158H28.4367L28.8471 43.5204L26.433 45.2245L28.1118 42.1572H27.6598L26.091 45.0194L26.2122 42.1572H24.6836L22.9899 42.6518L23.5326 42.1572H22.946L22.7103 42.3718L22.7951 42.1572H22.3706L22.0747 42.906C20.9215 42.8913 19.7564 42.8201 18.6092 42.6944C18.6286 42.6349 18.6501 42.5761 18.6709 42.5173C18.697 42.4424 18.723 42.3674 18.7483 42.2917L18.7929 42.1572H18.3721L18.349 42.2285C18.326 42.2983 18.3014 42.3681 18.2776 42.4379C18.2531 42.5078 18.2286 42.5768 18.2063 42.6466C17.5029 42.579 16.7996 42.4174 16.1133 42.1638L15.0598 42.1572L15.5081 42.3542C16.3274 42.7142 17.1929 42.9435 18.0828 43.0368C17.81 43.8841 17.6754 44.7645 17.6806 45.6632C17.7089 45.9556 17.7111 46.3407 17.7111 46.7845L17.5966 46.7794C16.1416 46.7162 14.6895 46.5031 13.2791 46.1445C13.4918 44.8548 13.8375 43.5608 14.3074 42.2954L14.3587 42.1572H13.9364L13.9118 42.2248C13.4509 43.4755 13.1089 44.7534 12.894 46.0232C12.6999 45.9549 12.5103 45.877 12.3319 45.7903C11.3453 45.259 10.4181 44.6175 9.57205 43.8826L13.5564 42.1565H12.5944L9.42558 43.5196C9.43599 43.1294 9.46424 42.7194 9.51332 42.2704L9.52521 42.1565H9.12595L9.11555 42.2484C9.06276 42.74 9.03376 43.1823 9.02558 43.5961C6.64268 43.9958 4.80105 43.5461 3.24566 42.1822L3.21592 42.1565H2.59659L2.78766 42.3343C4.19584 43.6475 6.09696 44.292 8.00551 44.1332L1.68135 46.8749C1.77726 46.1629 1.84194 45.4545 1.90514 44.7667L1.92224 44.5558L1.92075 44.555C1.97131 43.8665 2.05755 43.1199 2.18618 42.2748L2.20402 42.1565H1.81294L1.79956 42.2439C1.66573 43.1199 1.57726 43.8893 1.52744 44.5925C1.45012 45.4545 1.37726 46.2349 1.2635 47.0336L1.25161 47.0528C1.21146 47.1159 1.2122 47.1946 1.25086 47.2563C1.26796 47.3313 1.32893 47.3915 1.40774 47.4055L1.43004 47.4069C2.10662 47.8728 2.75793 48.3659 3.41889 48.87C4.27242 49.5483 5.17503 50.1869 6.10365 50.7689C6.26871 51.8403 6.49621 52.9146 6.78097 53.961C6.97503 54.7223 7.1951 55.61 7.36313 56.4874L7.36759 56.5175C7.37577 56.5432 7.38915 56.5668 7.40253 56.5793C7.42261 56.6057 7.44937 56.627 7.47986 56.6402L7.51183 56.6483C8.37503 56.882 9.20774 57.159 10.0107 57.4265C11.0293 57.7866 12.0784 58.0952 13.1312 58.3443C13.6345 59.2901 14.1951 60.2182 14.7958 61.1029C15.236 61.7783 15.691 62.4764 16.1126 63.2031L16.1133 63.2119C16.1193 63.3009 16.1862 63.3729 16.2717 63.3905C16.3036 63.4133 16.3899 63.4243 16.4449 63.3949L16.4642 63.3912L16.4665 63.3883C17.3386 63.3391 18.2129 63.3325 18.9557 63.3325C20.0471 63.3486 21.1468 63.3045 22.2323 63.2024C23.0226 63.9424 23.8642 64.6478 24.7319 65.2982C25.3654 65.7905 26.0828 66.3482 26.7698 66.9493C26.8248 66.9986 26.9044 67.0125 26.978 66.9839C27.7936 66.6488 28.6234 66.3622 29.4263 66.0852L29.4501 66.0771C30.4799 65.742 31.5014 65.3481 32.4888 64.9043C33.4754 65.3474 34.497 65.742 35.5252 66.0764C36.2865 66.338 37.149 66.6348 37.9966 66.9839C38.0211 66.9949 38.0471 67.0001 38.0754 67.0001L38.1282 66.9971L38.1341 66.9898C38.1668 66.9824 38.1973 66.9677 38.2234 66.9457C38.9081 66.3468 39.6271 65.7876 40.2605 65.2952C41.1304 64.6449 41.9706 63.9424 42.7594 63.2061C43.8419 63.3089 44.9438 63.3523 46.0278 63.3376C46.7683 63.3413 47.6888 63.3449 48.5802 63.3971C48.6033 63.4059 48.6278 63.4103 48.6523 63.4103L48.7051 63.4037L48.7155 63.3942C48.7906 63.378 48.8509 63.3185 48.8672 63.2435C49.3029 62.4852 49.7832 61.7489 50.2055 61.1C50.8137 60.2079 51.3765 59.2732 51.8806 58.3216C52.9386 58.071 53.9944 57.7601 55.0167 57.3971C55.8167 57.1297 56.6003 56.871 57.4018 56.6483L57.4077 56.652L57.4516 56.6498C57.5141 56.6469 57.5713 56.6138 57.6048 56.5631C57.6605 56.5175 57.6858 56.4426 57.6694 56.3735L57.6665 56.3661C57.8204 55.5718 58.0107 54.8009 58.2241 53.9507C58.5066 52.9109 58.7341 51.8417 58.8992 50.7718C59.8248 50.1927 60.7237 49.5578 61.5735 48.8855C62.1951 48.4093 62.8598 47.9052 63.555 47.429L63.5854 47.4275C63.665 47.4136 63.7252 47.354 63.7423 47.2784C63.7862 47.2159 63.7899 47.1292 63.7445 47.0608L63.7304 47.0461ZM52.1178 57.8542C53.0962 55.8892 53.0382 53.6156 51.9877 51.7175L57.0583 56.3323C56.3408 56.5381 55.6464 56.7666 54.888 57.0209C53.9847 57.3398 53.0531 57.6198 52.1178 57.8542ZM45.92 62.9452V62.9467C44.9988 62.9525 44.0576 62.9202 43.1319 62.8453C44.6999 61.3036 45.3936 59.138 45.0256 57.0084L48.3007 62.9871C47.4955 62.9489 46.688 62.9452 46.0248 62.9423L45.92 62.9452ZM35.4538 65.6362C34.6115 65.3525 33.7758 65.0307 32.9639 64.6772C34.972 63.7175 36.3453 61.8789 36.6918 59.7295L37.8338 66.4908C37.0806 66.1925 36.3297 65.9331 35.659 65.7016L35.4531 65.6332L35.4538 65.6362ZM18.9646 62.9305H18.9624C18.1728 62.9334 17.4486 62.9386 16.717 62.9724L19.9773 57.0143C19.6144 59.1365 20.3066 61.2947 21.8665 62.8313C20.9044 62.9099 19.9341 62.9437 18.9646 62.9305ZM10.1475 57.0518L10.146 57.051C9.46648 56.8254 8.70514 56.5726 7.93116 56.3529L13.0211 51.7227C11.9654 53.6274 11.9111 55.9083 12.8984 57.8777C11.9713 57.6455 11.0471 57.3677 10.1475 57.0518ZM6.03674 50.2501C5.2241 49.7261 4.42781 49.1566 3.66424 48.554C3.03971 48.0771 2.46573 47.6428 1.8635 47.2225L8.20923 44.4742C6.57503 45.9284 5.76164 48.0646 6.03674 50.2501ZM13.5222 50.5631C10.3527 52.2657 8.18023 51.5074 6.47168 50.5197C6.24491 48.5805 6.4174 46.3128 9.26573 44.131C10.1475 44.9041 11.1185 45.5787 12.1557 46.1371C12.3787 46.2444 12.6107 46.3385 12.8479 46.4171C12.8263 46.6655 12.8204 46.9146 12.83 47.1615C12.9297 48.3159 13.1624 49.4601 13.5222 50.5631ZM18.0754 45.6227V45.6198C18.0754 44.7549 18.2129 43.901 18.4858 43.0787C19.5505 43.1992 20.6286 43.2705 21.697 43.2918L18.1081 46.5575C18.1074 46.2334 18.0999 45.8946 18.0754 45.6227ZM30.5453 46.506L31.1921 42.6753L32.2553 44.145L30.5453 46.506ZM29.3089 43.6717L30.7996 42.6187L30.1505 46.4649L29.3089 43.6717ZM32.7416 44.1442L33.8107 42.6679L34.462 46.5215L32.7416 44.1442ZM43.294 43.2793C44.3661 43.2573 45.4471 43.1845 46.5118 43.064C46.7877 43.8959 46.9267 44.76 46.9267 45.6257C46.9022 45.8932 46.8947 46.2305 46.8925 46.5553L43.294 43.2793ZM51.7698 46.5428C51.7839 46.739 51.7869 46.9381 51.7795 47.1329C51.6828 48.2425 51.4613 49.3396 51.1215 50.3978L47.5713 47.1718C48.9839 47.0998 50.3958 46.8881 51.7698 46.5428ZM17.9854 51.6257C17.775 51.6235 17.5639 51.6095 17.3609 51.5845C16.2672 51.4001 15.1929 51.0951 14.1654 50.6777L17.7059 47.4584C17.6613 48.8487 17.7557 50.2493 17.9854 51.6257ZM21.9103 46.7551C21.0553 46.9558 20.1758 47.0212 19.3126 46.9506C19.0672 46.9073 18.7587 46.8742 18.3832 46.8411L21.9609 43.585C21.894 44.6395 21.8769 45.7036 21.9103 46.7551ZM22.6873 51.2436L20.3691 55.4763C19.6955 54.5827 19.123 53.6134 18.6657 52.5949C18.5914 52.4024 18.5267 52.2047 18.4747 52.0056C19.8999 51.8895 21.317 51.633 22.6873 51.2436ZM25.6167 56.0156C25.4873 55.8635 25.3654 55.7041 25.2546 55.5402C26.5564 54.978 27.804 54.2865 28.9646 53.4848L28.1706 58.1893C27.2397 57.5603 26.3802 56.8284 25.6167 56.0156ZM24.6717 55.3418C24.4813 55.4035 24.2873 55.4557 24.0947 55.4954C22.9802 55.6761 21.8464 55.7342 20.7155 55.6666L23.0189 51.4603C23.4367 52.8014 23.9921 54.1058 24.6717 55.3418ZM28.5371 51.8799C27.9884 51.1848 27.5587 50.4139 27.259 49.5872C28.1706 49.0398 29.0665 48.4431 29.9245 47.8126L29.1207 52.5685C28.8694 52.2547 28.6888 52.0423 28.5371 51.8799ZM35.6412 53.5091L36.4412 58.2429C35.3654 57.9483 34.3208 57.536 33.3386 57.018C33.1542 56.9077 32.9743 56.7857 32.8033 56.6549C33.8494 55.7011 34.804 54.6437 35.6412 53.5091ZM34.7163 52.1739C33.9773 51.6992 33.3237 51.1142 32.7728 50.4352C33.4516 49.6262 34.0984 48.7782 34.697 47.9096L35.494 52.639C35.1587 52.4237 34.9118 52.276 34.7163 52.1739ZM35.4605 53.0836L35.3787 53.196C34.5326 54.3578 33.5631 55.4358 32.4955 56.4029C31.4286 55.4366 30.459 54.3593 29.6137 53.2004L29.5401 53.1071C29.9155 52.8646 30.2479 52.6545 30.5141 52.5156C31.2724 52.0313 31.9445 51.4361 32.5141 50.7461C33.0836 51.4361 33.7572 52.0306 34.5237 52.5178C34.7869 52.6567 35.1252 52.8683 35.4605 53.0836ZM32.1832 56.6564C32.0129 56.7857 31.8338 56.9055 31.6523 57.0128C30.6739 57.5316 29.6352 57.9431 28.5639 58.2378L29.3609 53.5194C30.1951 54.6525 31.1438 55.707 32.1832 56.6564ZM36.462 51.8799C36.2813 52.071 36.0761 52.3186 35.8836 52.5597L35.0843 47.8251C35.9379 48.4541 36.8286 49.0486 37.7364 49.596C37.436 50.422 37.0055 51.1929 36.462 51.8799ZM39.749 55.5225C39.6345 55.6945 39.5089 55.8606 39.3758 56.0164C38.6137 56.8306 37.7594 57.5603 36.8338 58.1871L36.036 53.4591C37.2003 54.2638 38.4479 54.9575 39.749 55.5225ZM40.9431 55.4851C40.7379 55.4424 40.5341 55.3881 40.3356 55.3227C41.0092 54.0911 41.5631 52.7897 41.981 51.4508L44.2836 55.6533C43.1676 55.718 42.0434 55.6622 40.9431 55.4851ZM39.5862 46.2532C40.5988 46.5758 41.6375 46.8543 42.6784 47.0821C42.6657 47.9485 42.5133 48.8039 42.23 49.6174C42.1252 49.8488 42.0174 50.1406 41.8984 50.4749L39.5862 46.2532ZM41.6405 51.212C41.2204 52.5846 40.6546 53.9191 39.9587 55.1801C38.6263 54.6099 37.3512 53.9015 36.1661 53.0741L36.0427 52.994C36.2776 52.6956 36.5364 52.3752 36.7557 52.1437C37.32 51.4361 37.7654 50.6498 38.0799 49.8062C38.8531 50.2817 39.6932 50.6329 40.5877 50.8504C40.8746 50.8923 41.2509 50.9827 41.6776 51.0892L41.6405 51.212ZM30.3207 52.1709C30.0799 52.2973 29.7936 52.4737 29.5074 52.6567L30.3118 47.8905C30.9155 48.7649 31.5676 49.6196 32.2531 50.4352C31.7036 51.115 31.0509 51.6999 30.3207 52.1709ZM28.9602 53.0064L28.862 53.0755C27.6702 53.9118 26.3862 54.6268 25.0427 55.2007C24.3408 53.9331 23.7713 52.5905 23.3512 51.209L23.3096 51.0826C23.7579 50.9709 24.1185 50.8879 24.4129 50.8416C25.2977 50.6263 26.1371 50.2765 26.9103 49.8011C27.2248 50.6454 27.6709 51.4324 28.2412 52.1467C28.436 52.3517 28.6628 52.6302 28.9602 53.0064ZM23.1014 50.4793C22.9899 50.1626 22.8747 49.8532 22.7676 49.6181C22.4813 48.7951 22.3304 47.9397 22.3178 47.0726C23.3594 46.8463 24.404 46.5678 25.4263 46.2444L23.1014 50.4793ZM43.039 43.5806L46.6338 46.8514C46.3029 46.8801 45.9594 46.9146 45.694 46.9602C44.8219 47.0322 43.9438 46.966 43.088 46.7647C43.1222 45.7058 43.1051 44.6359 43.039 43.5806ZM46.5252 52.0144C46.4724 52.2121 46.4085 52.4075 46.3356 52.5942C45.8791 53.6134 45.3081 54.5819 44.6367 55.4748L42.3252 51.2538C43.6947 51.6426 45.1059 51.8983 46.5252 52.0144ZM47.2962 47.4554L50.8449 50.6821C49.8115 51.1025 48.7304 51.4089 47.6345 51.5941C47.4293 51.6205 47.2204 51.6345 47.0115 51.6374C47.2434 50.2603 47.3401 48.8546 47.2962 47.4554ZM45.1022 47.3959C45.3126 47.4018 45.5401 47.382 45.7549 47.3474C46.0598 47.2953 46.4754 47.2563 46.891 47.2225L46.8955 47.3261C46.952 48.7598 46.8568 50.206 46.6129 51.6257C45.1646 51.5132 43.723 51.2516 42.323 50.846L42.1981 50.8144C42.349 50.3809 42.4754 50.0355 42.5966 49.7687C42.8947 48.9273 43.0553 48.0514 43.0761 47.163C43.7408 47.2997 44.4211 47.3783 45.1022 47.3959ZM41.5438 50.6483C41.2248 50.5712 40.9103 50.4999 40.6576 50.4602C39.7951 50.2456 38.9773 49.8988 38.2248 49.427C38.6033 48.4409 38.9386 47.429 39.2226 46.4127L41.5438 50.6483ZM38.9312 45.9689C38.6352 47.063 38.2813 48.1558 37.8776 49.2191C36.8984 48.6253 35.9393 47.9765 35.03 47.2938L36.0464 43.9282L38.9312 45.9689ZM34.8583 46.4943L34.204 42.6239L35.7022 43.6828L34.8583 46.4943ZM34.5862 47.3695C33.9453 48.3145 33.2486 49.2396 32.5141 50.1222C31.7743 49.2382 31.0717 48.3064 30.4226 47.3511L32.5007 44.4837L34.5862 47.3695ZM27.12 49.2147C26.7193 48.1543 26.3654 47.0616 26.0687 45.9637L28.9706 43.9135L29.9854 47.2769C29.065 47.9669 28.1014 48.6187 27.12 49.2147ZM24.3445 50.4543C24.0858 50.4948 23.7706 50.566 23.4687 50.6388L25.7787 46.423C26.0613 47.4363 26.3936 48.4453 26.7691 49.427C26.0167 49.8966 25.1988 50.2427 24.3445 50.4543ZM22.668 50.8387C21.2761 51.2428 19.8375 51.5044 18.3906 51.6176C18.1468 50.2045 18.0523 48.7605 18.1081 47.3217V47.2152C18.52 47.2482 18.9326 47.2864 19.2434 47.3401C19.4583 47.3746 19.6754 47.3856 19.9014 47.3893C20.5787 47.3709 21.2583 47.2938 21.9237 47.1578C21.9431 48.0455 22.1044 48.9222 22.4018 49.7643L22.4055 49.7724C22.5222 50.0296 22.6479 50.3713 22.7966 50.8019L22.668 50.8387ZM13.8851 50.3978C13.5438 49.3388 13.3222 48.2425 13.2248 47.1409C13.2181 46.9396 13.2226 46.7346 13.239 46.531C14.6144 46.8764 16.0293 47.088 17.4442 47.16L13.8851 50.3978ZM12.8263 51.3633L7.68134 56.048C7.52298 55.2749 7.33562 54.5276 7.16685 53.8581L7.15495 53.8177H7.15346C6.90737 52.8999 6.70291 51.9615 6.54603 51.026C8.45607 52.1482 10.8241 52.2643 12.8263 51.3633ZM13.9312 51.0077C15.0129 51.453 16.1475 51.7778 17.3074 51.9733C17.5594 52.0056 17.8167 52.0225 18.0717 52.0225C18.0717 52.0225 18.0724 52.0225 18.0732 52.0225C18.1326 52.265 18.2092 52.5053 18.3014 52.7426C18.7847 53.8229 19.3921 54.848 20.1089 55.79C17.6687 58.4156 15.355 58.3899 13.4025 57.9982C12.5349 56.2199 11.9379 54.0022 13.9312 51.0077ZM15.1735 58.5743C16.8338 58.5552 18.4219 57.9262 19.6315 56.8276L16.352 62.8137C15.9721 62.1773 15.5721 61.5585 15.1312 60.8825L15.0724 60.7958L15.0709 60.7965C14.5631 60.0345 14.0836 59.2401 13.6434 58.4311C14.1468 58.5207 14.6598 58.5692 15.1735 58.5743ZM20.6003 56.0494C21.7914 56.1273 22.9906 56.07 24.1713 55.8782C24.4115 55.8275 24.6501 55.7621 24.8806 55.6827C25.0159 55.8878 25.1631 56.0847 25.3215 56.2706C26.1215 57.1238 27.0174 57.8865 27.9884 58.5405C26.5416 61.8121 24.3475 62.53 22.3787 62.7857C20.9899 61.3903 19.7111 59.4951 20.6003 56.0494ZM27.9349 59.5943L26.7832 66.432C26.2278 65.9588 25.6583 65.5135 25.1059 65.0806L24.9802 64.9822C24.2129 64.4061 23.4642 63.7859 22.752 63.1377C24.9609 62.8702 26.9081 61.5233 27.9349 59.5943ZM28.3089 59.7736C28.662 61.9061 30.0315 63.7315 32.0226 64.6838C31.1438 65.0637 30.2382 65.4062 29.3297 65.7023L29.3282 65.7031C28.6323 65.9404 27.8977 66.1954 27.1735 66.4813L28.3089 59.7736ZM31.8509 57.3486C32.0732 57.2171 32.2888 57.0694 32.494 56.9099C32.6992 57.0701 32.9155 57.2178 33.1408 57.3523C34.1773 57.9034 35.2769 58.3377 36.4122 58.6449C36.1215 62.2067 34.2776 63.5926 32.4932 64.4685C30.7089 63.5911 28.865 62.203 28.5773 58.6383C29.7111 58.3326 30.8107 57.8998 31.8509 57.3486ZM37.0791 59.6384C38.1103 61.5703 40.0159 62.8761 42.239 63.1421C41.5326 63.7851 40.7869 64.4024 40.0196 64.9792L39.8635 65.102C39.3245 65.5252 38.7683 65.9603 38.2256 66.4225L37.0791 59.6384ZM37.0003 58.5486C37.9728 57.8946 38.8709 57.1311 39.6739 56.275C39.8367 56.0825 39.9892 55.8775 40.1267 55.6651C40.3661 55.7474 40.6137 55.8157 40.8665 55.8694C42.0315 56.0568 43.2181 56.1134 44.3973 56.0384C45.2925 59.4907 44.0085 61.3947 42.6129 62.7982C40.6427 62.5418 38.4457 61.8231 37.0003 58.5486ZM45.3445 56.763C46.5654 57.8895 48.1735 58.5354 49.8642 58.5574C50.3713 58.5523 50.8791 58.5045 51.378 58.4156C50.92 59.2548 50.4152 60.0822 49.8761 60.8781L49.8754 60.8795C49.4531 61.5255 49.0412 62.1604 48.6561 62.8122L45.3445 56.763ZM44.9118 55.7621C45.6204 54.8274 46.2211 53.8126 46.6999 52.7419C46.7899 52.5119 46.8665 52.2731 46.9274 52.0306C47.1401 52.0306 47.3557 52.0188 47.5668 51.996V52.0027L47.6888 51.9821C48.8509 51.7859 49.9906 51.4596 51.0776 51.0113C53.0576 53.9919 52.4687 56.203 51.6107 57.9762C49.6642 58.3642 47.3542 58.3899 44.9118 55.7621ZM52.1542 46.4281C52.3884 46.3502 52.6189 46.2569 52.8434 46.1496C53.8851 45.5904 54.8635 44.9136 55.7512 44.1369C58.5958 46.3216 58.7609 48.5915 58.5289 50.5322C56.8189 51.5206 54.6464 52.2819 51.4739 50.58C51.8345 49.4719 52.0695 48.3218 52.1706 47.1564C52.1802 46.9146 52.175 46.6699 52.1542 46.4281ZM57.3274 56.0443L52.2174 51.3957C54.2271 52.2944 56.5393 52.1709 58.4568 51.0371C58.2977 51.9835 58.091 52.9278 57.8427 53.8486L57.8419 53.85C57.6568 54.5864 57.4776 55.3094 57.3274 56.0443ZM58.972 50.2574C59.2516 48.0698 58.439 45.9306 56.8033 44.472L63.1542 47.2254C62.5074 47.6752 61.8873 48.1477 61.3312 48.5709C60.5735 49.1691 59.7802 49.7364 58.972 50.2574ZM42.6159 43.222C42.6977 44.3728 42.7222 45.536 42.6895 46.6817C41.5542 46.4289 40.4211 46.118 39.3267 45.7587L39.1854 42.2535L39.1839 42.2153L42.6159 43.222ZM25.6687 45.7528C24.5654 46.1114 23.4345 46.4193 22.3066 46.6684C22.2747 45.5228 22.3007 44.3647 22.3817 43.236L25.8144 42.2256L25.6687 45.7528Z" fill="black"/>
<path opacity="0.92" d="M8.14749 38.1543V38.0058H8.22258C8.46347 38.0058 8.58392 37.8971 8.58392 37.6788C8.58392 37.5995 8.56905 37.5142 8.53931 37.4253L7.18466 33.8113H4.5512L3.24117 37.3665C3.21143 37.4451 3.19656 37.5194 3.19656 37.5899C3.19656 37.7185 3.2315 37.8199 3.30139 37.8949C3.37128 37.9691 3.44637 38.0058 3.52741 38.0058H3.60251V38.1543H1.93262V38.0058H2.00771C2.13782 38.0058 2.2657 37.9287 2.39135 37.7751C2.51626 37.6215 2.61886 37.4407 2.6999 37.2328L6.14674 28.1589L9.51849 37.1439C9.58838 37.3423 9.68578 37.5355 9.81068 37.7229C9.93633 37.9118 10.0999 38.0058 10.3006 38.0058H10.3757V38.1543H8.14749ZM5.8605 30.1967L4.70213 33.3058H7.01886L5.8605 30.1967Z" fill="black"/>
<path opacity="0.92" d="M14.334 28.4858V28.3374H16.4708C17.5845 28.3374 18.4299 28.5483 19.0068 28.9701C19.5831 29.3912 19.8715 29.9886 19.8715 30.7624C19.8715 31.1783 19.7712 31.5501 19.5704 31.8779C19.3697 32.2049 19.1065 32.4797 18.7808 32.7031C18.4544 32.9258 18.0879 33.097 17.6812 33.2168C17.2752 33.3351 16.8708 33.3946 16.47 33.3946H15.8976V37.1878C15.8976 37.2672 15.908 37.3547 15.9288 37.4487C15.9481 37.5428 15.9808 37.6295 16.0262 37.7081C16.0715 37.7875 16.1213 37.8573 16.1764 37.9168C16.2314 37.9763 16.299 38.0057 16.3801 38.0057H16.4552V38.1542H14.334V38.0057H14.4091C14.479 38.0057 14.5436 37.9763 14.6039 37.9168C14.6641 37.8573 14.7139 37.7882 14.7541 37.7081C14.7942 37.6295 14.8247 37.5428 14.844 37.4487C14.8648 37.3547 14.8752 37.2672 14.8752 37.1878V29.2604C14.8752 29.1215 14.8351 28.962 14.7541 28.7835C14.6745 28.6056 14.5593 28.5064 14.4091 28.4858H14.334ZM16.1094 28.8577H15.8983V32.8736H16.3496C16.7511 32.8736 17.1102 32.8192 17.4269 32.7105C17.7429 32.6017 18.0061 32.4577 18.2165 32.2791C18.4269 32.1013 18.5875 31.8977 18.699 31.6692C18.8091 31.4406 18.8641 31.2077 18.8641 30.9703C18.8641 30.6823 18.8165 30.4126 18.7206 30.1598C18.6247 29.907 18.47 29.6836 18.2544 29.4904C18.0381 29.2971 17.7541 29.1435 17.4031 29.0296C17.0522 28.915 16.621 28.8577 16.1094 28.8577Z" fill="black"/>
<path opacity="0.92" d="M24.2217 38.1542V38.0057H24.2968C24.3763 38.0057 24.447 37.9785 24.5079 37.9242C24.5681 37.8698 24.6202 37.8029 24.6655 37.7228C24.7109 37.6442 24.7458 37.5597 24.7704 37.4708C24.7957 37.3811 24.809 37.2973 24.809 37.2187V29.2604C24.809 29.1906 24.7964 29.1105 24.7704 29.0215C24.7458 28.9334 24.7109 28.8488 24.6655 28.7695C24.6202 28.6901 24.5674 28.6225 24.5079 28.5681C24.447 28.5138 24.3763 28.4866 24.2968 28.4866H24.2217V28.3381H30.0157V29.7218H29.8655C29.8447 29.4933 29.754 29.2927 29.5942 29.1193C29.4336 28.9451 29.183 28.8584 28.8418 28.8584H25.8165V32.6223H28.3146C28.5458 32.6223 28.7392 32.5525 28.8945 32.4136C29.0499 32.2747 29.128 32.1108 29.128 31.922H29.2782V33.7811H29.128C29.128 33.6033 29.0529 33.4497 28.902 33.3204C28.7518 33.1918 28.5555 33.1278 28.3146 33.1278H25.8165V37.6339H29.1131C29.3042 37.6339 29.4693 37.5891 29.609 37.4994C29.7496 37.4112 29.8678 37.3047 29.9629 37.1798C30.0581 37.0563 30.1287 36.9226 30.1741 36.7785C30.2194 36.6345 30.2418 36.5133 30.2418 36.4141H30.3919V38.1542H24.2217Z" fill="black"/>
<path opacity="0.92" d="M36.6386 38.0057H36.7137V38.1542H34.5918V38.0057H34.6669C34.7368 38.0057 34.8015 37.9763 34.8617 37.9168C34.9219 37.8573 34.974 37.7882 35.0193 37.7081C35.0647 37.6295 35.0974 37.5428 35.1182 37.4487C35.1375 37.3547 35.1479 37.2672 35.1479 37.1878V29.2604C35.1479 29.1906 35.1383 29.1105 35.1182 29.0215C35.0974 28.9334 35.0647 28.8488 35.0193 28.7695C34.974 28.6901 34.9212 28.6225 34.8617 28.5681C34.8015 28.5138 34.7368 28.4866 34.6669 28.4866H34.5918V28.3381H37.2096C38.2134 28.3381 38.9881 28.5314 39.5353 28.9187C40.0825 29.3059 40.3554 29.8762 40.3554 30.6294C40.3554 31.0063 40.2929 31.3363 40.168 31.6185C40.0424 31.9014 39.8736 32.1446 39.6632 32.3474C39.4528 32.551 39.2044 32.7141 38.9182 32.839C38.6319 32.9625 38.3286 33.0536 38.0082 33.1131L39.0914 34.7496C39.3531 35.1465 39.6193 35.5359 39.8899 35.918C40.1606 36.3002 40.4267 36.694 40.6885 37.1004C40.7583 37.1996 40.8357 37.3039 40.9219 37.4127C41.0067 37.5215 41.0966 37.6207 41.1918 37.7103C41.287 37.8 41.3873 37.872 41.4929 37.9264C41.5985 37.9807 41.7063 38.0079 41.8178 38.0079V38.1564H41.1702C40.7687 38.1564 40.4401 38.0594 40.1844 37.8661C39.9286 37.6728 39.7152 37.4472 39.5442 37.1893C39.0929 36.5353 38.6438 35.8703 38.1985 35.1957C37.7516 34.5218 37.3078 33.8575 36.8661 33.2035C36.7561 33.1925 36.6379 33.18 36.5122 33.1653C36.3873 33.1506 36.2691 33.133 36.1583 33.1131V37.1893C36.1583 37.2687 36.1687 37.3561 36.1896 37.4502C36.2089 37.5442 36.2416 37.631 36.287 37.7096C36.3323 37.7889 36.3821 37.8588 36.4372 37.9183C36.4899 37.9763 36.5576 38.0057 36.6386 38.0057ZM36.3814 28.843H36.1554V32.6215H36.2305C36.3108 32.6311 36.4394 32.6384 36.6156 32.6436C36.7911 32.6487 37.0089 32.6509 37.2691 32.6509C37.4795 32.6509 37.7026 32.6186 37.939 32.5547C38.1754 32.4907 38.3963 32.3812 38.6015 32.2277C38.8074 32.0733 38.9777 31.872 39.1137 31.6236C39.2483 31.376 39.316 31.0637 39.316 30.6874C39.316 30.3105 39.2438 30.0026 39.0989 29.7645C38.9531 29.5271 38.7524 29.339 38.4966 29.2001C38.2401 29.0612 37.9308 28.9664 37.5702 28.9172C37.2096 28.868 36.8134 28.843 36.3814 28.843Z" fill="black"/>
<path opacity="0.92" d="M45.8477 28.4858V28.3374H48.0001V28.4858H47.925C47.8551 28.4858 47.7897 28.513 47.7287 28.5674C47.6685 28.6218 47.6187 28.6865 47.5785 28.7614C47.5391 28.8356 47.5064 28.9194 47.4811 29.0135C47.4566 29.1075 47.4439 29.1898 47.4439 29.2596V37.1878C47.4439 37.2672 47.4536 37.3547 47.4737 37.4487C47.4938 37.5428 47.5257 37.6295 47.5711 37.7081C47.6164 37.7875 47.6662 37.8573 47.7213 37.9168C47.7763 37.9763 47.8439 38.0057 47.925 38.0057H48.0001V38.1542H45.8477V38.0057H45.9227C46.003 38.0057 46.0737 37.9785 46.1339 37.9242C46.1941 37.8698 46.2462 37.8 46.2915 37.7155C46.3369 37.6317 46.3696 37.5428 46.3904 37.4487C46.4097 37.3547 46.4201 37.2672 46.4201 37.1878V29.2604C46.4201 29.1906 46.4105 29.1105 46.3904 29.0215C46.3696 28.9334 46.3369 28.8489 46.2915 28.7695C46.2462 28.6901 46.1934 28.6225 46.1339 28.5681C46.0737 28.5138 46.0038 28.4866 45.9227 28.4866H45.8477V28.4858Z" fill="black"/>
<path opacity="0.92" d="M57.5878 28.1882C58.3707 28.1882 59.0733 28.3249 59.6949 28.5983C60.3172 28.8702 60.8466 29.2376 61.2823 29.6991C61.7187 30.1598 62.0555 30.6948 62.2912 31.3047C62.5261 31.9146 62.6436 32.5517 62.6436 33.2168C62.6436 33.9604 62.5061 34.6446 62.2302 35.2684C61.9536 35.8938 61.5752 36.4295 61.0942 36.8755C60.6124 37.3216 60.0533 37.6714 59.4168 37.9242C58.7797 38.1769 58.0994 38.3033 57.3759 38.3033C56.6035 38.3033 55.909 38.1645 55.2927 37.8874C54.6748 37.6097 54.1529 37.2422 53.7269 36.7866C53.3001 36.3303 52.9715 35.8049 52.741 35.2104C52.5098 34.6152 52.3945 33.9957 52.3945 33.3512C52.3945 32.7163 52.5098 32.0888 52.741 31.4686C52.9715 30.8491 53.3098 30.2965 53.7559 29.8108C54.2027 29.3243 54.7469 28.9326 55.3893 28.635C56.0317 28.3374 56.7655 28.1882 57.5878 28.1882ZM57.573 37.7823C58.2451 37.7529 58.8347 37.6023 59.3417 37.3289C59.8481 37.057 60.2719 36.7095 60.6124 36.2877C60.9536 35.8666 61.2072 35.4029 61.3737 34.8966C61.5388 34.391 61.6213 33.8906 61.6213 33.3946C61.6213 32.8493 61.5209 32.2989 61.3202 31.7434C61.1194 31.1886 60.8332 30.6852 60.4614 30.234C60.0904 29.7828 59.6473 29.4162 59.1306 29.1332C58.6131 28.8503 58.0339 28.7085 57.3923 28.7085C56.77 28.7085 56.2124 28.8452 55.7202 29.1185C55.2295 29.3904 54.8109 29.7402 54.4644 30.1672C54.118 30.5926 53.8548 31.0688 53.6733 31.595C53.4934 32.1211 53.4035 32.637 53.4035 33.1425C53.4035 33.6878 53.509 34.236 53.7194 34.7864C53.9298 35.3368 54.2206 35.835 54.5916 36.2811C54.9633 36.7271 55.4027 37.0894 55.909 37.3679C56.4168 37.6442 56.9707 37.7823 57.573 37.7823Z" fill="black"/>
</g>
<defs>
<clipPath id="clip0_336_126">
<rect width="65" height="67" fill="white"/>
</clipPath>
</defs>
</svg>
