<svg width="30" height="13" viewBox="0 0 30 13" fill="none" xmlns="http://www.w3.org/2000/svg">
<path fill-rule="evenodd" clip-rule="evenodd" d="M29.5459 6.49993C29.5459 6.30931 29.4693 6.12649 29.3329 5.9917C29.1965 5.85691 29.0115 5.78118 28.8186 5.78118H2.9379L7.51535 1.25881C7.65192 1.12384 7.72864 0.940796 7.72864 0.749931C7.72864 0.559066 7.65192 0.376018 7.51535 0.241056C7.37879 0.106094 7.19357 0.0302734 7.00044 0.0302734C6.80732 0.0302734 6.6221 0.106094 6.48554 0.241056L0.667355 5.99106C0.599627 6.05782 0.545893 6.13714 0.50923 6.22446C0.472565 6.31178 0.453693 6.40539 0.453693 6.49993C0.453693 6.59447 0.472565 6.68808 0.50923 6.7754C0.545893 6.86272 0.599627 6.94204 0.667355 7.00881L6.48554 12.7588C6.6221 12.8938 6.80732 12.9696 7.00044 12.9696C7.19357 12.9696 7.37879 12.8938 7.51535 12.7588C7.65192 12.6238 7.72864 12.4408 7.72864 12.2499C7.72864 12.0591 7.65192 11.876 7.51535 11.7411L2.9379 7.21868H28.8186C29.0115 7.21868 29.1965 7.14296 29.3329 7.00816C29.4693 6.87337 29.5459 6.69056 29.5459 6.49993Z" fill="#808080"/>
</svg>
