<svg width="30" height="13" viewBox="0 0 30 13" fill="none" xmlns="http://www.w3.org/2000/svg">
<path fill-rule="evenodd" clip-rule="evenodd" d="M29.5463 6.49983C29.5463 6.69045 29.4696 6.87327 29.3333 7.00806C29.1969 7.14285 29.0119 7.21858 28.819 7.21858L2.93827 7.21858L7.51572 11.7409C7.65228 11.8759 7.729 12.059 7.729 12.2498C7.729 12.4407 7.65228 12.6237 7.51572 12.7587C7.37916 12.8937 7.19394 12.9695 7.00081 12.9695C6.80768 12.9695 6.62247 12.8937 6.4859 12.7587L0.667721 7.0087C0.599993 6.94193 0.546259 6.86262 0.509596 6.7753C0.472931 6.68798 0.45406 6.59437 0.45406 6.49983C0.45406 6.40528 0.472931 6.31167 0.509596 6.22435C0.546259 6.13703 0.599993 6.05772 0.667721 5.99095L6.4859 0.24095C6.62247 0.105988 6.80768 0.0301676 7.00081 0.0301676C7.19394 0.0301676 7.37916 0.105988 7.51572 0.24095C7.65228 0.375912 7.729 0.55896 7.729 0.749825C7.729 0.94069 7.65228 1.12374 7.51572 1.2587L2.93827 5.78108L28.819 5.78108C29.0119 5.78108 29.1969 5.8568 29.3333 5.99159C29.4696 6.12638 29.5463 6.3092 29.5463 6.49983Z" fill="white"/>
</svg>
