<svg width="30" height="13" viewBox="0 0 30 13" fill="none" xmlns="http://www.w3.org/2000/svg">
<path fill-rule="evenodd" clip-rule="evenodd" d="M0.454102 6.49993C0.454102 6.30931 0.530725 6.12649 0.667115 5.9917C0.803505 5.85691 0.98849 5.78118 1.18137 5.78118H27.0621L22.4846 1.25881C22.3481 1.12384 22.2714 0.940796 22.2714 0.749931C22.2714 0.559066 22.3481 0.376018 22.4846 0.241056C22.6212 0.106094 22.8064 0.0302734 22.9996 0.0302734C23.1927 0.0302734 23.3779 0.106094 23.5145 0.241056L29.3326 5.99106C29.4004 6.05782 29.4541 6.13714 29.4908 6.22446C29.5274 6.31178 29.5463 6.40539 29.5463 6.49993C29.5463 6.59447 29.5274 6.68808 29.4908 6.7754C29.4541 6.86272 29.4004 6.94204 29.3326 7.00881L23.5145 12.7588C23.3779 12.8938 23.1927 12.9696 22.9996 12.9696C22.8064 12.9696 22.6212 12.8938 22.4846 12.7588C22.3481 12.6238 22.2714 12.4408 22.2714 12.2499C22.2714 12.0591 22.3481 11.876 22.4846 11.7411L27.0621 7.21868H1.18137C0.98849 7.21868 0.803505 7.14296 0.667115 7.00816C0.530725 6.87337 0.454102 6.69056 0.454102 6.49993Z" fill="white"/>
</svg>
