<svg width="32" height="23" viewBox="0 0 32 23" fill="none" xmlns="http://www.w3.org/2000/svg">
<path fill-rule="evenodd" clip-rule="evenodd" d="M1.4541 11.5001C1.4541 11.6907 1.53072 11.8735 1.66711 12.0083C1.8035 12.1431 1.98849 12.2188 2.18137 12.2188L28.0621 12.2188L23.4846 16.7412C23.3481 16.8762 23.2714 17.0592 23.2714 17.2501C23.2714 17.4409 23.3481 17.624 23.4846 17.7589C23.6212 17.8939 23.8064 17.9697 23.9996 17.9697C24.1927 17.9697 24.3779 17.8939 24.5145 17.7589L30.3326 12.0089C30.4004 11.9422 30.4541 11.8629 30.4908 11.7755C30.5274 11.6882 30.5463 11.5946 30.5463 11.5001C30.5463 11.4055 30.5274 11.3119 30.4908 11.2246C30.4541 11.1373 30.4004 11.058 30.3326 10.9912L24.5145 5.24119C24.3779 5.10623 24.1927 5.03041 23.9996 5.03041C23.8064 5.03041 23.6212 5.10623 23.4846 5.24119C23.3481 5.37616 23.2714 5.5592 23.2714 5.75007C23.2714 5.94093 23.3481 6.12398 23.4846 6.25894L28.0621 10.7813L2.18137 10.7813C1.98849 10.7813 1.8035 10.857 1.66711 10.9918C1.53072 11.1266 1.4541 11.3094 1.4541 11.5001Z" fill="#808080"/>
</svg>
