<svg width="32" height="23" viewBox="0 0 32 23" fill="none" xmlns="http://www.w3.org/2000/svg">
<path fill-rule="evenodd" clip-rule="evenodd" d="M30.5459 11.4999C30.5459 11.3093 30.4693 11.1265 30.3329 10.9917C30.1965 10.8569 30.0115 10.7812 29.8186 10.7812H3.9379L8.51535 6.25881C8.65192 6.12384 8.72864 5.9408 8.72864 5.74993C8.72864 5.55907 8.65192 5.37602 8.51535 5.24106C8.37879 5.10609 8.19357 5.03027 8.00044 5.03027C7.80732 5.03027 7.6221 5.10609 7.48554 5.24106L1.66735 10.9911C1.59963 11.0578 1.54589 11.1371 1.50923 11.2245C1.47256 11.3118 1.45369 11.4054 1.45369 11.4999C1.45369 11.5945 1.47256 11.6881 1.50923 11.7754C1.54589 11.8627 1.59963 11.942 1.66735 12.0088L7.48554 17.7588C7.6221 17.8938 7.80732 17.9696 8.00044 17.9696C8.19357 17.9696 8.37879 17.8938 8.51535 17.7588C8.65192 17.6238 8.72864 17.4408 8.72864 17.2499C8.72864 17.0591 8.65192 16.876 8.51535 16.7411L3.9379 12.2187H29.8186C30.0115 12.2187 30.1965 12.143 30.3329 12.0082C30.4693 11.8734 30.5459 11.6906 30.5459 11.4999Z" fill="#FE6A00"/>
</svg>
