<svg width="383" height="1910" viewBox="0 0 383 1910" fill="none" xmlns="http://www.w3.org/2000/svg">
<g filter="url(#filter0_f_238_2251)">
<path d="M618.464 1878.24C643.349 1875.2 668.24 1873.23 691.409 1871.55C713.027 1870.37 735.696 1868.11 762.727 1864.43L765.355 1864.07L765.516 1852.31L761.961 1852.79C735.548 1856.37 712.239 1858.66 690.665 1859.86C671.269 1861.29 647.66 1863.01 624.058 1865.72L708.073 1681.65C702.722 1737.57 721.589 1794.04 760.385 1835.86L765.642 1841.52L765.892 1823.3L765.11 1822.43C724.397 1775.68 711.435 1721 724.458 1650.52C737.024 1650.45 750.501 1649.76 765.509 1648.38L768.269 1648.11L768.429 1636.41L765.008 1636.72C751.544 1637.99 739.235 1638.65 727.55 1638.8L769.391 1546.84L770.064 1517.03L716.501 1634.38C694.695 1609 675.701 1581.13 660.123 1551.67C657.596 1546.25 655.336 1540.7 653.429 1535.07C691.753 1529.31 730.327 1519.7 768.157 1506.54L770.195 1505.85L770.365 1493.38L766.201 1494.84C728.081 1508.26 689.087 1517.95 650.257 1523.68C639.964 1481.73 634.096 1438.6 632.748 1395.36L632.548 1392.25C646.763 1392.45 658.067 1392.76 666.828 1393.67C693.736 1394.17 720.348 1390.51 746.024 1382.73C748.405 1408.44 754.761 1433.7 764.923 1457.82L770.666 1471.45L771.072 1441.79L770.888 1440.73C763.736 1420.56 759.213 1399.92 757.489 1379.34C759.547 1378.71 761.607 1378.04 763.644 1377.36C765.703 1376.69 767.763 1375.99 769.844 1375.36L771.991 1374.71L772.161 1362.24L768.11 1363.51C765.808 1364.22 763.549 1364.96 761.29 1365.72C759.652 1366.27 758.013 1366.8 756.375 1367.35C753.028 1333.29 751.341 1298.73 751.367 1264.61L773.612 1256.29L773.785 1243.65L767.67 1245.95L773.843 1239.46L774.079 1222.18L759.72 1237.33L774.405 1190.35L775.168 1142.67L689.83 1144.93L774.131 1100.91L775.751 1100.07L775.934 1086.73L682.82 1135.36L735.083 1064.58L776.063 1077.32L776.23 1065.1L742.471 1054.64L777.014 1007.86L777.228 992.257L728.059 956.165L778.198 921.455L778.41 905.937L745.377 858.546L779.19 848.984L779.357 836.806L738.33 848.38L688.199 776.307L779.51 827.201L779.693 813.836L694.487 766.28L780.279 771.039L780.898 725.846L766.752 675.569L781.364 691.819L781.602 674.476L775.262 667.42L781.663 670.014L781.835 657.462L759.497 648.406C760.405 614.32 763.014 579.904 767.247 546.039C769.024 546.635 770.779 547.297 772.534 547.936C774.771 548.736 777.008 549.536 779.268 550.315L783.283 551.689L783.454 539.248L781.325 538.537C779.241 537.827 777.157 537.073 775.073 536.341C772.989 535.587 770.928 534.833 768.843 534.145C771.155 513.379 776.288 492.651 784.17 472.466L784.795 441.322L778.707 454.496C767.576 478.571 760.349 504.063 757.19 530.336C731.89 521.921 705.541 517.581 678.586 517.365C669.803 518.081 658.254 517.988 644.942 517.806L645.143 514.423C647.627 471.432 654.606 428.59 665.932 387.039C704.525 393.856 743.195 404.608 780.956 419.02L785.079 420.594L785.25 408.108L783.232 407.355C745.908 393.213 707.721 382.577 669.725 375.703C671.853 369.994 674.266 364.421 676.939 359.181C693.272 330.23 712.888 303.083 735.269 278.37L785.425 396.876L785.815 368.433L746.216 274.189C757.914 274.657 770.2 275.661 783.646 277.296L787.058 277.695L787.219 265.891L784.469 265.545C769.746 263.783 756.49 262.744 744.085 262.332C733.061 191.718 747.294 137.456 788.828 92.0314L789.612 91.1627L789.863 72.8524L784.452 78.4285C744.498 119.521 724.4 175.463 728.388 231.953L648.721 43.8557C670.038 46.9837 691.257 49.187 711.86 51.3379L718.178 51.9301L718.201 51.8865C738.831 53.664 761.188 56.5204 786.481 60.6702L790.022 61.2464L790.18 49.6843L787.563 49.2527C761.346 44.9364 738.307 42.0046 717.236 40.243C691.416 37.603 668.04 35.1283 644.13 31.4371L643.562 31.0776C641.683 29.8647 639.324 29.8543 637.457 30.972C635.202 31.4468 633.37 33.2245 632.92 35.5488L632.867 36.2076C618.62 56.0191 603.568 75.072 588.182 94.4062C567.494 119.362 547.977 145.785 530.146 173C497.947 177.44 465.634 183.725 434.135 191.714C411.224 197.138 384.512 203.28 358.129 207.888L357.224 208.007C356.449 208.238 355.738 208.624 355.358 209.015C354.557 209.597 353.907 210.38 353.498 211.276L353.242 212.218C345.885 237.642 337.239 262.147 328.892 285.777C317.68 315.743 307.999 346.632 300.102 377.655C271.534 392.147 243.471 408.34 216.693 425.737C196.261 438.473 175.14 451.638 153.173 463.803L152.908 463.822C150.239 463.961 148.052 465.91 147.489 468.43C146.792 469.366 146.427 471.911 147.286 473.55L147.389 474.123L147.476 474.19C148.599 499.994 148.444 525.847 148.143 547.806C147.216 580.068 148.093 612.596 150.717 644.73C128.204 667.792 106.706 692.385 86.8503 717.77C71.8277 736.296 54.8096 757.279 36.5036 777.342C35.0047 778.949 34.5538 781.295 35.3836 783.483C45.1031 807.734 53.3623 832.382 61.3459 856.236L61.5787 856.942C71.2115 887.524 82.6108 917.888 95.5226 947.261C81.8337 976.248 69.5852 1006.29 59.1411 1036.55C50.987 1058.95 41.7342 1084.33 30.9225 1109.24C30.582 1109.96 30.4171 1110.73 30.4056 1111.57L30.4725 1113.13L30.6904 1113.31C30.8976 1114.28 31.326 1115.18 31.9766 1115.96C49.6611 1136.45 66.1417 1157.94 80.6514 1176.87C99.8036 1202.85 120.533 1227.98 142.296 1251.61C138.773 1283.57 137.026 1316.13 137.028 1348.18C136.618 1370.07 136.135 1397.28 134.21 1423.62C133.936 1424.3 133.794 1425.02 133.784 1425.74L133.961 1427.31L134.243 1427.62C134.697 1429.85 136.458 1431.65 138.699 1432.17C161.267 1445.36 183.156 1459.86 202.445 1472.61C228.954 1490.96 256.76 1507.98 285.096 1523.28C292.183 1554.66 301.078 1586 311.552 1616.37C319.25 1640.13 326.69 1663.41 333.044 1687.2L332.931 1687.37L332.98 1688.67C333.042 1690.52 334.011 1692.22 335.518 1693.23C336.862 1694.9 339.1 1695.68 341.178 1695.22L341.4 1695.14C365.161 1700.01 388.203 1705.96 413.616 1712.61C444.687 1721.39 476.661 1728.56 508.683 1733.88C525.675 1761.48 544.353 1788.32 564.174 1813.72C578.204 1832.29 593.053 1852.15 607.053 1872.9L607.085 1873.8C607.471 1876.16 609.232 1877.96 611.495 1878.5C613.351 1879.82 615.95 1879.97 618.018 1878.65L618.464 1878.24ZM299.017 1530.48C357.553 1560.21 425.765 1559.43 483.117 1529.15L342.659 1677.17C336.779 1655.87 330.206 1635.25 322.888 1612.72C313.688 1585.89 305.669 1558.23 299.017 1530.48ZM148.841 1345.15L148.797 1345.15C148.993 1317.92 150.344 1290.1 152.967 1262.77C198.57 1309.76 263.238 1331.16 327.255 1321.15L146.62 1415.52C148.092 1391.73 148.53 1367.86 148.886 1348.26L148.841 1345.15ZM72.3713 1034.62C81.2194 1009.83 91.2108 985.258 102.14 961.4C130.11 1021.17 184.696 1062.52 249.019 1073.65L45.7765 1104.63C55.0292 1082.49 63.113 1060.39 70.3267 1040.66L72.4598 1034.6L72.3713 1034.62ZM160.195 548.235L160.196 548.169C160.427 524.824 160.566 503.412 159.848 481.769L337.22 580.603C273.719 569.005 208.71 588.583 161.995 634.068C160.026 605.592 159.405 576.893 160.195 548.235ZM340.076 289.975L340.099 289.931C347.14 269.933 355.029 247.529 361.932 224.736L498.739 377.121C442.042 345.125 373.655 342.584 314.191 370.966C321.53 343.651 330.235 316.443 340.076 289.975ZM545.733 171.235C561.776 147.425 579.178 124.117 597.559 101.79C612.115 83.5215 625.373 66.7304 638.223 49.0983L718.08 237.836C675.126 188.924 611.388 164 545.733 171.235ZM533.314 392.412C483.533 298.008 507.156 234.09 537.469 183.983C595.721 178.075 663.663 184.106 727.944 269.212C704.402 294.964 683.777 323.395 666.608 353.829C663.3 360.379 660.385 367.199 657.93 374.178C650.49 373.439 643.021 373.161 635.612 373.345C600.949 375.816 566.54 382.227 533.314 392.412ZM679.638 529.054L679.726 529.055C705.666 529.41 731.22 533.828 755.771 542.232C751.725 573.66 749.151 605.503 748.079 637.081L651.591 529.637C661.311 529.748 671.474 529.668 679.638 529.054ZM648.099 897.359L762.726 918.056L718.217 948.885L648.099 897.359ZM733.603 861.968L764.582 906.473L649.493 885.704L733.603 861.968ZM718.043 963.261L761.886 995.476L646.05 1013.15L718.043 963.261ZM739.71 1275.59C739.937 1307.3 741.681 1339.29 744.865 1370.82C719.805 1378.63 693.831 1382.39 667.869 1382.03C659.857 1381.2 649.744 1380.84 640.004 1380.64L739.71 1275.59ZM638.404 1524.84C632.513 1525.18 626.54 1525.18 620.702 1524.88C587.463 1521.57 554.648 1514.57 523.05 1504.09L621.238 1400.45C622.826 1442.25 628.602 1484.08 638.404 1524.84ZM499.638 523.929C499.79 517.709 500.294 511.472 501.125 505.481C507.1 473.223 516.681 441.586 529.615 411.379L624.734 517.375C583.055 515.485 541.01 517.702 499.638 523.929ZM644.123 641.968C638.453 616.607 636.848 590.576 639.313 565.085C640.712 557.849 641.829 548.741 642.973 537.654L739.179 644.764C707.58 642.353 675.675 641.41 644.123 641.968ZM509.195 663.094L383.189 592.819C410.261 573.271 439.562 556.743 470.294 543.643C476.098 541.524 482.052 539.693 488.046 538.236C490.951 580.422 498.069 622.423 509.195 663.094ZM364.888 747.74C369.502 743.978 374.334 740.438 379.294 737.23C395.627 775.95 415.86 813.119 439.435 847.761L298.663 822.353C317.905 795.09 340.204 769.981 364.888 747.74ZM385.48 720.079C383.706 714.426 382.22 708.668 381.108 702.958C376.137 669.934 374.855 636.389 377.341 602.984L502.559 672.809C462.169 684.611 422.825 700.496 385.48 720.079ZM487.741 835.78C508.812 819.844 532.105 807.455 557.02 798.937C573.07 826.11 590.603 852.843 609.165 878.468L466.854 852.753C476.366 845.452 482.809 840.198 487.741 835.78ZM436.004 1045.14L293.705 1066.85C302.979 1035.16 315.765 1004.45 331.701 975.624C335.081 970.218 338.812 964.949 342.805 959.947C370.988 991.266 402.315 1019.92 436.004 1045.14ZM476.424 1018.35C490.96 996.691 508.767 977.61 529.354 961.6C553.345 982.001 578.516 1001.47 604.323 1019.52L462.158 1041.15C468.751 1031.32 473.281 1024.08 476.424 1018.35ZM448.838 1039.97L445.499 1037.51C410.998 1012.02 379.059 982.913 350.489 950.95C379.902 919.804 412.603 891.583 447.701 867.067L450.53 864.929C457.651 876.129 463.819 886.041 467.877 893.967C482.093 916.587 499.673 936.702 520.137 953.823C499.212 970.377 481.109 990.048 466.187 1012.51C461.915 1020.23 455.431 1030.15 448.838 1039.97ZM343.011 941.614C339.202 936.527 335.682 931.181 332.538 925.773C317.374 896.633 305.453 865.756 297.049 833.961L438.238 859.462C403.917 883.66 371.907 911.275 343.011 941.614ZM484.532 1070.08C478.875 1064.66 471.531 1058.49 464.38 1052.7L606.701 1031.01C587.49 1055.99 569.3 1082.08 552.513 1108.69C527.863 1099.47 504.919 1086.43 484.532 1070.08ZM373.954 1165.76C368.844 1162.3 363.914 1158.52 359.295 1154.52C335.185 1131.66 313.646 1106.1 295.221 1078.48L437.343 1056.83C412.739 1090.93 391.429 1127.52 373.954 1165.76ZM374.595 1201.08C375.956 1195.03 377.67 1189.03 379.712 1183.19C416.376 1203.61 455.183 1220.52 495.169 1233.42L368.196 1299.77C366.708 1266.75 368.838 1233.54 374.595 1201.08ZM652.02 1164.75C641.935 1194.56 633.161 1225.15 625.908 1255.83C599.929 1255.1 574.337 1250.25 550.055 1241.54C543.155 1238.34 534.449 1235.03 524.47 1231.38L652.02 1164.75ZM502.469 1223.45C461.471 1210.47 421.677 1193.19 384.14 1172.1C401.781 1132.94 423.543 1095.54 448.839 1060.84L451.291 1057.22C460.144 1064.29 469.648 1072.07 476.501 1078.65C497.496 1095.63 520.898 1109.12 546.071 1118.76C531.499 1141.43 520.624 1166.12 513.739 1192.47C512.366 1200.94 509.503 1212.03 506.135 1224.6L502.469 1223.45ZM478.291 888.394C474.598 881.22 469.425 872.685 464.053 864.147L606.672 889.888C580.201 907.378 554.306 926.304 529.565 946.236C509.401 929.712 492.123 910.173 478.291 888.394ZM453.784 847.825L451.752 844.895C427.154 809.316 406.23 771.061 389.562 731.105C427.863 710.876 468.359 694.59 509.962 682.738L513.769 681.559C516.938 694.859 519.282 705.554 520.552 714.278C526.651 740.524 536.801 765.484 550.748 788.54C525.298 797.491 501.513 810.356 479.86 826.922C473.633 832.597 465.188 839.187 453.784 847.825ZM531.948 675.652C541.492 672.485 550.817 669.205 557.913 666.136C582.712 658.011 608.427 653.9 634.438 653.883C640.804 684.771 648.734 715.769 658.017 746.126L531.948 675.652ZM730.777 1267.93L631.227 1372.87C630.501 1363.07 629.604 1352.9 628.345 1345.04C626.539 1319.22 628.878 1293.29 635.263 1268.07C667.007 1269.52 699.103 1269.45 730.777 1267.93ZM476.425 1367.54C470.518 1365.89 464.681 1363.92 459.113 1361.69C428.73 1347.78 399.914 1330.5 373.408 1310.28L500.936 1243.68C488.723 1284.01 480.482 1325.62 476.425 1367.54ZM612.842 1392.2L514.633 1495.79C502.445 1465.07 493.692 1432.98 488.582 1400.51C487.872 1394.43 487.538 1388.25 487.534 1382.07C528.741 1389.49 570.863 1392.93 612.842 1392.2ZM615.516 1327.36C615.254 1333.58 615.757 1340.31 616.706 1346.68C618.147 1355.71 619.147 1368.02 619.993 1380.32L616.883 1380.41C573.863 1381.49 530.529 1378.08 488.048 1370.29C492.006 1327.52 500.436 1285 513.168 1243.78L514.166 1240.1C527.108 1244.74 537.415 1248.62 545.366 1252.31C570.48 1261.47 596.686 1266.58 623.322 1267.56C618.954 1287.15 616.321 1307.23 615.516 1327.36ZM519.412 1220.82C521.855 1211.43 524.12 1202.16 525.413 1194.7C532.197 1169.29 542.931 1145.25 557.385 1123.2C586.808 1134.8 617.02 1145.12 647.384 1153.94L519.412 1220.82ZM660.814 1145.5C628.118 1136.31 595.489 1125.39 563.762 1113.02C581.966 1084.32 601.815 1056.23 622.657 1029.63L723.184 1061.06L660.814 1145.5ZM646.705 1024.88L763.049 1007.12L730.684 1050.98L646.705 1024.88ZM620.567 1016.47C592.484 997.136 565.019 976.159 538.848 954.08C565.66 932.571 593.89 912.182 622.804 893.385L707.958 956L620.567 1016.47ZM568.25 794.979C600.214 783.567 633.13 773.553 666.176 765.233L726.49 851.867L625.206 880.49C604.885 852.994 585.726 824.239 568.25 794.979ZM532.194 712.414C531.086 704.748 529.076 695.399 527.017 686.445L652.519 756.472C622.013 764.408 591.619 773.82 562.023 784.517C548.244 762.079 538.195 737.758 532.194 712.414ZM521.346 662.689C509.788 621.375 502.525 578.734 499.717 535.912C542.196 529.282 585.541 527.084 628.671 529.323L631.866 529.367C630.708 541.531 629.395 553.715 627.66 562.881C626.537 569.219 626.119 575.633 625.917 582.314C626.194 602.346 628.233 622.469 632.041 642.198C605.41 642.405 579.052 646.815 553.675 655.261L553.431 655.368C545.67 658.713 535.371 662.288 522.396 666.507L521.346 662.689ZM538.125 403.207C570.022 393.553 602.994 387.453 636.069 385.026C642.111 384.91 648.258 385.126 654.356 385.694C643.441 426.217 636.521 467.96 633.788 509.761L538.125 403.207ZM509.595 371.509L371.18 217.476C394.429 213.111 416.918 207.879 437.064 203.164L438.281 202.829L438.282 202.785C465.908 195.887 494.134 190.227 522.254 185.973C487.827 241.982 483.386 311.944 509.595 371.509ZM519.815 404.319C506.021 436.119 495.82 469.529 489.488 503.739C488.417 511.178 487.806 518.776 487.702 526.316C487.702 526.316 487.702 526.338 487.702 526.36C480.405 528.018 473.167 530.184 466.011 532.812C433.418 546.656 402.428 564.194 373.884 584.997C296.127 511.776 297.835 443.381 310.372 385.82C364.058 360.898 430.813 344.158 519.815 404.319ZM292.377 437.942C292.277 487.034 310.5 534.244 342.958 570.458L164.757 471.041C183.996 460.07 202.715 448.498 223.169 435.741L225.794 434.04L225.772 433.996C248.832 419.296 272.85 405.444 297.293 392.764C294.401 407.608 292.739 422.755 292.377 437.942ZM365.905 599.419C363.087 634.601 364.32 670.08 369.595 705.065C371.018 712.186 372.883 719.269 375.17 726.115C368.966 730.032 363 734.303 357.36 738.909C331.449 762.21 308.21 788.384 288.202 816.823C190.67 772.704 170.027 707.543 163.154 649.232C205.568 608.744 262.925 571.715 365.905 599.419ZM256.62 814.807L52.0136 777.95C66.4315 761.725 80.0177 745.07 93.2223 728.916L96.2264 725.242C113.816 702.794 132.72 680.913 152.446 660.122C159.574 725.537 199.183 783.659 256.62 814.807ZM251.091 825.79C186.991 835.355 131.692 875.095 102.323 933.569C91.2847 907.432 81.3812 880.518 72.8674 853.535L72.8459 853.491C66.0091 832.819 58.6589 810.997 50.379 789.47L251.091 825.79ZM322.385 931.504C326.24 938.131 330.583 944.566 335.282 950.698C330.395 956.699 325.877 963.035 321.753 969.64C304.804 1000.06 291.334 1032.39 281.662 1065.83C174.957 1055.77 134.138 1000.69 108.59 947.572C135.627 895.177 178.005 841.234 285.032 834.192C293.742 867.839 306.277 900.526 322.385 931.504ZM251.595 1085.14C193.237 1114.83 153.303 1170.63 144.424 1236.25C125.426 1215.1 107.216 1192.8 90.2256 1169.88L86.6084 1165.21C74.1321 1149.1 61.3102 1132.48 47.6674 1116.24L251.595 1085.14ZM284.311 1083.25C303.532 1112.27 326.067 1139.14 351.417 1163.23C357.125 1168.12 363.212 1172.71 369.526 1176.87C366.961 1183.91 364.811 1191.2 363.1 1198.66C357.008 1233.02 354.83 1268.08 356.601 1302.97C252.7 1328.02 196.117 1289.28 154.587 1247.44C163.077 1189.3 185.52 1124.64 284.311 1083.25ZM334.487 1330.68C300.207 1366.31 280.184 1413.59 278.838 1463.57C278.787 1478.56 280.014 1493.59 282.479 1508.38C257.496 1494.49 232.884 1479.23 209.234 1462.97L209.191 1462.94C189.989 1450.19 171.114 1437.75 151.722 1426.1L334.487 1330.68ZM364.679 1318.3C392.426 1339.63 422.619 1357.81 454.536 1372.4C461.397 1375.16 468.529 1377.52 475.777 1379.42C475.691 1385.71 475.956 1392.09 476.554 1398.34L476.356 1398.34L476.923 1401.95C482.337 1436.39 491.661 1470.22 504.665 1502.54C414.473 1559.85 348.397 1541.53 295.564 1515.44C284.715 1457.73 284.879 1389.43 364.679 1318.3ZM641.686 1536.25C643.927 1543.21 646.633 1550.06 649.76 1556.74C666.11 1587.77 686.011 1616.97 708.947 1643.54C642.274 1726.74 574.129 1730.69 516.018 1723.03C487.068 1672.07 465.115 1607.53 517.441 1514.43C550.53 1525.55 584.926 1532.97 619.839 1536.43C627.086 1536.82 634.427 1536.77 641.686 1536.25ZM351.19 1685.25L492.677 1536.08C464.91 1595.12 467.676 1663.54 500.906 1720.69C472.584 1715.6 444.348 1709.1 416.834 1701.38L416.79 1701.36C394.782 1695.58 373.168 1689.99 351.19 1685.25ZM524.081 1736.24C589.578 1745.41 654.062 1722.26 698.471 1674.5L613.32 1861.13C600.094 1841.83 586.174 1823.3 573.705 1806.68C556.072 1784.04 539.379 1760.35 524.081 1736.24ZM741.704 1255.57C707.158 1257.52 672.26 1257.76 637.914 1256.33C645.956 1222.86 655.737 1189.49 666.957 1157.28L772.14 1154.55L773.287 1154.52L741.704 1255.57ZM672.663 753.494C662.355 720.727 653.578 687.167 646.564 653.719C680.935 653.244 715.658 654.489 749.477 657.349L778.391 759.251L672.663 753.494Z" fill="#1F2020" fill-opacity="0.3"/>
</g>
<defs>
<filter id="filter0_f_238_2251" x="0.405762" y="0.150269" width="819.774" height="1909.42" filterUnits="userSpaceOnUse" color-interpolation-filters="sRGB">
<feFlood flood-opacity="0" result="BackgroundImageFix"/>
<feBlend mode="normal" in="SourceGraphic" in2="BackgroundImageFix" result="shape"/>
<feGaussianBlur stdDeviation="15" result="effect1_foregroundBlur_238_2251"/>
</filter>
</defs>
</svg>
