<svg width="482" height="1910" viewBox="0 0 482 1910" fill="none" xmlns="http://www.w3.org/2000/svg">
<g filter="url(#filter0_f_238_2456)">
<path d="M-137.023 1878.24C-161.907 1875.2 -186.799 1873.23 -209.967 1871.55C-231.585 1870.37 -254.255 1868.11 -281.286 1864.43L-283.914 1864.07L-284.075 1852.31L-280.519 1852.79C-254.107 1856.37 -230.798 1858.66 -209.223 1859.86C-189.828 1861.29 -166.218 1863.01 -142.617 1865.72L-226.631 1681.65C-221.28 1737.57 -240.147 1794.04 -278.944 1835.86L-284.201 1841.52L-284.45 1823.3L-283.668 1822.43C-242.956 1775.68 -229.994 1721 -243.017 1650.52C-255.582 1650.45 -269.06 1649.76 -284.068 1648.38L-286.827 1648.11L-286.987 1636.41L-283.566 1636.72C-270.103 1637.99 -257.794 1638.65 -246.109 1638.8L-287.949 1546.84L-288.622 1517.03L-235.06 1634.38C-213.254 1609 -194.26 1581.13 -178.682 1551.67C-176.155 1546.25 -173.894 1540.7 -171.988 1535.07C-210.311 1529.31 -248.886 1519.7 -286.716 1506.54L-288.753 1505.85L-288.924 1493.38L-284.76 1494.84C-246.64 1508.26 -207.645 1517.95 -168.815 1523.68C-158.522 1481.73 -152.654 1438.6 -151.307 1395.36L-151.107 1392.25C-165.322 1392.45 -176.626 1392.76 -185.387 1393.67C-212.294 1394.17 -238.906 1390.51 -264.583 1382.73C-266.964 1408.44 -273.319 1433.7 -283.481 1457.82L-289.224 1471.44L-289.63 1441.79L-289.447 1440.73C-282.294 1420.56 -277.772 1399.92 -276.047 1379.34C-278.106 1378.71 -280.165 1378.04 -282.203 1377.36C-284.262 1376.69 -286.321 1375.99 -288.402 1375.36L-290.549 1374.71L-290.72 1362.24L-286.669 1363.51C-284.366 1364.22 -282.108 1364.96 -279.849 1365.72C-278.21 1366.27 -276.572 1366.8 -274.933 1367.35C-271.586 1333.29 -269.899 1298.73 -269.926 1264.61L-292.171 1256.29L-292.344 1243.65L-286.229 1245.95L-292.401 1239.46L-292.638 1222.18L-278.279 1237.33L-292.964 1190.35L-293.727 1142.67L-208.389 1144.93L-292.69 1100.91L-294.31 1100.07L-294.493 1086.73L-201.378 1135.36L-253.642 1064.58L-294.622 1077.32L-294.789 1065.1L-261.03 1054.64L-295.573 1007.86L-295.787 992.256L-246.618 956.165L-296.756 921.455L-296.969 905.936L-263.936 858.545L-297.749 848.983L-297.915 836.806L-256.889 848.38L-206.758 776.307L-298.069 827.2L-298.252 813.836L-213.045 766.28L-298.838 771.039L-299.457 725.845L-285.31 675.569L-299.923 691.819L-300.16 674.475L-293.82 667.419L-300.222 670.013L-300.393 657.462L-278.055 648.406C-278.963 614.319 -281.573 579.904 -285.806 546.039C-287.583 546.635 -289.337 547.296 -291.092 547.936C-293.33 548.736 -295.567 549.536 -297.827 550.315L-301.842 551.689L-302.012 539.248L-299.884 538.537C-297.8 537.827 -295.716 537.073 -293.632 536.341C-291.548 535.587 -289.486 534.833 -287.401 534.145C-289.714 513.378 -294.847 492.651 -302.728 472.466L-303.353 441.322L-297.265 454.495C-286.135 478.571 -278.908 504.062 -275.749 530.336C-250.448 521.921 -224.1 517.58 -197.144 517.365C-188.361 518.08 -176.812 517.988 -163.501 517.806L-163.701 514.423C-166.186 471.432 -173.165 428.59 -184.491 387.039C-223.083 393.855 -261.754 404.608 -299.515 419.02L-303.637 420.593L-303.808 408.108L-301.791 407.355C-264.467 393.213 -226.28 382.577 -188.283 375.703C-190.411 369.994 -192.824 364.42 -195.497 359.181C-211.831 330.23 -231.446 303.083 -253.828 278.37L-303.984 396.876L-304.374 368.432L-264.774 274.189C-276.473 274.657 -288.759 275.661 -302.205 277.296L-305.616 277.694L-305.778 265.89L-303.027 265.545C-288.304 263.782 -275.049 262.743 -262.644 262.332C-251.62 191.718 -265.853 137.455 -307.387 92.0311L-308.171 91.1624L-308.421 72.8522L-303.011 78.4283C-263.057 119.521 -242.959 175.462 -246.947 231.953L-167.28 43.8555C-188.597 46.9835 -209.816 49.1868 -230.419 51.3377L-236.737 51.9299L-236.76 51.8862C-257.39 53.6637 -279.746 56.5202 -305.039 60.67L-308.58 61.2461L-308.739 49.684L-306.121 49.2525C-279.905 44.9361 -256.866 42.0044 -235.795 40.2428C-209.975 37.6027 -186.599 35.1281 -162.689 31.4369L-162.12 31.0773C-160.241 29.8644 -157.883 29.8541 -156.016 30.9718C-153.761 31.4465 -151.929 33.2243 -151.478 35.5485L-151.425 36.2073C-137.179 56.0188 -122.127 75.0718 -106.741 94.406C-86.053 119.362 -66.5357 145.785 -48.7049 173C-16.5053 177.44 15.8078 183.725 47.3065 191.714C70.2175 197.138 96.9296 203.28 123.312 207.887L124.218 208.007C124.992 208.238 125.703 208.624 126.083 209.015C126.884 209.597 127.535 210.38 127.944 211.276L128.199 212.217C135.557 237.642 144.203 262.147 152.55 285.776C163.761 315.743 173.442 346.631 181.34 377.654C209.908 392.147 237.97 408.34 264.748 425.737C285.18 438.472 306.301 451.638 328.269 463.803L328.533 463.821C331.202 463.961 333.389 465.909 333.953 468.43C334.649 469.366 335.014 471.911 334.155 473.55L334.053 474.123L333.965 474.19C332.842 499.994 332.998 525.847 333.298 547.806C334.225 580.067 333.348 612.596 330.724 644.73C353.237 667.792 374.735 692.385 394.591 717.77C409.614 736.296 426.632 757.278 444.938 777.342C446.437 778.948 446.888 781.295 446.058 783.482C436.338 807.733 428.079 832.382 420.096 856.236L419.863 856.942C410.23 887.524 398.831 917.888 385.919 947.261C399.608 976.248 411.856 1006.29 422.3 1036.55C430.454 1058.95 439.707 1084.33 450.519 1109.24C450.859 1109.96 451.024 1110.73 451.036 1111.57L450.969 1113.13L450.751 1113.31C450.544 1114.28 450.115 1115.18 449.465 1115.96C431.78 1136.45 415.3 1157.94 400.79 1176.87C381.638 1202.85 360.909 1227.98 339.145 1251.61C342.669 1283.57 344.415 1316.13 344.413 1348.18C344.823 1370.07 345.306 1397.28 347.232 1423.62C347.506 1424.3 347.648 1425.02 347.658 1425.74L347.481 1427.31L347.198 1427.62C346.744 1429.85 344.983 1431.65 342.742 1432.17C320.174 1445.36 298.285 1459.86 278.996 1472.61C252.487 1490.96 224.681 1507.98 196.345 1523.28C189.258 1554.66 180.363 1586 169.89 1616.37C162.191 1640.13 154.751 1663.41 148.398 1687.2L148.51 1687.37L148.462 1688.67C148.399 1690.51 147.43 1692.22 145.923 1693.23C144.579 1694.9 142.342 1695.68 140.264 1695.22L140.042 1695.14C116.28 1700.01 93.2383 1705.96 67.8256 1712.61C36.7549 1721.39 4.7803 1728.56 -27.2416 1733.88C-44.2335 1761.48 -62.9112 1788.32 -82.7328 1813.72C-96.7624 1832.29 -111.612 1852.15 -125.612 1872.9L-125.644 1873.8C-126.03 1876.16 -127.791 1877.96 -130.054 1878.5C-131.909 1879.82 -134.509 1879.97 -136.577 1878.65L-137.023 1878.24ZM182.424 1530.48C123.888 1560.21 55.6762 1559.43 -1.6757 1529.15L138.782 1677.17C144.662 1655.87 151.235 1635.25 158.554 1612.72C167.753 1585.89 175.773 1558.23 182.424 1530.48ZM332.601 1345.15L332.645 1345.15C332.448 1317.92 331.097 1290.1 328.475 1262.77C282.872 1309.76 218.204 1331.16 154.186 1321.15L334.821 1415.52C333.349 1391.73 332.912 1367.86 332.555 1348.26L332.601 1345.15ZM409.07 1034.62C400.222 1009.83 390.231 985.258 379.301 961.4C351.331 1021.17 296.746 1062.52 232.422 1073.65L435.665 1104.63C426.412 1082.49 418.328 1060.39 411.115 1040.66L408.982 1034.6L409.07 1034.62ZM321.247 548.235L321.246 548.169C321.014 524.824 320.875 503.412 321.593 481.768L144.221 580.603C207.723 569.004 272.731 588.582 319.446 634.068C321.415 605.592 322.036 576.893 321.247 548.235ZM141.365 289.975L141.343 289.931C134.302 269.933 126.412 247.528 119.509 224.736L-17.2977 377.121C39.3998 345.125 107.787 342.584 167.251 370.966C159.911 343.651 151.206 316.442 141.365 289.975ZM-64.2915 171.235C-80.3343 147.425 -97.7369 124.117 -116.118 101.79C-130.674 83.5212 -143.931 66.7302 -156.782 49.0981L-236.638 237.836C-193.685 188.924 -129.947 163.999 -64.2915 171.235ZM-51.8722 392.412C-2.09121 298.007 -25.715 234.09 -56.0271 183.983C-114.28 178.075 -182.222 184.106 -246.503 269.212C-222.961 294.964 -202.336 323.394 -185.166 353.829C-181.858 360.379 -178.943 367.198 -176.489 374.178C-169.049 373.439 -161.58 373.16 -154.171 373.345C-119.507 375.816 -85.0984 382.226 -51.8722 392.412ZM-198.197 529.054L-198.285 529.055C-224.225 529.41 -249.778 533.827 -274.329 542.232C-270.284 573.66 -267.71 605.503 -266.638 637.081L-170.15 529.637C-179.869 529.748 -190.032 529.667 -198.197 529.054ZM-166.657 897.358L-281.284 918.055L-236.776 948.885L-166.657 897.358ZM-252.162 861.968L-283.14 906.473L-168.051 885.703L-252.162 861.968ZM-236.601 963.261L-280.445 995.476L-164.609 1013.15L-236.601 963.261ZM-258.269 1275.59C-258.496 1307.3 -260.24 1339.29 -263.423 1370.82C-238.363 1378.63 -212.389 1382.39 -186.428 1382.03C-178.415 1381.2 -168.303 1380.84 -158.562 1380.64L-258.269 1275.59ZM-156.962 1524.84C-151.072 1525.18 -145.098 1525.18 -139.261 1524.88C-106.021 1521.57 -73.2068 1514.57 -41.6083 1504.09L-139.797 1400.45C-141.385 1442.25 -147.16 1484.08 -156.962 1524.84ZM-18.197 523.929C-18.3483 517.709 -18.8525 511.472 -19.684 505.481C-25.6586 473.223 -35.2396 441.585 -48.1738 411.379L-143.293 517.375C-101.613 515.485 -59.5689 517.702 -18.197 523.929ZM-162.682 641.967C-157.012 616.607 -155.406 590.576 -157.871 565.085C-159.271 557.849 -160.388 548.74 -161.531 537.653L-257.738 644.764C-226.139 642.353 -194.233 641.41 -162.682 641.967ZM-27.7535 663.094L98.2522 592.819C71.1801 573.271 41.8789 556.743 11.1478 543.643C5.34352 541.524 -0.611041 539.693 -6.60467 538.236C-9.50977 580.422 -16.6276 622.423 -27.7535 663.094ZM116.553 747.74C111.939 743.978 107.107 740.438 102.148 737.23C85.8149 775.95 65.5814 813.118 42.0068 847.76L182.779 822.352C163.536 795.09 141.238 769.981 116.553 747.74ZM95.9611 720.079C97.7353 714.426 99.2215 708.668 100.334 702.958C105.304 669.934 106.586 636.389 104.101 602.984L-21.1178 672.809C19.2724 684.611 58.6164 700.495 95.9611 720.079ZM-6.29943 835.78C-27.3704 819.844 -50.6633 807.455 -75.5784 798.936C-91.6284 826.11 -109.161 852.842 -127.723 878.468L14.5874 852.753C5.07498 845.452 -1.36741 840.198 -6.29943 835.78ZM45.4371 1045.14L187.736 1066.85C178.463 1035.16 165.676 1004.45 149.741 975.624C146.36 970.218 142.629 964.949 138.637 959.947C110.454 991.266 79.1263 1019.92 45.4371 1045.14ZM5.0179 1018.34C-9.51847 996.69 -27.326 977.609 -47.913 961.6C-71.9031 982.001 -97.0743 1001.47 -122.882 1019.52L19.2835 1041.15C12.6903 1031.32 8.1605 1024.08 5.0179 1018.34ZM32.6035 1039.97L35.9422 1037.51C70.4433 1012.02 102.382 982.912 130.953 950.95C101.54 919.804 68.8381 891.583 33.7404 867.067L30.9117 864.929C23.7909 876.129 17.6223 886.041 13.5647 893.967C-0.651914 916.587 -18.2314 936.702 -38.6954 953.823C-17.7702 970.377 0.331991 990.048 15.2542 1012.51C19.5261 1020.23 26.0103 1030.15 32.6035 1039.97ZM138.43 941.614C142.24 936.527 145.76 931.181 148.904 925.773C164.067 896.633 175.989 865.756 184.392 833.96L43.203 859.462C77.5248 883.66 109.535 911.274 138.43 941.614ZM-3.09089 1070.08C2.56611 1064.66 9.91013 1058.49 17.0609 1052.7L-125.26 1031.01C-106.049 1055.99 -87.8586 1082.08 -71.072 1108.69C-46.4219 1099.47 -23.4773 1086.43 -3.09089 1070.08ZM107.487 1165.76C112.598 1162.3 117.528 1158.52 122.146 1154.52C146.257 1131.66 167.796 1106.1 186.22 1078.48L44.0983 1056.83C68.7024 1090.93 90.0123 1127.52 107.487 1165.76ZM106.846 1201.08C105.485 1195.03 103.772 1189.03 101.73 1183.18C65.0653 1203.61 26.2585 1220.52 -13.7272 1233.42L113.246 1299.77C114.733 1266.75 112.603 1233.54 106.846 1201.08ZM-170.578 1164.75C-160.493 1194.56 -151.72 1225.15 -144.466 1255.83C-118.488 1255.1 -92.8959 1250.24 -68.6135 1241.54C-61.7136 1238.34 -53.0079 1235.03 -43.0283 1231.38L-170.578 1164.75ZM-21.0278 1223.45C19.9709 1210.47 59.7646 1193.19 97.3017 1172.1C79.66 1132.94 57.8983 1095.54 32.6026 1060.84L30.1503 1057.22C21.2976 1064.29 11.7935 1072.07 4.94005 1078.65C-16.055 1095.63 -39.4563 1109.12 -64.6297 1118.76C-50.0575 1141.42 -39.1828 1166.12 -32.2971 1192.47C-30.9247 1200.94 -28.0616 1212.03 -24.6932 1224.6L-21.0278 1223.45ZM3.1502 888.394C6.84336 881.22 12.0168 872.685 17.3886 864.147L-125.23 889.888C-98.7595 907.377 -72.8642 926.304 -48.1234 946.235C-27.9599 929.712 -10.6812 910.172 3.1502 888.394ZM27.6576 847.825L29.6895 844.895C54.2873 809.316 75.2113 771.061 91.8798 731.105C53.5785 710.875 13.0827 694.589 -28.5206 682.737L-32.3281 681.558C-35.4965 694.859 -37.841 705.554 -39.1102 714.277C-45.2094 740.523 -55.36 765.484 -69.3062 788.539C-43.8561 797.491 -20.0718 810.356 1.58093 826.922C7.80867 832.597 16.2532 839.187 27.6576 847.825ZM-50.5064 675.651C-60.0503 672.484 -69.3755 669.204 -76.4713 666.136C-101.271 658.011 -126.985 653.9 -152.996 653.883C-159.362 684.771 -167.292 715.769 -176.576 746.126L-50.5064 675.651ZM-249.336 1267.93L-149.785 1372.87C-149.06 1363.07 -148.163 1352.9 -146.904 1345.04C-145.097 1319.22 -147.436 1293.29 -153.821 1268.07C-185.566 1269.52 -217.661 1269.45 -249.336 1267.93ZM5.01653 1367.54C10.9237 1365.89 16.76 1363.92 22.3284 1361.69C52.7116 1347.78 81.5278 1330.5 108.033 1310.28L-19.4943 1243.68C-7.28122 1284.01 0.959736 1325.62 5.01653 1367.54ZM-131.401 1392.2L-33.1912 1495.79C-21.0033 1465.07 -12.2508 1432.98 -7.14068 1400.51C-6.43038 1394.43 -6.09615 1388.24 -6.09258 1382.07C-47.2997 1389.49 -89.4211 1392.93 -131.401 1392.2ZM-134.074 1327.36C-133.813 1333.58 -134.316 1340.31 -135.265 1346.68C-136.706 1355.71 -137.706 1368.02 -138.551 1380.32L-135.442 1380.41C-92.4212 1381.49 -49.0871 1378.08 -6.60661 1370.29C-10.565 1327.52 -18.9945 1285 -31.7268 1243.78L-32.725 1240.1C-45.6669 1244.74 -55.974 1248.62 -63.9251 1252.31C-89.0389 1261.47 -115.244 1266.58 -141.881 1267.56C-137.513 1287.15 -134.879 1307.23 -134.074 1327.36ZM-37.9707 1220.82C-40.414 1211.43 -42.6791 1202.16 -43.9715 1194.7C-50.7561 1169.29 -61.4896 1145.25 -75.9432 1123.2C-105.366 1134.8 -135.578 1145.12 -165.943 1153.94L-37.9707 1220.82ZM-179.373 1145.5C-146.676 1136.31 -114.048 1125.39 -82.3208 1113.02C-100.525 1084.32 -120.373 1056.23 -141.216 1029.63L-241.743 1061.06L-179.373 1145.5ZM-165.264 1024.88L-281.608 1007.12L-249.243 1050.98L-165.264 1024.88ZM-139.125 1016.47C-111.043 997.135 -83.5778 976.159 -57.4064 954.079C-84.2188 932.571 -112.449 912.182 -141.362 893.385L-226.517 955.999L-139.125 1016.47ZM-86.8085 794.979C-118.773 783.567 -151.688 773.552 -184.734 765.233L-245.048 851.867L-143.765 880.49C-123.443 852.994 -104.285 824.239 -86.8085 794.979ZM-50.7525 712.414C-49.6451 704.748 -47.6349 695.399 -45.5753 686.445L-171.077 756.472C-140.571 764.408 -110.177 773.819 -80.5813 784.517C-66.803 762.079 -56.7538 737.757 -50.7525 712.414ZM-39.9048 662.689C-28.3469 621.374 -21.0835 578.733 -18.2753 535.912C-60.7549 529.282 -104.1 527.084 -147.229 529.323L-150.425 529.367C-149.266 541.531 -147.953 553.715 -146.219 562.881C-145.096 569.219 -144.677 575.633 -144.476 582.314C-144.752 602.346 -146.791 622.469 -150.599 642.198C-123.968 642.404 -97.6105 646.814 -72.2335 655.261L-71.9896 655.367C-64.2287 658.713 -53.9297 662.287 -40.9547 666.507L-39.9048 662.689ZM-56.6841 403.207C-88.5804 393.552 -121.552 387.452 -154.628 385.025C-160.669 384.91 -166.816 385.126 -172.915 385.693C-161.999 426.217 -155.079 467.96 -152.347 509.76L-56.6841 403.207ZM-28.1537 371.509L110.262 217.476C87.0125 213.111 64.5231 207.879 44.3773 203.164L43.1603 202.829L43.1597 202.785C15.5335 195.886 -12.693 190.227 -40.8121 185.973C-6.38536 241.982 -1.94452 311.944 -28.1537 371.509ZM-38.3731 404.319C-24.5795 436.119 -14.3789 469.529 -8.04699 503.739C-6.97522 511.177 -6.36422 518.776 -6.26097 526.315C-6.26097 526.315 -6.26067 526.337 -6.26037 526.359C1.03656 528.018 8.27429 530.184 15.4302 532.812C48.0231 546.656 79.0134 564.193 107.558 584.996C185.315 511.776 183.607 443.381 171.069 385.82C117.384 360.898 50.6286 344.158 -38.3731 404.319ZM189.065 437.942C189.164 487.034 170.942 534.244 138.483 570.458L316.685 471.041C297.445 460.07 278.726 448.498 258.272 435.741L255.648 434.04L255.669 433.996C232.609 419.296 208.591 405.444 184.148 392.764C187.04 407.608 188.703 422.755 189.065 437.942ZM115.536 599.419C118.355 634.601 117.121 670.08 111.847 705.065C110.423 712.186 108.559 719.268 106.272 726.115C112.475 730.032 118.441 734.303 124.081 738.909C149.993 762.21 173.232 788.384 193.24 816.823C290.771 772.704 311.415 707.542 318.287 649.231C275.873 608.744 218.517 571.715 115.536 599.419ZM224.822 814.807L429.428 777.95C415.01 761.725 401.424 745.07 388.219 728.916L385.215 725.241C367.626 702.793 348.722 680.913 328.995 660.121C321.867 725.537 282.258 783.659 224.822 814.807ZM230.351 825.79C294.451 835.355 349.75 875.095 379.118 933.569C390.157 907.431 400.06 880.518 408.574 853.535L408.595 853.491C415.432 832.819 422.783 810.997 431.062 789.47L230.351 825.79ZM159.056 931.504C155.201 938.131 150.859 944.566 146.159 950.698C151.047 956.699 155.564 963.035 159.688 969.64C176.637 1000.06 190.108 1032.39 199.779 1065.83C306.485 1055.77 347.304 1000.69 372.852 947.572C345.815 895.177 303.436 841.234 196.409 834.192C187.7 867.838 175.164 900.526 159.056 931.504ZM229.846 1085.14C288.204 1114.83 328.139 1170.63 337.017 1236.24C356.015 1215.1 374.226 1192.8 391.216 1169.88L394.833 1165.21C407.309 1149.1 420.131 1132.48 433.774 1116.24L229.846 1085.14ZM197.131 1083.25C177.91 1112.27 155.375 1139.14 130.024 1163.23C124.316 1168.12 118.229 1172.71 111.915 1176.87C114.481 1183.91 116.631 1191.2 118.342 1198.65C124.433 1233.02 126.611 1268.08 124.84 1302.97C228.742 1328.02 285.325 1289.28 326.854 1247.44C318.365 1189.3 295.921 1124.64 197.131 1083.25ZM146.954 1330.68C181.234 1366.31 201.257 1413.59 202.603 1463.57C202.654 1478.56 201.427 1493.59 198.963 1508.38C223.946 1494.49 248.557 1479.23 272.207 1462.97L272.251 1462.94C291.452 1450.19 310.327 1437.75 329.72 1426.1L146.954 1330.68ZM116.762 1318.3C89.0153 1339.63 58.8227 1357.81 26.9058 1372.4C20.044 1375.16 12.9124 1377.52 5.66417 1379.42C5.75026 1385.71 5.48502 1392.09 4.88728 1398.34L5.08557 1398.34L4.51793 1401.95C-0.896012 1436.39 -10.2199 1470.22 -23.2235 1502.54C66.968 1559.85 133.045 1541.53 185.878 1515.44C196.726 1457.73 196.562 1389.43 116.762 1318.3ZM-160.245 1536.25C-162.486 1543.21 -165.191 1550.06 -168.318 1556.74C-184.668 1587.77 -204.57 1616.97 -227.506 1643.54C-160.832 1726.74 -92.6872 1730.69 -34.5762 1723.03C-5.62615 1672.07 16.3267 1607.53 -36 1514.43C-69.0887 1525.55 -103.485 1532.97 -138.397 1536.43C-145.644 1536.82 -152.985 1536.77 -160.245 1536.25ZM130.252 1685.25L-11.2358 1536.08C16.5315 1595.12 13.7652 1663.54 -19.4645 1720.69C8.85723 1715.6 37.0935 1709.1 64.6078 1701.38L64.6516 1701.36C86.6596 1695.58 108.273 1689.99 130.252 1685.25ZM-42.6393 1736.24C-108.136 1745.41 -172.62 1722.26 -217.03 1674.5L-131.879 1861.13C-118.653 1841.83 -104.733 1823.3 -92.2636 1806.68C-74.6307 1784.04 -57.9377 1760.35 -42.6393 1736.24ZM-260.262 1255.57C-225.716 1257.52 -190.819 1257.76 -156.473 1256.33C-164.514 1222.86 -174.295 1189.49 -185.515 1157.28L-290.698 1154.55L-291.845 1154.52L-260.262 1255.57ZM-191.222 753.494C-180.913 720.726 -172.137 687.167 -165.122 653.719C-199.494 653.244 -234.217 654.489 -268.036 657.349L-296.949 759.251L-191.222 753.494Z" fill="#1F2020" fill-opacity="0.3"/>
</g>
<defs>
<filter id="filter0_f_238_2456" x="-338.739" y="0.150146" width="819.774" height="1909.42" filterUnits="userSpaceOnUse" color-interpolation-filters="sRGB">
<feFlood flood-opacity="0" result="BackgroundImageFix"/>
<feBlend mode="normal" in="SourceGraphic" in2="BackgroundImageFix" result="shape"/>
<feGaussianBlur stdDeviation="15" result="effect1_foregroundBlur_238_2456"/>
</filter>
</defs>
</svg>
