<svg width="769" height="980" viewBox="0 0 769 980" fill="none" xmlns="http://www.w3.org/2000/svg">
<g filter="url(#filter0_f_238_2254)">
<path d="M238.688 -661.619C261.978 -670.897 284.757 -681.122 305.888 -690.77C325.417 -700.118 346.388 -709.019 371.864 -718.774L374.342 -719.72L380.13 -709.482L376.781 -708.195C351.896 -698.648 330.347 -689.471 310.846 -680.164C293.148 -672.103 271.611 -662.276 249.607 -653.322L411.687 -532.194C380.142 -578.68 369.575 -637.278 383.527 -692.589L385.422 -700.075L394.391 -684.21L394.122 -683.074C380.856 -622.518 395.74 -568.331 441.006 -512.758C452.062 -518.73 464.218 -524.592 478.044 -530.59L480.594 -531.678L486.35 -521.497L483.202 -520.122C470.784 -514.769 459.667 -509.443 449.346 -503.962L530.204 -443.384L545.104 -417.564L441.774 -494.783C434.835 -462.047 431.557 -428.476 432.035 -395.16C432.421 -389.192 433.103 -383.238 434.135 -377.382C470.519 -390.728 508.968 -400.823 548.469 -407.446L550.592 -407.813L556.726 -396.962L552.372 -396.243C512.492 -389.709 473.634 -379.485 436.82 -365.87C447.937 -324.124 463.497 -283.476 483.078 -244.898L484.392 -242.08C496.768 -249.076 506.535 -254.775 513.783 -259.781C537.145 -273.139 562.246 -282.708 588.506 -288.21C578.249 -311.907 571.695 -337.116 569.025 -363.157L567.522 -377.863L582.116 -352.048L582.463 -351.032C585.874 -329.904 591.817 -309.627 600.187 -290.747C602.296 -291.182 604.426 -291.578 606.538 -291.964C608.668 -292.36 610.81 -292.737 612.938 -293.183L615.134 -293.642L621.268 -282.791L617.108 -281.954C614.745 -281.477 612.409 -281.04 610.062 -280.623C608.361 -280.318 606.671 -279.994 604.97 -279.688C618.386 -248.207 633.502 -217.08 649.908 -187.162L673.413 -190.551L679.634 -179.547L673.169 -178.62L681.7 -175.892L690.203 -160.85L670.334 -167.244L705.772 -133.086L729.333 -91.6321L653.391 -52.6402L748.477 -54.4993L750.299 -54.5447L756.866 -42.9285L651.837 -40.8778L731.667 -3.88507L761.496 -34.738L767.511 -24.0979L742.924 1.29193L795.683 25.7348L803.364 39.322L777.563 94.5896L838.21 100.962L845.848 114.473L839.627 171.904L873.878 164.057L879.871 174.658L838.327 184.205L828.959 271.497L884.618 183.011L891.196 194.646L839.288 277.273L912.259 231.905L934.502 271.251L946.233 322.145L951.249 300.875L959.785 315.974L957.611 325.208L961.981 319.859L968.158 330.786L952.912 349.455C970.075 378.92 988.889 407.855 1008.86 435.529C1010.14 434.153 1011.36 432.73 1012.59 431.326C1014.17 429.55 1015.75 427.774 1017.35 426.006L1020.22 422.873L1026.34 433.705L1024.81 435.35C1023.33 436.974 1021.86 438.636 1020.38 440.278C1018.92 441.94 1017.47 443.592 1015.97 445.196C1027.97 462.302 1042.43 478.019 1059.03 491.94L1074.54 518.96L1062.87 510.327C1041.55 494.553 1022.97 475.662 1007.58 454.132C989.428 473.662 968.4 490.121 944.858 503.252C936.81 506.842 926.724 512.468 915.135 519.02L916.935 521.891C939.757 558.409 966.449 592.638 996.335 623.648C1026.91 599.138 1055.67 571.138 1081.88 540.365L1084.74 537.006L1090.88 547.876L1089.47 549.505C1063.52 579.831 1035.13 607.497 1005.11 631.771C1009.71 635.757 1014.51 639.487 1019.37 642.8C1047.59 660.352 1077.84 674.747 1109.33 685.678L1096.43 557.644L1110.43 582.407L1120.94 684.09C1130.98 678.062 1141.28 671.282 1152.29 663.392L1155.09 661.404L1160.9 671.681L1158.65 673.305C1146.58 681.92 1135.45 689.196 1124.77 695.513C1149 762.748 1187.54 803.512 1245.79 823.415L1246.89 823.8L1255.9 839.741L1248.48 837.448C1193.7 820.586 1149.21 781.166 1125.59 729.698L1146.02 932.947C1163.22 919.968 1180.77 907.846 1197.81 896.067L1203.07 892.514L1203.11 892.541C1220.35 881.076 1238.59 867.836 1258.79 852.051L1261.62 849.846L1267.31 859.912L1265.22 861.547C1244.29 877.921 1225.49 891.555 1207.85 903.218C1186.47 917.931 1167.16 931.326 1147.95 946.045L1147.63 946.633C1146.56 948.599 1144.5 949.741 1142.33 949.657C1140.12 950.323 1137.66 949.643 1136.15 947.821L1135.78 947.268C1113.77 936.73 1091.42 927.245 1068.64 917.673C1038.51 905.715 1008.71 891.909 979.998 876.598C949.621 888.164 918.259 898.166 886.793 906.283C864.091 912.525 837.711 919.964 812.356 928.59L811.505 928.92C810.714 929.089 809.905 929.092 809.384 928.932C808.402 928.805 807.456 928.431 806.667 927.842L805.991 927.138C787.329 908.369 767.979 891.025 749.311 874.306C725.088 853.403 701.764 830.956 679.941 807.536C647.923 808.54 615.532 807.81 583.689 805.407C559.652 804.046 534.803 802.639 509.693 802.516L509.452 802.627C507.043 803.786 504.189 803.127 502.485 801.187C501.425 800.7 499.882 798.643 499.849 796.793L499.664 796.241L499.708 796.14C488.304 772.966 475.754 750.363 464.946 731.245C448.643 703.391 433.793 674.436 420.666 644.989C389.844 635.569 359.178 624.319 329.572 611.586C307.499 602.548 282.496 592.314 256.805 583.504C254.719 582.815 253.197 580.973 252.874 578.656C249.756 552.716 245.165 527.129 240.715 502.372L240.58 501.64C234.346 470.189 229.766 438.081 226.988 406.116C201.062 387.262 175.894 366.792 152.202 345.261C134.293 329.527 113.992 311.71 92.5452 295.046C91.9004 294.577 91.3873 293.983 90.9763 293.256L90.2849 291.854L90.3902 291.592C90.1061 290.642 90.0463 289.64 90.2432 288.645C95.9171 262.18 100.057 235.42 103.695 211.848C108.019 179.858 114.137 147.864 121.884 116.691C103.446 90.3462 86.2815 62.625 70.892 34.5064C60.0209 15.5003 46.5319 -8.13696 32.1983 -30.312C31.6327 -30.7751 31.1606 -31.3415 30.8035 -31.9731L30.208 -33.4295L30.3061 -33.8383C29.6355 -36.0098 30.3134 -38.4385 32.0325 -39.9659C45.4941 -62.3741 57.7312 -85.6052 68.5287 -106.053C82.9727 -134.875 99.1894 -163.159 116.702 -190.18C107.85 -221.111 100.604 -252.874 95.2076 -284.545C90.5511 -309.085 85.9024 -333.073 80.0539 -356.99L79.8714 -357.088L79.2908 -358.25C78.4588 -359.901 78.4892 -361.863 79.3263 -363.472C79.7046 -365.58 81.2937 -367.337 83.3353 -367.935L83.5706 -367.967C102.073 -383.654 119.431 -399.932 138.525 -417.974C161.564 -440.594 186.171 -462.232 211.706 -482.274C213.357 -514.647 216.855 -547.155 222.046 -578.953C225.436 -601.98 228.926 -626.53 231.245 -651.452L230.839 -652.258C230.046 -654.512 230.724 -656.94 232.452 -658.498C233.444 -660.549 235.654 -661.924 238.099 -661.766L238.688 -661.619ZM125.454 -203.184C162.524 -257.372 222.733 -289.44 287.58 -290.417L93.3025 -352.812C98.3698 -331.308 102.507 -310.061 106.903 -286.788C111.72 -258.829 117.965 -230.718 125.454 -203.184ZM82.7067 31.4892L82.6684 31.5108C95.9189 55.3083 110.459 79.0583 125.885 101.778C143.324 38.661 189.776 -11.1594 250.735 -33.1209L46.9724 -29.1692C59.6865 -9.00781 71.5313 11.7207 81.2581 28.7474L82.7067 31.4892ZM164.734 340.601C184.397 358.096 204.961 374.856 226.004 390.536C221.842 324.681 249.867 262.196 300.948 221.551L107.789 291.959C126.538 306.941 144.238 322.44 160.04 336.285L164.821 340.577L164.734 340.601ZM475.312 725.082L475.344 725.14C486.757 745.507 497.159 764.222 506.922 783.552L615.054 611.69C564.92 652.354 498.495 666.395 435.678 648.927C447.624 674.85 460.859 700.323 475.312 725.082ZM757.105 865.253L757.146 865.28C772.925 879.441 790.603 895.306 807.602 911.984L854.439 712.627C820.067 767.916 761.3 802.982 695.511 806.638C715.065 827.074 735.765 846.761 757.105 865.253ZM994.518 870.662C1020.02 883.845 1046.48 895.934 1073.32 906.694C1094.86 915.729 1114.56 924.092 1134.29 933.389L1113.72 729.488C1099.53 793.017 1055.58 845.484 994.518 870.662ZM877.424 682.612C879.086 789.325 930.499 834.049 981.148 863.448C1035.08 840.66 1091.78 802.747 1107.31 697.229C1074.29 685.943 1042.55 670.908 1012.87 652.455C1006.83 648.298 1001 643.715 995.492 638.771C989.32 642.993 982.902 646.823 976.314 650.218C944.722 664.695 911.461 675.593 877.424 682.612ZM940.169 492.494L940.245 492.451C962.829 479.684 983.123 463.539 1000.62 444.379C981.985 418.753 964.437 392.057 948.334 364.872L915.286 505.449C923.759 500.685 932.712 495.876 940.169 492.494ZM735.659 184.567L826.271 111.373L772.426 105.701L735.659 184.567ZM827.656 174.555L833.46 120.642L742.478 194.121L827.656 174.555ZM765.37 93.1746L788.36 43.8643L678.265 83.9814L765.37 93.1746ZM634.407 -191.203C619.383 -219.124 605.552 -248.023 593.207 -277.206C567.474 -272.027 542.886 -262.849 520.284 -250.072C513.657 -245.492 504.958 -240.322 496.51 -235.47L634.407 -191.203ZM425.867 -361.193C420.538 -358.661 415.295 -355.798 410.319 -352.732C382.752 -333.865 357.33 -311.968 334.644 -287.603L470.534 -243.842C451.86 -281.265 436.841 -320.73 425.867 -361.193ZM784.737 583.418C787.856 588.801 791.293 594.03 794.899 598.885C815.629 624.313 839.224 647.465 865.073 667.751L897.616 529.101C861.962 550.771 824.018 569.015 784.737 583.418ZM854.8 410.501C862.003 435.469 873.093 459.074 887.495 480.25C892.198 485.926 897.551 493.379 903.877 502.555L936.838 362.406C910.278 379.693 882.744 395.84 854.8 410.501ZM726.299 456.755L649.512 578.902C682.645 583.05 716.283 583.479 749.53 580.214C755.639 579.286 761.741 578.033 767.698 576.433C749.991 538.034 736.068 497.773 726.299 456.755ZM559.072 451.795C564.926 452.88 570.864 453.664 576.755 454.097C572.49 412.29 572.392 369.972 576.438 328.265L465.155 418.145C495.124 432.819 526.74 444.138 559.072 451.795ZM590.417 466.172C591.575 471.982 593.036 477.747 594.802 483.289C606.298 514.643 621.281 544.684 639.501 572.794L715.813 451.42C674.717 460.46 632.578 465.418 590.417 466.172ZM624.563 315.579C650.698 319.441 677.079 319.124 703.024 314.633C704.056 283.09 706.599 251.223 710.578 219.832L598.092 310.72C609.942 312.557 618.116 314.072 624.563 315.579ZM478.655 156.773L343.41 206.057C366.758 229.399 392.722 250.201 420.54 267.834C426.102 270.953 431.905 273.783 437.808 276.254C447.492 235.249 461.211 195.069 478.655 156.773ZM526.977 160.871C550.125 172.886 574.907 181.073 600.653 185.231C611.901 155.817 624.631 126.65 638.602 98.4237L503.515 147.719C514.016 153.172 521.464 157.345 526.977 160.871ZM492.393 155.143L490.648 158.907C472.624 197.834 458.584 238.701 448.868 280.456C489.624 293.654 531.86 302.707 574.419 307.36L577.926 307.878C578.795 294.634 579.447 282.977 579.2 274.076C580.81 247.409 586.572 221.323 596.302 196.479C569.998 192.005 544.674 183.442 520.799 170.903C513.343 166.179 502.894 160.595 492.393 155.143ZM446.792 292.236C445.893 298.527 445.373 304.907 445.211 311.16C445.902 344.003 450.27 376.811 458.165 408.737L569.77 318.575C528.045 313.829 486.706 304.975 446.792 292.236ZM509.25 111.598C506.89 119.069 503.41 128.006 499.918 136.52L635.172 87.206C606.328 74.5217 577.845 60.3708 550.341 45.0854C533.145 65.0086 519.282 87.4673 509.25 111.598ZM366.31 80.7616C363.486 86.247 360.979 91.9325 358.847 97.6575C348.677 129.291 342.054 162.05 339.156 195.128L474.215 145.874C436.264 127.782 399.998 105.91 366.31 80.7616ZM349.914 49.4746C354.013 54.1273 358.397 58.568 362.993 62.7122C385.35 27.1948 411.271 -6.27198 440.15 -36.79L296.914 -34.0239C311.463 -4.34474 329.279 23.7659 349.914 49.4746ZM610.708 -51.8697C587.55 -73.1724 565.165 -95.7958 544.071 -119.225C521.633 -106.111 501.517 -89.5623 484.398 -70.2636C479.88 -64.1486 473.831 -57.0675 466.832 -49.0703L610.708 -51.8697ZM451.341 -31.5504C421.611 -0.476099 395 33.785 372.201 70.3104C406.477 96.1867 443.527 118.55 482.376 136.841L486.264 138.835C490.635 128.384 495.236 116.995 498.088 107.933C508.354 82.9628 522.405 59.8936 539.855 39.3464C516.19 26.462 494.794 10.022 476.1 -9.78907C470.83 -16.5577 462.996 -24.9069 454.004 -34.3187L451.341 -31.5504ZM591.012 273.965C591.217 282.031 590.777 292.002 590.164 302.07L702.907 211.012C671.29 208.38 639.487 204.212 608.215 198.608C598.462 222.783 592.687 248.219 591.012 273.965ZM588.993 321.318L588.618 324.864C584.125 367.884 584.139 411.488 588.702 454.54C632.013 453.894 675.355 448.736 717.54 439.156L721.446 438.362C717.839 425.174 714.76 414.667 711.685 406.405C704.433 380.454 701.352 353.685 702.515 326.765C675.892 331.133 648.852 331.268 621.904 327.133C613.716 325.145 603.145 323.42 588.993 321.318ZM740.228 434.815C750.12 433.011 759.875 431.41 767.573 430.695C793.227 425.914 817.757 417.173 840.582 404.699C831.335 374.548 823.408 343.549 816.975 312.463L740.228 434.815ZM630.251 -180.192L492.542 -224.439C496.608 -215.5 500.704 -206.149 503.377 -198.645C514.186 -175.134 528.69 -153.51 546.399 -134.455C573.55 -150.966 601.736 -166.319 630.251 -180.192ZM359.311 -145.435C354.918 -141.159 350.745 -136.628 346.931 -131.997C326.961 -105.203 309.981 -76.2093 296.437 -45.7497L440.283 -48.5573C410.206 -78.0696 382.995 -110.617 359.311 -145.435ZM467.131 -232.574L331.243 -276.286C335.306 -243.482 343.034 -211.133 354.145 -180.192C356.441 -174.52 359.116 -168.936 362.079 -163.515C394.661 -189.813 429.96 -213.051 467.131 -232.574ZM500.61 -176.98C497.395 -182.309 494.602 -188.457 492.378 -194.498C489.304 -203.114 484.274 -214.387 479.109 -225.583L476.339 -224.169C438.082 -204.461 401.706 -180.665 368.185 -153.432C392.195 -117.812 420.002 -84.5673 450.965 -54.5198L453.607 -51.7713C462.732 -62.0557 469.911 -70.407 475.112 -77.4637C492.743 -97.5572 513.278 -114.62 536.172 -128.27C522.932 -143.361 510.98 -159.711 500.61 -176.98ZM467.464 -37.3822C474.12 -30.3113 480.557 -23.2685 485.271 -17.3476C503.423 1.68396 524.38 17.6148 547.647 30.0177C567.889 5.72045 589.431 -17.8464 611.835 -40.1579L467.464 -37.3822ZM627.664 -39.2078C603.4 -15.4402 580.018 9.79821 558.129 35.885C587.88 52.3241 618.778 67.433 649.834 80.7608L722.923 4.92195L627.664 -39.2078ZM673.209 73.38L783.788 33.0901L734.34 10.1594L673.209 73.38ZM654.316 93.3027C638.967 123.748 624.947 155.335 612.592 187.27C646.438 193.262 680.991 197.593 715.379 200.198L760.01 104.386L654.316 93.3027ZM714.775 312.712C748.294 307.375 781.975 300.355 814.957 291.786L826.265 186.831L723.678 210.355C719.054 244.232 716.056 278.655 714.775 312.712ZM722.792 402.449C725.501 409.706 728.227 418.872 730.72 427.715L807.184 306.028C776.614 313.714 745.434 320.053 714.337 324.88C713.024 351.178 715.887 377.337 722.792 402.449ZM737.152 451.276C746.851 493.066 760.954 533.958 779.052 572.869C819.497 558.287 858.574 539.403 895.332 516.73L898.114 515.157C891.257 505.043 884.255 494.986 878.332 487.779C874.304 482.758 870.857 477.333 867.472 471.569C858.097 453.865 850.223 435.234 844.09 416.1C820.631 428.706 795.393 437.493 769.077 442.269L768.812 442.293C760.398 443.085 749.647 444.894 736.24 447.423L737.152 451.276ZM876.462 670.833C909.077 663.986 940.928 653.506 971.107 639.753C976.462 636.953 981.75 633.812 986.827 630.387C957.795 600.081 931.681 566.788 909.214 531.433L876.462 670.833ZM866.656 712.336L819.2 913.913C841.689 906.578 863.929 900.369 883.864 894.832L885.093 894.542L885.114 894.58C912.66 887.367 940.138 878.778 966.846 869.008C909.754 836.408 872.266 777.171 866.656 712.336ZM859.866 678.649C832.498 657.378 807.508 632.969 785.528 606.001C781.016 599.991 776.831 593.619 773.121 587.055C773.121 587.055 773.11 587.036 773.099 587.017C765.902 589.065 758.513 590.641 750.974 591.772C715.737 595.277 680.132 594.774 645.105 590.232C612.055 691.795 646.393 750.969 685.029 795.442C744.088 791.525 810.682 774.156 859.866 678.649ZM644.217 758.361C620.558 715.347 613.875 665.185 624.958 617.833L516.378 790.605C538.523 790.99 560.499 792.153 584.566 793.522L587.685 793.754L587.688 793.803C614.974 795.626 642.693 796.243 670.223 795.63C660.558 783.998 651.827 771.509 644.217 758.361ZM631.181 581.411C611.816 551.903 595.863 520.189 583.691 486.969C581.521 480.039 579.755 472.931 578.474 465.827C571.152 465.37 563.867 464.488 556.709 463.156C522.792 455.158 489.839 443.357 458.634 428.018C394.264 513.549 407.444 580.619 429.414 635.069C486.059 650.218 554.151 655.16 631.181 581.411ZM431.898 444.95L270.118 575.524C290.556 582.833 310.47 590.919 329.81 598.749L334.209 600.53C360.417 611.775 387.505 621.891 414.792 630.658C389.635 569.853 396.472 499.851 431.898 444.95ZM421.775 437.971C360.954 460.359 293.366 452.052 239.527 414.861C242.395 443.088 246.63 471.452 252.118 499.209L252.12 499.258C256.049 520.673 260.079 543.345 263.153 566.203L421.775 437.971ZM433.554 311.008C433.754 303.344 434.473 295.615 435.651 287.979C428.482 285.062 421.477 281.673 414.688 277.86C385.217 259.318 357.876 237.425 333.337 212.737C244.566 272.794 235.208 340.711 238.301 399.569C287.175 432.546 350.249 459.516 447.514 414.304C438.997 380.608 434.298 345.916 433.554 311.008ZM297.691 210.236C232.243 212.209 170.419 182.436 131.126 129.143C124.615 156.814 119.349 185.12 115.451 213.384L114.519 219.214C111.31 239.336 108.043 260.072 103.872 280.865L297.691 210.236ZM327.293 196.178C330.219 161.494 337.086 127.106 347.755 93.8017C350.413 86.7688 353.548 79.8194 357.092 73.1443C351.46 68.1972 346.073 62.8334 340.994 57.1186C319.149 29.8969 300.405 0.189501 285.204 -31.268C182.037 -3.35034 151.006 57.8034 134.664 114.441C170.03 161.368 220.763 207.31 327.293 196.178ZM252.503 -44.9535C205.325 -59.7481 165.059 -91.6069 139.882 -134.799C132.639 -147.926 126.497 -161.702 121.559 -175.855C106.311 -151.68 92.0523 -126.472 79.1158 -100.851L79.0883 -100.81C68.3675 -80.4058 57.783 -60.4322 46.3678 -40.898L252.503 -44.9535ZM284.932 -48.5892C299.028 -80.6239 316.785 -111.066 337.774 -139.194C342.47 -144.905 347.592 -150.401 353.037 -155.55C349.943 -161.023 347.112 -166.746 344.634 -172.518L344.462 -172.42L343.225 -175.862C331.439 -208.669 323.373 -242.822 319.261 -277.417C212.628 -284.384 163.461 -236.589 129.647 -188.331C147.839 -132.504 180.78 -72.6657 284.932 -48.5892ZM423.267 -372.779C421.893 -379.957 420.976 -387.267 420.51 -394.63C419.955 -429.695 423.39 -464.87 430.754 -499.184C332.319 -540.154 270.647 -510.897 223.349 -476.28C222.425 -417.675 234.158 -350.52 324.758 -293.984C348.445 -319.623 375.055 -342.645 404.014 -362.451C410.186 -366.268 416.651 -369.746 423.267 -372.779ZM96.9078 -363.992L292.641 -301.081C239.933 -339.542 209.511 -400.881 211.217 -466.971C188.819 -448.905 167.171 -429.647 146.742 -409.664L146.715 -409.623C130.183 -393.99 113.91 -378.704 96.9078 -363.992ZM224.077 -491.742C277.13 -531.228 344.809 -541.887 406.696 -521.317L242.391 -644.141C240.06 -620.854 236.745 -597.919 233.785 -577.357C229.191 -549.027 225.921 -520.234 224.077 -491.742ZM645.771 -174.596C614.533 -159.715 583.803 -143.176 554.366 -125.424C577.486 -99.9327 602.089 -75.3563 627.397 -52.4908L720.975 -100.594L721.995 -101.12L645.771 -174.596ZM826.284 298.968C832.975 332.661 841.391 366.313 851.298 399.021C881.676 382.933 911.536 365.169 939.829 346.422L916.263 243.152L826.284 298.968Z" fill="#1F2020" fill-opacity="0.3"/>
</g>
<defs>
<filter id="filter0_f_238_2254" x="0.0512695" y="-749.72" width="1297.25" height="1729.63" filterUnits="userSpaceOnUse" color-interpolation-filters="sRGB">
<feFlood flood-opacity="0" result="BackgroundImageFix"/>
<feBlend mode="normal" in="SourceGraphic" in2="BackgroundImageFix" result="shape"/>
<feGaussianBlur stdDeviation="15" result="effect1_foregroundBlur_238_2254"/>
</filter>
</defs>
</svg>
