<svg width="463" height="483" viewBox="0 0 463 483" fill="none" xmlns="http://www.w3.org/2000/svg">
<g clip-path="url(#clip0_238_2353)">
<path d="M456.128 145.753C442.201 137.459 424.646 163.712 420.658 169.442C409.758 185.146 396.691 200.836 385.15 216.142C380.072 222.885 360.465 251.869 352.438 257.163C339.499 265.701 331.587 256.881 336.832 244.177C343.987 226.731 356.375 201.118 363.261 183.518C369.903 166.545 373.814 158.982 379.918 141.83C383.304 132.267 398.089 98.8733 400.833 87.6694C403.577 76.4527 408.104 62.1851 394.691 57.1472C378.29 51.0069 373.032 61.0698 367.877 70.6585C358.35 88.3488 354.631 100.873 348.668 113.91C336.665 140.138 327.612 161.405 314.481 186.953C311.211 193.337 301.363 219.975 289.809 208.489C277.986 196.734 304.132 132.023 307.556 119.23C317.635 81.606 319.187 73.2095 329.933 35.6368C333.626 22.6896 337.589 7.08875 317.02 0.807407C291.424 -7.02504 283.782 43.3539 276.857 62.2107C263.072 99.8347 258.392 128.934 243.17 179.903C240.772 187.94 238.849 210.335 224.781 201.105C217.511 196.349 221.781 134.651 221.499 119.217C221.037 93.1688 219.857 78.9012 219.409 57.942C218.793 30.6887 212.869 12.0497 196.403 14.793C178.707 17.767 179.22 26.2404 178.361 50.7377C177.925 62.4415 176.796 98.3733 175.412 116.846C174.014 135.305 173.616 210.117 173.616 210.117C173.732 212.399 173.091 215.527 172.078 218.949C172.975 219.578 174.039 220.36 174.386 220.577C182.747 225.692 191.351 227.013 204.123 231.217C210.804 233.409 217.216 235.794 223.063 239.447C228.923 243.101 233.271 248.664 239.605 251.766C243.145 253.497 246.081 256.022 249.505 257.907C253.365 260.009 257.891 260.663 262.123 261.855C268.073 263.534 273.818 264.624 280.012 265.201C285.551 265.726 288.565 270.944 287.577 274.033C284.795 282.801 263.982 286.929 251.095 283.519C235.848 279.468 227.641 272.02 224.653 271.533C215.01 269.957 212.74 274.315 212.445 281.289C212.24 286.326 212.33 287.378 216.331 298.094C217.459 301.107 219.652 308.35 221.871 310.593C221.871 310.593 243.491 335.206 248.402 341.654C253.326 348.114 265.701 362.677 268.971 366.625C275.806 374.893 278.447 377.521 273.497 383.636C268.919 389.315 261.559 384.944 253.442 376.175C247.197 369.445 240.362 362.638 232.642 354.255C228.064 349.281 211.535 327.835 207.765 328.373C200.468 329.45 205.829 337.539 207.38 340.872C217.203 361.985 225.076 375.996 232.36 392.34C235.938 400.365 247.415 418.619 237.066 424.119C230.103 427.811 224.025 417.132 222.166 413.517C217.87 405.069 210.445 390.904 206.598 382.252C202.533 373.15 189.735 344.038 184.131 344.128C177.002 344.243 181.541 355.306 182.311 358.357C185.439 370.535 198.135 407.287 200.161 415.838C201.263 420.491 202.469 425.311 195.326 428.041C189.466 430.297 186.786 424.311 184.439 419.85C182.08 415.389 161.575 359.613 158.857 351.819C156.869 346.14 151.727 345.551 149.97 352.101C148.88 356.178 153.189 393.186 153.227 405.172C153.253 412.299 151.496 416.184 148.406 416.671C143.289 417.491 140.314 414.171 138.66 405.352C136.942 396.173 136.005 383.956 135.031 376.701C133.287 363.818 129.837 338.526 129.85 338.513C129.671 334.436 125.093 327.283 123.246 323.668C118.707 314.823 112.616 299.03 109.564 286.326C108.063 280.071 108.153 273.443 106.884 267.124C106.743 266.444 106.576 265.777 106.435 265.098C102.908 254.356 97.6508 234.563 82.6987 212.053C65.8617 186.684 24.0319 162.212 5.98944 172.967C-0.37094 176.762 -3.16643 190.235 5.50216 199.503C15.2223 209.899 23.3651 220.462 30.9822 232.358C36.4193 240.806 43.1515 248.792 46.5241 258.253C49.5247 266.624 50.7173 275.379 54.1155 283.724C60.245 298.607 59.232 314.695 63.7074 329.834C68.1571 344.935 77.8772 357.588 83.5707 372.599C95.5734 404.236 101.806 419.824 115.668 437.374C136.082 463.153 184.016 455.602 207.38 462.807C222.448 467.46 241.657 483.304 256.724 482.215C282.128 480.369 300.644 459.974 305.299 454.397C313.942 444.078 322.495 433.618 328.817 421.798C342.885 395.468 356.4 359.241 362.107 337.257C364.415 328.283 367.454 309.132 373.314 301.889C373.327 301.863 405.809 253.407 422.389 228.769C438.97 204.131 441.201 200.977 453.076 180.39C465.835 158.29 465.668 151.431 456.128 145.753Z" fill="#FE6A00"/>
</g>
<defs>
<clipPath id="clip0_238_2353">
<rect width="463" height="482.292" fill="white"/>
</clipPath>
</defs>
</svg>
