<svg width="50" height="36" viewBox="0 0 50 36" fill="none" xmlns="http://www.w3.org/2000/svg">
<path d="M11.93 27.9301C10.37 27.9301 9.11 26.6701 9.11 25.1101V7.09009H3.07C1.37 7.09009 0 8.46009 0 10.1501V28.4401V32.7901C0 34.4801 1.37 35.8601 3.07 35.8601H7.87H34.89H39.69C41.38 35.8601 42.76 34.4901 42.76 32.7901V27.9201H11.93V27.9301Z" fill="#C5C5C5"/>
<path d="M45.5604 29.43H11.9304C9.55035 29.43 7.61035 27.49 7.61035 25.11V4.32C7.61035 1.94 9.55035 0 11.9304 0H45.5704C47.9504 0 49.8904 1.94 49.8904 4.32V25.12C49.8804 27.5 47.9404 29.43 45.5604 29.43ZM11.9304 3C11.2004 3 10.6104 3.59 10.6104 4.32V25.12C10.6104 25.85 11.2004 26.44 11.9304 26.44H45.5704C46.3004 26.44 46.8904 25.85 46.8904 25.12V4.32C46.8904 3.59 46.3004 3 45.5704 3H11.9304Z" fill="#C5C5C5"/>
<path d="M9.10598 21.792L48.376 21.792V15.352L9.10598 15.352V21.792Z" fill="#C5C5C5"/>
</svg>
