<svg width="45" height="43" viewBox="0 0 45 43" fill="none" xmlns="http://www.w3.org/2000/svg">
<g clip-path="url(#clip0_344_2127)">
<path d="M40.5102 42.21H24.5702C22.4102 42.21 20.6602 40.46 20.6602 38.3V29.5H23.6602V38.3C23.6602 38.8 24.0702 39.21 24.5702 39.21H40.5102C41.0102 39.21 41.4202 38.8 41.4202 38.3V3.91C41.4202 3.41 41.0102 3 40.5102 3H24.5702C24.0702 3 23.6602 3.41 23.6602 3.91V14.86H20.6602V3.91C20.6602 1.75 22.4202 0 24.5702 0H40.5102C42.6702 0 44.4202 1.75 44.4202 3.91V38.3C44.4202 40.46 42.6702 42.21 40.5102 42.21Z" fill="#C5C5C5"/>
<path d="M29.66 31.94H3.91C1.76 31.94 0 30.19 0 28.03V7.89999C0 5.73999 1.76 3.98999 3.91 3.98999H18.91V6.98999H3.91C3.41 6.97999 3 7.38999 3 7.89999V28.03C3 28.53 3.41 28.94 3.91 28.94H29.66C30.16 28.94 30.57 28.53 30.57 28.03V13.45H33.57V28.03C33.57 30.19 31.81 31.94 29.66 31.94Z" fill="#C5C5C5"/>
<path d="M32.12 20.86H1.5V25.52H32.12V20.86Z" fill="#C5C5C5"/>
<path d="M42.9897 6.97H22.2197V4.41C22.2197 2.8 23.5197 1.5 25.1297 1.5H40.0697C41.6797 1.5 42.9797 2.8 42.9797 4.41V6.97H42.9897Z" fill="#C5C5C5"/>
<path d="M22.1602 34.59V37.46C22.1602 39.25 23.6102 40.71 25.4102 40.71H39.6802C41.4702 40.71 42.9302 39.26 42.9302 37.46V34.59H22.1602ZM34.5502 38.98H30.5302C29.9802 38.98 29.5302 38.53 29.5302 37.98C29.5302 37.43 29.9802 36.98 30.5302 36.98H34.5502C35.1002 36.98 35.5502 37.43 35.5502 37.98C35.5502 38.53 35.1002 38.98 34.5502 38.98Z" fill="#C5C5C5"/>
<path d="M38.4304 18.85H25.1504L32.1904 10.95L38.4304 18.85Z" fill="#C5C5C5"/>
<path d="M22.1004 17.5799L15.8604 9.67993H29.1404L22.1004 17.5799Z" fill="#C5C5C5"/>
</g>
<defs>
<clipPath id="clip0_344_2127">
<rect width="44.42" height="42.21" fill="white"/>
</clipPath>
</defs>
</svg>
