<svg width="51" height="35" viewBox="0 0 51 35" fill="none" xmlns="http://www.w3.org/2000/svg">
<path d="M1.50394 14.0531L41.5439 14.0532L41.544 7.39322L1.50396 7.39312L1.50394 14.0531Z" fill="white"/>
<path d="M21.97 16.9199H5.79004V19.9199H21.97V16.9199Z" fill="white"/>
<path d="M46.4699 14.5701L36.9799 25.9101L29.8399 23.0101L27.6299 26.6201L38.2599 34.4001L50.0699 17.3501L46.4699 14.5701Z" fill="white"/>
<path d="M38.67 0H4.37C1.96 0 0 1.96 0 4.37V25.58C0 27.99 1.96 29.95 4.37 29.95H27.2L23.14 26.95H4.37C3.62 26.95 3 26.34 3 25.58V4.37C3 3.62 3.62 3 4.37 3H38.67C39.43 3 40.04 3.62 40.04 4.37V17.57L43.04 13.98V4.37C43.04 1.96 41.08 0 38.67 0Z" fill="white"/>
</svg>
