<svg width="22" height="22" viewBox="0 0 22 22" fill="none" xmlns="http://www.w3.org/2000/svg">
<g clip-path="url(#clip0_239_3727)">
<path d="M11 1.98259C13.9376 1.98259 14.2845 1.99294 15.444 2.04729C16.5155 2.09647 17.0979 2.27506 17.4861 2.42518C17.9986 2.62447 18.3661 2.86259 18.7518 3.24824C19.1374 3.63388 19.3755 3.99882 19.5748 4.51388C19.7249 4.90212 19.9035 5.48447 19.9527 6.556C20.0045 7.71553 20.0174 8.06494 20.0174 11C20.0174 13.9351 20.0071 14.2845 19.9527 15.444C19.9035 16.5155 19.7249 17.0979 19.5748 17.4861C19.3755 17.9986 19.1374 18.3661 18.7518 18.7518C18.3661 19.1374 18.0012 19.3755 17.4861 19.5748C17.0979 19.7249 16.5155 19.9035 15.444 19.9527C14.2845 20.0045 13.9376 20.0174 11 20.0174C8.06235 20.0174 7.71553 20.0071 6.556 19.9527C5.48447 19.9035 4.90212 19.7249 4.51388 19.5748C4.00141 19.3755 3.63388 19.1374 3.24824 18.7518C2.86259 18.3661 2.62447 18.0012 2.42518 17.4861C2.27506 17.0979 2.09647 16.5155 2.04729 15.444C1.99553 14.2845 1.98259 13.9351 1.98259 11C1.98259 8.06494 1.99294 7.71553 2.04729 6.556C2.09647 5.48447 2.27506 4.90212 2.42518 4.51388C2.62447 4.00141 2.86259 3.63388 3.24824 3.24824C3.63388 2.86259 3.99882 2.62447 4.51388 2.42518C4.90212 2.27506 5.48447 2.09647 6.556 2.04729C7.71553 1.99294 8.06235 1.98259 11 1.98259ZM11 0C8.01318 0 7.63788 0.0129412 6.46541 0.0672941C5.29553 0.121647 4.49576 0.305412 3.79435 0.579765C3.07224 0.861882 2.45882 1.23718 1.84541 1.848C1.23459 2.45882 0.856706 3.07224 0.577177 3.79694C0.305412 4.49577 0.119059 5.29553 0.0647059 6.468C0.0129412 7.63788 0 8.01318 0 11C0 13.9868 0.0129412 14.3621 0.0672941 15.5346C0.121647 16.7045 0.305412 17.5042 0.579765 18.2056C0.861882 18.9278 1.23718 19.5412 1.848 20.1546C2.45882 20.7654 3.07224 21.1433 3.79694 21.4228C4.49577 21.6946 5.29553 21.8809 6.468 21.9353C7.63788 21.9871 8.01318 22 11 22C13.9868 22 14.3621 21.9871 15.5346 21.9327C16.7045 21.8784 17.5042 21.6946 18.2056 21.4202C18.9278 21.1381 19.5412 20.7628 20.1546 20.152C20.7654 19.5412 21.1433 18.9278 21.4228 18.2031C21.6946 17.5042 21.8809 16.7045 21.9353 15.532C21.9871 14.3621 22 13.9868 22 11C22 8.01318 21.9871 7.63788 21.9327 6.46541C21.8784 5.29553 21.6946 4.49576 21.4202 3.79435C21.1381 3.07224 20.7628 2.45882 20.152 1.84541C19.5412 1.23459 18.9278 0.856706 18.2031 0.577177C17.5042 0.305412 16.7045 0.119059 15.532 0.0647059C14.3621 0.0129412 13.9868 0 11 0Z" fill="#FE6A00"/>
<path d="M11 5.35254C7.88118 5.35254 5.35248 7.88124 5.35248 11.0001C5.35248 14.1189 7.88118 16.6476 11 16.6476C14.1188 16.6476 16.6475 14.1189 16.6475 11.0001C16.6475 7.88124 14.1188 5.35254 11 5.35254ZM11 14.6676C8.97601 14.6676 7.33248 13.0267 7.33248 11.0001C7.33248 8.97348 8.97342 7.33254 11 7.33254C13.0266 7.33254 14.6675 8.97348 14.6675 11.0001C14.6675 13.0267 13.024 14.6676 11 14.6676Z" fill="#FE6A00"/>
<path d="M16.8727 6.44762C17.6018 6.44762 18.1927 5.85663 18.1927 5.12762C18.1927 4.3986 17.6018 3.80762 16.8727 3.80762C16.1437 3.80762 15.5527 4.3986 15.5527 5.12762C15.5527 5.85663 16.1437 6.44762 16.8727 6.44762Z" fill="#FE6A00"/>
</g>
<defs>
<clipPath id="clip0_239_3727">
<rect width="22" height="22" fill="white"/>
</clipPath>
</defs>
</svg>
