<svg width="206" height="35" viewBox="0 0 206 35" fill="none" xmlns="http://www.w3.org/2000/svg">
<path opacity="0.92" d="M21.0876 34.4873V33.9752H21.3424C22.1598 33.9752 22.5685 33.5999 22.5685 32.8469C22.5685 32.5731 22.518 32.279 22.4171 31.9723L17.8207 19.5036H8.88512L4.44004 31.7694C4.33913 32.0407 4.28867 32.2968 4.28867 32.5402C4.28867 32.9838 4.40724 33.3337 4.64438 33.5923C4.88152 33.8484 5.13631 33.9752 5.41129 33.9752H5.66609V34.4873H0V33.9752H0.254796C0.696277 33.9752 1.13019 33.7089 1.55653 33.1791C1.98036 32.6492 2.3285 32.0255 2.60348 31.308L14.2989 0.00195312L25.7396 31.0012C25.9767 31.6858 26.3072 32.3526 26.731 32.9991C27.1574 33.6506 27.7124 33.9752 28.3935 33.9752H28.6483V34.4873H21.0876ZM13.3277 7.02984L9.39723 17.7568H17.2581L13.3277 7.02984Z" fill="black"/>
<path opacity="0.92" d="M42.0791 1.12737V0.615234H49.3295C53.1086 0.615234 55.9769 1.34287 57.9346 2.79814C59.8897 4.25087 60.8685 6.31208 60.8685 8.98177C60.8685 10.4168 60.528 11.6996 59.8468 12.8304C59.1657 13.9586 58.2726 14.9068 57.1677 15.6775C56.0602 16.4457 54.8165 17.0365 53.4365 17.4497C52.0591 17.8579 50.6867 18.0633 49.327 18.0633H47.3844V31.1505C47.3844 31.4244 47.4198 31.7261 47.4904 32.0506C47.556 32.3751 47.667 32.6743 47.8209 32.9455C47.9748 33.2194 48.1438 33.4602 48.3305 33.6656C48.5172 33.8709 48.7467 33.9724 49.0217 33.9724H49.2765V34.4845H42.0791V33.9724H42.3339C42.571 33.9724 42.7905 33.8709 42.9949 33.6656C43.1992 33.4602 43.3682 33.2219 43.5045 32.9455C43.6407 32.6743 43.7441 32.3751 43.8097 32.0506C43.8803 31.7261 43.9157 31.4244 43.9157 31.1505V3.79959C43.9157 3.32042 43.7794 2.77025 43.5045 2.15417C43.2345 1.54063 42.8435 1.19836 42.3339 1.12737H42.0791ZM48.1034 2.41024H47.387V16.2657H48.9183C50.2806 16.2657 51.499 16.0781 52.5737 15.7029C53.6459 15.3277 54.539 14.8307 55.2529 14.2147C55.9668 13.6011 56.5117 12.8988 56.8902 12.1103C57.2635 11.3219 57.4502 10.5182 57.4502 9.69926C57.4502 8.70542 57.2887 7.77496 56.9633 6.90281C56.6404 6.03066 56.1131 5.25993 55.3815 4.59314C54.6474 3.92635 53.6837 3.39647 52.493 3.0035C51.3023 2.60799 49.8391 2.41024 48.1034 2.41024Z" fill="black"/>
<path opacity="0.92" d="M75.6299 34.4868V33.9747H75.8847C76.1546 33.9747 76.3943 33.8809 76.6011 33.6933C76.8055 33.5057 76.9821 33.275 77.136 32.9986C77.2898 32.7273 77.4084 32.4358 77.4917 32.129C77.5774 31.8197 77.6229 31.5307 77.6229 31.2594V3.80194C77.6229 3.56108 77.58 3.28473 77.4917 2.97796C77.4084 2.67372 77.2898 2.38216 77.136 2.10834C76.9821 1.83453 76.803 1.60128 76.6011 1.41367C76.3943 1.22606 76.1546 1.13225 75.8847 1.13225H75.6299V0.620117H95.2897V5.39411H94.7801C94.7094 4.60563 94.4016 3.91349 93.8593 3.31516C93.3143 2.71429 92.4642 2.41512 91.3062 2.41512H81.0412V15.401H89.5176C90.3022 15.401 90.9581 15.1601 91.4854 14.681C92.0126 14.2018 92.2775 13.6364 92.2775 12.9848H92.7871V19.3992H92.2775C92.2775 18.7856 92.0227 18.2558 91.5106 17.8095C91.001 17.3659 90.335 17.1453 89.5176 17.1453H81.0412V32.6918H92.227C92.8754 32.6918 93.4354 32.5372 93.9097 32.2279C94.3865 31.9236 94.7876 31.556 95.1105 31.125C95.4335 30.6991 95.6731 30.2376 95.827 29.7407C95.9809 29.2438 96.0566 28.8255 96.0566 28.4832H96.5662V34.4868H75.6299Z" fill="black"/>
<path opacity="0.92" d="M117.76 33.9723H118.014V34.4844H110.814V33.9723H111.069C111.306 33.9723 111.526 33.8708 111.73 33.6655C111.935 33.4601 112.111 33.2218 112.265 32.9454C112.419 32.6742 112.53 32.375 112.601 32.0505C112.666 31.726 112.701 31.4243 112.701 31.1504V3.79949C112.701 3.55864 112.669 3.28229 112.601 2.97552C112.53 2.67128 112.419 2.37972 112.265 2.1059C112.111 1.83209 111.932 1.59884 111.73 1.41123C111.528 1.22361 111.306 1.12981 111.069 1.12981H110.814V0.617676H119.697C123.103 0.617676 125.731 1.28446 127.588 2.62057C129.445 3.95668 130.371 5.92408 130.371 8.52278C130.371 9.8234 130.159 10.9618 129.735 11.9353C129.309 12.9114 128.736 13.7506 128.022 14.4503C127.308 15.1526 126.466 15.7155 125.494 16.1465C124.523 16.5724 123.494 16.8868 122.406 17.0921L126.08 22.7332C126.968 24.1023 127.871 25.446 128.789 26.7644C129.707 28.0827 130.61 29.4416 131.498 30.8437C131.736 31.1859 131.998 31.546 132.291 31.9212C132.578 32.2964 132.883 32.6387 133.206 32.948C133.529 33.2573 133.87 33.5058 134.228 33.6934C134.586 33.881 134.952 33.9748 135.331 33.9748V34.4869H133.133C131.771 34.4869 130.656 34.1523 129.788 33.4855C128.92 32.8187 128.196 32.0403 127.616 31.1504C126.085 28.894 124.561 26.5996 123.05 24.2721C121.534 21.9473 120.028 19.6553 118.529 17.3989C118.156 17.3609 117.755 17.3178 117.328 17.2671C116.904 17.2164 116.503 17.1555 116.127 17.0871V31.1504C116.127 31.4243 116.163 31.726 116.233 32.0505C116.299 32.375 116.41 32.6742 116.564 32.9454C116.718 33.2193 116.887 33.4601 117.073 33.6655C117.255 33.8708 117.485 33.9723 117.76 33.9723ZM116.889 2.35943H116.122V15.396H116.377C116.65 15.429 117.086 15.4543 117.684 15.4721C118.279 15.4898 119.018 15.4974 119.901 15.4974C120.615 15.4974 121.372 15.3859 122.174 15.1653C122.977 14.9447 123.726 14.567 124.422 14.0371C125.121 13.5047 125.699 12.81 126.16 11.9531C126.617 11.0987 126.847 10.0212 126.847 8.72307C126.847 7.42246 126.602 6.36016 126.11 5.53872C125.615 4.71981 124.934 4.07077 124.066 3.5916C123.196 3.11242 122.147 2.78537 120.923 2.6155C119.7 2.44563 118.352 2.35943 116.889 2.35943Z" fill="black"/>
<path opacity="0.92" d="M149.011 1.12737V0.615234H156.314V1.12737H156.059C155.822 1.12737 155.6 1.22118 155.393 1.40879C155.189 1.5964 155.02 1.81951 154.884 2.07811C154.75 2.33418 154.639 2.62321 154.553 2.94773C154.47 3.27225 154.427 3.5562 154.427 3.79705V31.148C154.427 31.4218 154.46 31.7235 154.528 32.048C154.596 32.3726 154.705 32.6717 154.858 32.943C155.012 33.2168 155.181 33.4577 155.368 33.663C155.555 33.8684 155.784 33.9698 156.059 33.9698H156.314V34.482H149.011V33.9698H149.266C149.538 33.9698 149.778 33.876 149.982 33.6884C150.186 33.5008 150.363 33.2599 150.517 32.9684C150.671 32.6793 150.782 32.3726 150.852 32.048C150.918 31.7235 150.953 31.4218 150.953 31.148V3.79705C150.953 3.5562 150.92 3.27985 150.852 2.97308C150.782 2.66884 150.671 2.37728 150.517 2.10347C150.363 1.82965 150.184 1.5964 149.982 1.40879C149.778 1.22118 149.541 1.12737 149.266 1.12737H149.011Z" fill="black"/>
<path opacity="0.92" d="M188.843 0.100586C191.5 0.100586 193.884 0.572155 195.993 1.51529C198.104 2.45336 199.9 3.72101 201.379 5.31319C202.859 6.90283 204.002 8.74854 204.802 10.8529C205.599 12.9572 205.998 15.1553 205.998 17.4497C205.998 20.0155 205.531 22.3759 204.595 24.5283C203.657 26.6859 202.373 28.5341 200.74 30.0731C199.106 31.612 197.208 32.8188 195.049 33.691C192.887 34.5631 190.579 34.9992 188.124 34.9992C185.503 34.9992 183.147 34.52 181.055 33.5642C178.959 32.6058 177.188 31.3382 175.742 29.7663C174.294 28.1919 173.179 26.3791 172.397 24.328C171.613 22.2744 171.222 20.1372 171.222 17.9137C171.222 15.7232 171.613 13.558 172.397 11.4182C173.179 9.28096 174.327 7.3744 175.841 5.69856C177.357 4.02018 179.204 2.66886 181.383 1.64206C183.568 0.61272 186.053 0.100586 188.843 0.100586ZM188.793 33.2016C191.073 33.1002 193.074 32.5805 194.794 31.6374C196.512 30.6993 197.95 29.5001 199.106 28.0448C200.264 26.5921 201.124 24.9923 201.689 23.2455C202.249 21.5012 202.529 19.7746 202.529 18.0633C202.529 16.1821 202.188 14.2831 201.507 12.3664C200.826 10.4523 199.855 8.71558 198.593 7.1589C197.335 5.60222 195.831 4.33709 194.078 3.361C192.322 2.3849 190.357 1.89559 188.18 1.89559C186.068 1.89559 184.176 2.36716 182.506 3.31029C180.841 4.24836 179.421 5.45517 178.245 6.92819C177.069 8.39613 176.176 10.039 175.561 11.8543C174.95 13.6696 174.645 15.4494 174.645 17.1937C174.645 19.0749 175.003 20.9662 175.717 22.8652C176.431 24.7641 177.418 26.4831 178.676 28.022C179.938 29.5609 181.429 30.8108 183.147 31.7692C184.87 32.725 186.749 33.2016 188.793 33.2016Z" fill="black"/>
</svg>
