<svg width="208" height="77" viewBox="0 0 208 77" fill="none" xmlns="http://www.w3.org/2000/svg">
<g clip-path="url(#clip0_342_2053)">
<path opacity="0.92" d="M23.0876 76.4873V75.9751H23.3424C24.1598 75.9751 24.5685 75.5999 24.5685 74.8469C24.5685 74.5731 24.518 74.279 24.4171 73.9722L19.8207 61.5036H10.8851L6.44004 73.7694C6.33913 74.0407 6.28867 74.2968 6.28867 74.5401C6.28867 74.9838 6.40724 75.3337 6.64438 75.5923C6.88152 75.8484 7.13631 75.9751 7.41129 75.9751H7.66609V76.4873H2V75.9751H2.2548C2.69628 75.9751 3.13019 75.7089 3.55653 75.179C3.98036 74.6492 4.3285 74.0255 4.60348 73.308L16.2989 42.0019L27.7396 73.0012C27.9767 73.6857 28.3072 74.3525 28.731 74.999C29.1574 75.6506 29.7124 75.9751 30.3935 75.9751H30.6483V76.4873H23.0876ZM15.3277 49.0298L11.3972 59.7567H19.2581L15.3277 49.0298Z" fill="black"/>
<path opacity="0.92" d="M44.0791 43.1274V42.6152H51.3295C55.1086 42.6152 57.9769 43.3429 59.9346 44.7982C61.8897 46.2509 62.8685 48.3121 62.8685 50.9818C62.8685 52.4168 62.528 53.6996 61.8468 54.8304C61.1657 55.9586 60.2726 56.9068 59.1677 57.6775C58.0602 58.4457 56.8165 59.0365 55.4365 59.4497C54.0591 59.8579 52.6867 60.0633 51.327 60.0633H49.3844V73.1506C49.3844 73.4244 49.4198 73.7261 49.4904 74.0506C49.556 74.3751 49.667 74.6743 49.8209 74.9456C49.9748 75.2194 50.1438 75.4602 50.3305 75.6656C50.5172 75.871 50.7467 75.9724 51.0217 75.9724H51.2765V76.4845H44.0791V75.9724H44.3339C44.571 75.9724 44.7905 75.871 44.9949 75.6656C45.1992 75.4602 45.3682 75.2219 45.5045 74.9456C45.6407 74.6743 45.7441 74.3751 45.8097 74.0506C45.8803 73.7261 45.9157 73.4244 45.9157 73.1506V45.7996C45.9157 45.3204 45.7794 44.7703 45.5045 44.1542C45.2345 43.5406 44.8435 43.1984 44.3339 43.1274H44.0791ZM50.1034 44.4102H49.387V58.2657H50.9183C52.2806 58.2657 53.499 58.0781 54.5737 57.7029C55.6459 57.3277 56.539 56.8307 57.2529 56.2147C57.9668 55.6011 58.5117 54.8988 58.8902 54.1104C59.2635 53.3219 59.4502 52.5182 59.4502 51.6993C59.4502 50.7054 59.2887 49.775 58.9633 48.9028C58.6404 48.0307 58.1131 47.2599 57.3815 46.5932C56.6474 45.9264 55.6837 45.3965 54.493 45.0035C53.3023 44.608 51.8391 44.4102 50.1034 44.4102Z" fill="black"/>
<path opacity="0.92" d="M77.6299 76.487V75.9749H77.8847C78.1546 75.9749 78.3943 75.8811 78.6011 75.6935C78.8055 75.5059 78.9821 75.2751 79.136 74.9988C79.2898 74.7275 79.4084 74.436 79.4917 74.1292C79.5774 73.8199 79.6229 73.5309 79.6229 73.2596V45.8021C79.6229 45.5613 79.58 45.2849 79.4917 44.9782C79.4084 44.6739 79.2898 44.3824 79.136 44.1085C78.9821 43.8347 78.803 43.6015 78.6011 43.4139C78.3943 43.2263 78.1546 43.1324 77.8847 43.1324H77.6299V42.6203H97.2897V47.3943H96.7801C96.7094 46.6058 96.4016 45.9137 95.8593 45.3154C95.3143 44.7145 94.4642 44.4153 93.3062 44.4153H83.0412V57.4012H91.5176C92.3022 57.4012 92.9581 57.1603 93.4854 56.6812C94.0126 56.202 94.2775 55.6366 94.2775 54.985H94.7871V61.3994H94.2775C94.2775 60.7858 94.0227 60.256 93.5106 59.8097C93.001 59.3661 92.335 59.1455 91.5176 59.1455H83.0412V74.692H94.227C94.8754 74.692 95.4354 74.5374 95.9097 74.2281C96.3865 73.9238 96.7876 73.5562 97.1105 73.1252C97.4335 72.6993 97.6731 72.2378 97.827 71.7409C97.9809 71.244 98.0566 70.8257 98.0566 70.4834H98.5662V76.487H77.6299Z" fill="black"/>
<path opacity="0.92" d="M119.76 75.9724H120.014V76.4845H112.814V75.9724H113.069C113.306 75.9724 113.526 75.8709 113.73 75.6656C113.935 75.4602 114.111 75.2219 114.265 74.9456C114.419 74.6743 114.53 74.3751 114.601 74.0506C114.666 73.7261 114.701 73.4244 114.701 73.1506V45.7996C114.701 45.5587 114.669 45.2824 114.601 44.9756C114.53 44.6714 114.419 44.3798 114.265 44.106C114.111 43.8322 113.932 43.5989 113.73 43.4113C113.528 43.2237 113.306 43.1299 113.069 43.1299H112.814V42.6178H121.697C125.103 42.6178 127.731 43.2846 129.588 44.6207C131.445 45.9568 132.371 47.9242 132.371 50.5229C132.371 51.8235 132.159 52.9619 131.735 53.9354C131.309 54.9115 130.736 55.7507 130.022 56.4504C129.308 57.1527 128.466 57.7156 127.494 58.1466C126.523 58.5725 125.494 58.8869 124.406 59.0922L128.08 64.7333C128.968 66.1024 129.871 67.4461 130.789 68.7645C131.707 70.0828 132.61 71.4418 133.498 72.8438C133.736 73.186 133.998 73.5461 134.291 73.9213C134.578 74.2965 134.883 74.6388 135.206 74.9481C135.529 75.2574 135.87 75.5059 136.228 75.6935C136.586 75.8811 136.952 75.9749 137.331 75.9749V76.487H135.133C133.771 76.487 132.656 76.1524 131.788 75.4856C130.92 74.8188 130.196 74.0404 129.616 73.1506C128.085 70.8941 126.561 68.5997 125.05 66.2723C123.534 63.9474 122.028 61.6554 120.529 59.399C120.156 59.361 119.755 59.3179 119.328 59.2672C118.904 59.2165 118.503 59.1556 118.127 59.0872V73.1506C118.127 73.4244 118.163 73.7261 118.233 74.0506C118.299 74.3751 118.41 74.6743 118.564 74.9456C118.718 75.2194 118.887 75.4602 119.073 75.6656C119.255 75.8709 119.485 75.9724 119.76 75.9724ZM118.889 44.3595H118.122V57.3961H118.377C118.65 57.4291 119.086 57.4544 119.684 57.4722C120.279 57.4899 121.018 57.4975 121.901 57.4975C122.615 57.4975 123.372 57.386 124.174 57.1654C124.977 56.9448 125.726 56.5671 126.422 56.0372C127.121 55.5048 127.699 54.8101 128.16 53.9532C128.617 53.0988 128.847 52.0213 128.847 50.7232C128.847 49.4226 128.602 48.3603 128.11 47.5388C127.615 46.7199 126.934 46.0709 126.066 45.5917C125.196 45.1125 124.147 44.7855 122.923 44.6156C121.7 44.4457 120.352 44.3595 118.889 44.3595Z" fill="black"/>
<path opacity="0.92" d="M151.011 43.1274V42.6152H158.314V43.1274H158.059C157.822 43.1274 157.6 43.2212 157.393 43.4088C157.189 43.5964 157.02 43.8195 156.884 44.0781C156.75 44.3342 156.639 44.6232 156.553 44.9477C156.47 45.2723 156.427 45.5562 156.427 45.7971V73.148C156.427 73.4218 156.46 73.7235 156.528 74.0481C156.596 74.3726 156.705 74.6717 156.858 74.943C157.012 75.2168 157.181 75.4577 157.368 75.6631C157.555 75.8684 157.784 75.9698 158.059 75.9698H158.314V76.482H151.011V75.9698H151.266C151.538 75.9698 151.778 75.876 151.982 75.6884C152.186 75.5008 152.363 75.2599 152.517 74.9684C152.671 74.6794 152.782 74.3726 152.852 74.0481C152.918 73.7235 152.953 73.4218 152.953 73.148V45.7971C152.953 45.5562 152.92 45.2799 152.852 44.9731C152.782 44.6689 152.671 44.3773 152.517 44.1035C152.363 43.8297 152.184 43.5964 151.982 43.4088C151.778 43.2212 151.541 43.1274 151.266 43.1274H151.011Z" fill="black"/>
<path opacity="0.92" d="M190.843 42.1006C193.5 42.1006 195.884 42.5721 197.993 43.5153C200.104 44.4533 201.9 45.721 203.379 47.3132C204.859 48.9028 206.002 50.7485 206.802 52.8528C207.599 54.9571 207.998 57.1553 207.998 59.4497C207.998 62.0155 207.531 64.3758 206.595 66.5283C205.657 68.6859 204.373 70.5341 202.74 72.073C201.106 73.612 199.208 74.8188 197.049 75.6909C194.887 76.5631 192.579 76.9992 190.124 76.9992C187.503 76.9992 185.147 76.52 183.055 75.5642C180.959 74.6058 179.188 73.3382 177.742 71.7663C176.294 70.1918 175.179 68.3791 174.397 66.328C173.613 64.2744 173.222 62.1372 173.222 59.9137C173.222 57.7232 173.613 55.558 174.397 53.4182C175.179 51.2809 176.327 49.3744 177.841 47.6985C179.357 46.0202 181.204 44.6688 183.383 43.642C185.568 42.6127 188.053 42.1006 190.843 42.1006ZM190.793 75.2016C193.073 75.1002 195.074 74.5805 196.794 73.6373C198.512 72.6993 199.95 71.5001 201.106 70.0448C202.264 68.5921 203.124 66.9923 203.689 65.2454C204.249 63.5011 204.529 61.7746 204.529 60.0633C204.529 58.1821 204.188 56.2831 203.507 54.3664C202.826 52.4523 201.855 50.7156 200.593 49.1589C199.335 47.6022 197.831 46.3371 196.078 45.361C194.322 44.3849 192.357 43.8956 190.18 43.8956C188.068 43.8956 186.176 44.3671 184.506 45.3103C182.841 46.2483 181.421 47.4552 180.245 48.9282C179.069 50.3961 178.176 52.039 177.561 53.8543C176.95 55.6696 176.645 57.4494 176.645 59.1936C176.645 61.0749 177.003 62.9662 177.717 64.8651C178.431 66.7641 179.418 68.483 180.676 70.022C181.938 71.5609 183.429 72.8108 185.147 73.7692C186.87 74.725 188.749 75.2016 190.793 75.2016Z" fill="black"/>
</g>
<path d="M2.268 4.4H11.25V5.21H3.186V9.746H7.452C8.928 9.746 10.05 10.046 10.818 10.646C11.586 11.246 11.97 12.128 11.97 13.292C11.97 14.492 11.562 15.41 10.746 16.046C9.93 16.682 8.748 17 7.2 17H2.268V4.4ZM7.218 16.226C8.478 16.226 9.432 15.986 10.08 15.506C10.728 15.014 11.052 14.288 11.052 13.328C11.052 11.444 9.774 10.502 7.218 10.502H3.186V16.226H7.218ZM24.4638 4.4V17H23.5458V5.228H17.0298L16.8678 9.854C16.7958 11.582 16.6458 12.974 16.4178 14.03C16.2018 15.074 15.8778 15.848 15.4458 16.352C15.0138 16.856 14.4438 17.108 13.7358 17.108C13.4118 17.108 13.1118 17.072 12.8358 17L12.9438 16.154C13.1478 16.202 13.3458 16.226 13.5378 16.226C14.0898 16.226 14.5338 16.016 14.8698 15.596C15.2178 15.164 15.4818 14.486 15.6618 13.562C15.8418 12.638 15.9618 11.408 16.0218 9.872L16.2018 4.4H24.4638ZM36.9783 13.454H29.6703L28.0683 17H27.0783L32.8743 4.4H33.7923L39.5883 17H38.5983L36.9783 13.454ZM36.6363 12.68L33.3243 5.408L30.0303 12.68H36.6363ZM49.9995 5.228H43.1235V17H42.2055V4.4H49.9995V5.228ZM56.0254 17.09C54.7894 17.09 53.6734 16.814 52.6774 16.262C51.6814 15.698 50.8954 14.93 50.3194 13.958C49.7554 12.986 49.4734 11.9 49.4734 10.7C49.4734 9.5 49.7554 8.414 50.3194 7.442C50.8954 6.47 51.6814 5.708 52.6774 5.156C53.6734 4.592 54.7894 4.31 56.0254 4.31C57.2614 4.31 58.3774 4.586 59.3734 5.138C60.3694 5.69 61.1494 6.452 61.7134 7.424C62.2894 8.396 62.5774 9.488 62.5774 10.7C62.5774 11.912 62.2894 13.004 61.7134 13.976C61.1494 14.948 60.3694 15.71 59.3734 16.262C58.3774 16.814 57.2614 17.09 56.0254 17.09ZM56.0254 16.244C57.0814 16.244 58.0354 16.004 58.8874 15.524C59.7394 15.044 60.4114 14.384 60.9034 13.544C61.3954 12.692 61.6414 11.744 61.6414 10.7C61.6414 9.656 61.3954 8.714 60.9034 7.874C60.4114 7.022 59.7394 6.356 58.8874 5.876C58.0354 5.396 57.0814 5.156 56.0254 5.156C54.9694 5.156 54.0094 5.396 53.1454 5.876C52.2934 6.356 51.6214 7.022 51.1294 7.874C50.6374 8.714 50.3914 9.656 50.3914 10.7C50.3914 11.744 50.6374 12.692 51.1294 13.544C51.6214 14.384 52.2934 15.044 53.1454 15.524C54.0094 16.004 54.9694 16.244 56.0254 16.244ZM76.8336 16.172V19.88H75.9516V17H64.4316L64.4136 19.88H63.5316L63.5496 16.172H64.2336C65.0616 16.1 65.6376 15.404 65.9616 14.084C66.2976 12.764 66.5016 10.916 66.5736 8.54L66.6996 4.4H74.8896V16.172H76.8336ZM67.4196 8.612C67.3476 10.652 67.1856 12.32 66.9336 13.616C66.6936 14.912 66.2796 15.764 65.6916 16.172H73.9716V5.228H67.5276L67.4196 8.612ZM79.698 4.4H80.616V17H79.698V4.4ZM85.0785 4.4H85.9965V15.452L94.5825 4.4H95.3925V17H94.4745V5.966L85.8885 17H85.0785V4.4ZM90.1905 3.446C89.3505 3.446 88.6725 3.254 88.1565 2.87C87.6525 2.474 87.3945 1.934 87.3825 1.25H88.1205C88.1325 1.754 88.3245 2.15 88.6965 2.438C89.0805 2.726 89.5785 2.87 90.1905 2.87C90.7905 2.87 91.2765 2.726 91.6485 2.438C92.0325 2.15 92.2305 1.754 92.2425 1.25H92.9805C92.9685 1.934 92.7045 2.474 92.1885 2.87C91.6845 3.254 91.0185 3.446 90.1905 3.446ZM110.192 4.4V17H109.274V11.006H100.85V17H99.9321V4.4H100.85V10.196H109.274V4.4H110.192ZM114.733 4.4H115.651V15.452L124.237 4.4H125.047V17H124.129V5.966L115.543 17H114.733V4.4ZM129.586 4.4H130.504V15.452L139.09 4.4H139.9V17H138.982V5.966L130.396 17H129.586V4.4ZM134.698 3.446C133.858 3.446 133.18 3.254 132.664 2.87C132.16 2.474 131.902 1.934 131.89 1.25H132.628C132.64 1.754 132.832 2.15 133.204 2.438C133.588 2.726 134.086 2.87 134.698 2.87C135.298 2.87 135.784 2.726 136.156 2.438C136.54 2.15 136.738 1.754 136.75 1.25H137.488C137.476 1.934 137.212 2.474 136.696 2.87C136.192 3.254 135.526 3.446 134.698 3.446ZM162.185 10.7C162.185 11.804 161.915 12.758 161.375 13.562C160.835 14.366 160.055 14.99 159.035 15.434C158.027 15.866 156.821 16.094 155.417 16.118V17.396H154.535V16.118C153.131 16.094 151.919 15.866 150.899 15.434C149.891 14.99 149.117 14.366 148.577 13.562C148.037 12.758 147.767 11.804 147.767 10.7C147.767 9.584 148.037 8.624 148.577 7.82C149.117 7.016 149.891 6.398 150.899 5.966C151.919 5.522 153.131 5.288 154.535 5.264V4.004H155.417V5.264C157.541 5.324 159.197 5.828 160.385 6.776C161.585 7.724 162.185 9.032 162.185 10.7ZM155.417 15.362C157.265 15.302 158.705 14.87 159.737 14.066C160.769 13.25 161.285 12.122 161.285 10.682C161.285 9.254 160.769 8.138 159.737 7.334C158.705 6.518 157.265 6.08 155.417 6.02V15.362ZM148.667 10.7C148.667 12.14 149.183 13.262 150.215 14.066C151.247 14.87 152.687 15.302 154.535 15.362V6.02C152.675 6.08 151.229 6.518 150.197 7.334C149.177 8.138 148.667 9.26 148.667 10.7ZM170.828 17.09C169.592 17.09 168.476 16.814 167.48 16.262C166.484 15.698 165.698 14.93 165.122 13.958C164.558 12.986 164.276 11.9 164.276 10.7C164.276 9.5 164.558 8.414 165.122 7.442C165.698 6.47 166.484 5.708 167.48 5.156C168.476 4.592 169.592 4.31 170.828 4.31C172.064 4.31 173.18 4.586 174.176 5.138C175.172 5.69 175.952 6.452 176.516 7.424C177.092 8.396 177.38 9.488 177.38 10.7C177.38 11.912 177.092 13.004 176.516 13.976C175.952 14.948 175.172 15.71 174.176 16.262C173.18 16.814 172.064 17.09 170.828 17.09ZM170.828 16.244C171.884 16.244 172.838 16.004 173.69 15.524C174.542 15.044 175.214 14.384 175.706 13.544C176.198 12.692 176.444 11.744 176.444 10.7C176.444 9.656 176.198 8.714 175.706 7.874C175.214 7.022 174.542 6.356 173.69 5.876C172.838 5.396 171.884 5.156 170.828 5.156C169.772 5.156 168.812 5.396 167.948 5.876C167.096 6.356 166.424 7.022 165.932 7.874C165.44 8.714 165.194 9.656 165.194 10.7C165.194 11.744 165.44 12.692 165.932 13.544C166.424 14.384 167.096 15.044 167.948 15.524C168.812 16.004 169.772 16.244 170.828 16.244ZM191.034 4.4V17H190.116V11.006H181.692V17H180.774V4.4H181.692V10.196H190.116V4.4H191.034ZM206.56 16.172V19.88H205.678V17H194.158L194.14 19.88H193.258L193.276 16.172H193.96C194.788 16.1 195.364 15.404 195.688 14.084C196.024 12.764 196.228 10.916 196.3 8.54L196.426 4.4H204.616V16.172H206.56ZM197.146 8.612C197.074 10.652 196.912 12.32 196.66 13.616C196.42 14.912 196.006 15.764 195.418 16.172H203.698V5.228H197.254L197.146 8.612Z" fill="#808080"/>
<defs>
<clipPath id="clip0_342_2053">
<rect width="206" height="35" fill="white" transform="translate(2 42)"/>
</clipPath>
</defs>
</svg>
