<svg width="92" height="107" viewBox="0 0 92 107" fill="none" xmlns="http://www.w3.org/2000/svg">
<path d="M35.1545 14.324C35.1545 19.9191 30.6201 24.4535 25.025 24.4535C19.4299 24.4535 14.8955 19.9191 14.8955 14.324C14.8955 8.72883 19.433 4.19446 25.025 4.19446C30.6201 4.19446 35.1545 8.72883 35.1545 14.324Z" fill="#FE6A00"/>
<path d="M36.9433 64.7941H13.103V37.4232L15.8705 27.0974H34.1157L36.9433 37.7209V64.7941Z" fill="#FE6A00"/>
<path d="M23.5999 101.231C23.5999 101.231 24.3757 105.385 18.1378 105.442C11.8998 105.499 12.5965 101.332 12.5965 101.332L13.1094 62.0013L24.2775 63.8157L23.5999 101.231Z" fill="#FE6A00"/>
<path d="M26.1587 101.832C26.1587 101.832 25.3544 105.99 31.662 106.021C37.9728 106.056 37.2825 101.892 37.2825 101.892L36.9437 62.5618L25.6426 64.4173L26.1587 101.832Z" fill="#FE6A00"/>
<path d="M41.3417 57.2865C41.3417 57.2865 42.0099 60.7665 45.7368 59.5316C49.4605 58.2935 47.9153 55.1048 47.9153 55.1048C47.9153 55.1048 40.9744 32.661 40.0308 30.378C38.4571 26.5751 33.8657 27.0975 33.8657 27.0975V33.9212L41.3417 57.2865Z" fill="#FE6A00"/>
<path d="M8.5025 57.2865C8.5025 57.2865 7.83754 60.7665 4.11062 59.5316C0.386866 58.2935 1.9321 55.1048 1.9321 55.1048C1.9321 55.1048 9.0788 32.661 10.0224 30.378C11.5961 26.5751 16.1907 27.0975 16.1907 27.0975V33.9212L8.5025 57.2865Z" fill="#FE6A00"/>
<path d="M38.3433 52.4544C38.3433 61.4471 32.3808 63.2742 25.022 63.2742C17.6663 63.2742 11.7007 61.4471 11.7007 52.4544C11.7007 43.4617 17.6631 30.7072 25.022 30.7072C32.3808 30.7072 38.3433 43.4585 38.3433 52.4544Z" fill="#FE6A00"/>
<path d="M9.35103 61.1338C9.35103 61.1338 9.36369 56.3588 4.80399 56.3588C-0.306674 56.3588 0.00363877 63.9076 0.00363877 63.9076V106.025H2.61913V63.9076C2.61913 63.9076 2.24549 58.5911 4.89582 58.5626C7.76146 58.531 7.07751 62.8025 7.07751 62.8025C7.07751 62.8025 6.89069 64.1894 8.2301 64.1894C9.56951 64.1894 9.35103 62.8025 9.35103 62.8025V61.1338Z" fill="#FE6A00"/>
<path d="M33.8748 9.43488C33.194 7.91181 32.9977 3.39961 31.3955 2.09503C29.7933 0.790444 26.9561 2.07919 24.157 2.21535C21.3546 2.34834 18.5523 0.967766 17.1528 2.15202C15.75 3.33944 15.3542 8.34245 15.5315 9.52037C13.5082 9.86235 12.8179 10.9104 12.8179 11.4107C12.8179 12.481 17.9602 12.7565 24.9771 12.7565C31.9939 12.7565 37.2249 11.8287 37.2249 10.7585C37.2249 10.217 36.2243 9.78635 33.8748 9.43488Z" fill="#FE6A00"/>
<path d="M73.3139 21.4876C77.2697 17.5319 77.2697 11.1183 73.3139 7.1625C69.3581 3.20673 62.9445 3.20672 58.9887 7.1625C55.033 11.1183 55.033 17.5319 58.9887 21.4876C62.9445 25.4434 69.3581 25.4434 73.3139 21.4876Z" fill="#FE6A00"/>
<path d="M61.2207 5.08753C61.2207 7.81068 63.4277 10.0177 66.1509 10.0177C68.8709 10.0177 71.0811 7.81068 71.0811 5.08753C71.0811 2.36437 68.8709 0.157349 66.1509 0.157349C63.4277 0.157349 61.2207 2.36437 61.2207 5.08753Z" fill="#FE6A00"/>
<path d="M54.229 64.7942H78.0724V37.4234L75.305 27.0975H57.0567L54.229 37.721V64.7942Z" fill="#FE6A00"/>
<path d="M67.5726 101.231C67.5726 101.231 66.7969 105.385 73.0348 105.442C79.2727 105.499 78.5729 101.332 78.5729 101.332L78.0631 61.9982L66.895 63.8125L67.5726 101.231Z" fill="#FE6A00"/>
<path d="M65.0176 101.832C65.0176 101.832 65.8219 105.99 59.5143 106.022C53.2035 106.056 53.8938 101.892 53.8938 101.892L54.2358 62.5619L65.5369 64.4174L65.0176 101.832Z" fill="#FE6A00"/>
<path d="M49.8307 57.2867C49.8307 57.2867 49.1658 60.7666 45.4388 59.5285C41.7119 58.2904 43.2603 55.105 43.2603 55.105C43.2603 55.105 50.2012 32.6611 51.1448 30.3781C52.7154 26.5752 57.3131 27.0976 57.3131 27.0976V33.9182L49.8307 57.2867Z" fill="#FE6A00"/>
<path d="M82.6701 57.2867C82.6701 57.2867 83.3382 60.7666 87.062 59.5285C90.7857 58.2904 89.2405 55.105 89.2405 55.105C89.2405 55.105 82.0938 32.6611 81.1502 30.3781C79.5765 26.5752 74.9819 27.0976 74.9819 27.0976V33.9182L82.6701 57.2867Z" fill="#FE6A00"/>
<path d="M52.833 52.4513C52.833 61.4441 58.7954 63.2711 66.1543 63.2711C73.51 63.2711 79.4724 61.4441 79.4724 52.4513C79.4724 43.4586 73.51 30.7073 66.1543 30.7073C58.7954 30.7073 52.833 43.4586 52.833 52.4513Z" fill="#FE6A00"/>
<path d="M81.8218 61.1338C81.8218 61.1338 81.8092 56.3588 86.3689 56.3588C91.4795 56.3588 91.1692 63.9076 91.1692 63.9076V106.025H88.5537V63.9076C88.5537 63.9076 88.9274 58.5911 86.277 58.5626C83.4114 58.531 84.0953 62.7993 84.0953 62.7993C84.0953 62.7993 84.2822 64.1863 82.9427 64.1863C81.6033 64.1863 81.8218 62.7993 81.8218 62.7993V61.1338Z" fill="#FE6A00"/>
<path d="M53.3048 56.3588H78.5985L83.6395 81.1901L49.3657 81.1965L53.3048 56.3588Z" fill="#FE6A00"/>
</svg>
