<svg width="112" height="98" viewBox="0 0 112 98" fill="none" xmlns="http://www.w3.org/2000/svg">
<g clip-path="url(#clip0_238_2503)">
<path d="M25.0875 21.6313C19.2039 20.199 15.5947 14.2654 17.0261 8.37827C18.4575 2.49109 24.3875 -1.12032 30.2711 0.311937C36.1547 1.7442 39.7639 7.67777 38.3325 13.5649C36.9011 19.4521 30.9712 23.0635 25.0875 21.6313Z" fill="#FF7A00"/>
<path d="M-2.98769 54.5069C-5.86977 53.7282 -7.59092 50.732 -6.81261 47.8488L-1.11833 26.7468C-0.340683 23.863 2.65436 22.1408 5.53577 22.9196L6.65165 23.2208C8.36692 23.684 9.66496 24.9358 10.2761 26.4789C12.4909 24.7091 15.2887 23.6663 18.2929 23.6663H37.7309L40.6926 19.3596C41.5637 18.0928 42.9975 17.331 44.5339 17.3179L55.5372 17.2232C57.7102 17.2042 59.4862 18.9519 59.5051 21.1255L59.5202 22.9C59.526 23.6069 60.1039 24.1753 60.811 24.1694L61.1838 24.1661C61.5985 24.1622 62.0072 24.074 62.3866 23.9061L63.3862 23.4638C63.8367 23.2645 64.3258 23.1698 64.8181 23.1861L86.6609 23.9754C87.0141 23.9871 87.2955 24.2759 87.2988 24.63L87.3027 25.0887L101.45 25.0854C101.759 25.0828 102.057 24.9684 102.288 24.7639L103.43 23.7539C103.552 23.6461 103.709 23.586 103.872 23.5847L104.207 23.5821C104.403 23.5801 104.562 23.7369 104.563 23.9323L104.573 25.0593L104.795 25.0573C104.896 25.0566 104.977 25.137 104.978 25.2376L105 27.7889C105.001 27.8888 104.92 27.9712 104.82 27.9718L87.3275 28.0006L87.3315 28.4442C87.3347 28.7931 87.0664 29.0838 86.719 29.1086L74.2276 30.3682L74.2949 31.0719C74.4672 32.877 73.1444 34.4803 71.3403 34.6528L67.0179 35.0664C66.3721 35.1284 65.7766 35.442 65.36 35.9392L64.7672 36.6481L65.2543 37.0492C65.6356 37.3635 65.6721 37.9352 65.3333 38.2951L50.1146 54.4802C49.3023 55.3439 48.2132 55.8247 47.0928 55.8887C51.948 56.7609 55.7925 61.0024 55.7925 66.299V84.9222H51.2703V87.4049L53.5444 91.2171L62.1972 93.115C63.6278 93.4286 64.6771 94.6543 64.7672 96.1171C64.8299 97.1317 64.0241 97.9895 63.0082 97.9895H41.8346C40.8611 97.9895 40.0723 97.2003 40.0723 96.2262V92.35C40.0723 91.093 40.4308 89.8621 41.106 88.8024L41.9946 87.4062V84.9235H39.7622V72.9669L21.9024 76.5413V88.5495C21.9024 93.7697 17.6733 98.0013 12.4563 98.0013H12.2369C8.9944 98.0013 6.13452 96.366 4.43296 93.8748C4.13457 96.1955 2.15681 97.9895 -0.243393 97.9895H-0.353088C-2.95963 97.9895 -5.07319 95.8754 -5.07319 93.2666V85.7173C-5.07319 83.0563 -2.91718 80.8997 -0.258408 80.8997H2.79016V68.9456H1.51237C-1.89075 68.9456 -4.31316 65.6365 -3.28674 62.3901L-0.940735 54.9702C-1.25088 54.9427 -1.56299 54.8931 -1.87379 54.8094L-2.98769 54.5069ZM57.4882 21.2026C57.4784 20.0606 56.5454 19.1427 55.404 19.1525L45.2214 19.24C44.0918 19.2498 43.0334 19.7973 42.3727 20.7139L41.0439 22.557C40.7083 23.0222 41.0439 23.6709 41.6172 23.6663L56.8098 23.5357C57.1963 23.5324 57.5065 23.2162 57.5032 22.8301L57.4882 21.2026ZM45.7601 34.3791C45.3612 34.5711 44.8826 34.4248 44.6579 34.0432L43.3351 31.7951L43.2149 31.7964L43.2398 34.6463C43.245 35.2722 43.7569 35.7752 44.3817 35.77L44.8564 35.7661C46.7963 35.7491 48.4763 34.6502 49.3323 33.0482C49.6477 32.4583 49.1985 31.7455 48.5299 31.7513L45.7875 31.7749L46.2146 33.3945C46.3184 33.7891 46.1277 34.202 45.7601 34.3791ZM49.9108 42.6607L58.9834 33.3749C59.2864 33.0645 59.7741 33.0306 60.1169 33.2965L61.0833 34.0452L63.9033 31.1594L64.0072 31.1496C63.874 31.1091 63.7427 31.0614 63.6154 31.0046L63.0584 30.755C62.6595 30.5767 62.2266 30.4858 61.7898 30.4898L59.4705 30.51C58.6798 30.5165 58.0745 31.2293 58.209 32.0088C58.2097 32.0133 58.2104 32.0179 58.2117 32.0225C58.2463 32.2185 58.1816 32.4191 58.0432 32.5621L53.0769 37.6803C52.7087 38.0593 52.0675 37.928 51.8834 37.4327C51.4674 36.3142 51.1436 35.199 50.8968 34.1621C49.6888 36.2417 47.4473 37.6516 44.8741 37.6738L43.2665 37.6875L43.2672 37.7359L42.0664 39.7514L45.7836 42.8678C47 43.887 48.7995 43.7982 49.9108 42.6607ZM43.1523 55.9293C43.9861 55.7627 44.8133 55.6993 45.621 55.728C45.2639 55.6274 44.9145 55.4824 44.5822 55.289L35.2073 49.848L33.6644 57.8278L43.1523 55.9293Z" fill="#FF7A00"/>
</g>
<defs>
<clipPath id="clip0_238_2503">
<rect width="112" height="98" fill="white" transform="matrix(-1 0 0 1 112 0)"/>
</clipPath>
</defs>
</svg>
