<svg width="125" height="80" viewBox="0 0 125 80" fill="none" xmlns="http://www.w3.org/2000/svg">
<g clip-path="url(#clip0_238_2467)">
<path d="M58.2061 11.797C56.4353 10.073 53.7205 10.2111 52.1043 12.1238L40.9237 25.3612C38.0603 28.7501 34.035 30.6776 29.8174 30.6776C25.5997 30.6776 21.5732 28.7501 18.711 25.3612L7.53042 12.1238C5.91422 10.2099 3.19945 10.0718 1.42858 11.7958C-0.398321 13.5741 -0.470179 16.7163 1.18986 18.6821L14.8551 34.8606C15.9451 36.1506 16.5492 37.8426 16.5492 39.5987V52.5536H16.5699L16.4895 74.6122C16.4786 77.5842 18.8547 79.9988 21.79 79.9988H22.2576C25.1843 79.9988 27.5581 77.5965 27.5581 74.6319V55.0385C27.5581 53.666 28.6567 52.5536 30.0122 52.5536C31.3678 52.5536 32.4664 53.666 32.4664 55.0385V74.6331C32.4664 77.5965 34.8389 80.0001 37.7668 80.0001C40.6923 80.0001 43.0648 77.6002 43.0672 74.638L43.0855 52.5548H43.0879V39.5987C43.0879 37.8426 43.6932 36.1506 44.7821 34.8606L58.4448 18.6833C60.1049 16.7176 60.033 13.5753 58.2061 11.797Z" fill="#FE6A00"/>
<path d="M123.647 14.1167C121.865 12.3742 118.999 12.3988 117.246 14.1722C117.246 14.1722 102.528 29.0571 102.524 29.0608C98.936 32.0464 94.085 32.959 89.5664 31.108C87.9064 30.4284 86.4169 29.3839 85.1502 28.1026L71.3766 14.1722C69.624 12.4001 66.7582 12.3754 64.9764 14.1167C63.1946 15.858 63.1702 18.708 64.9228 20.4801L81.2735 37.0151C81.7595 37.5059 81.986 38.2002 81.8862 38.8871L78.0095 65.5468H84.1966V75.6197C84.1966 77.9381 85.9772 79.9125 88.2657 79.9951C90.6687 80.0815 92.6429 78.1354 92.6429 75.722V66.3829C92.6429 65.9204 93.0132 65.5455 93.4699 65.5455H94.3127H95.1555C95.6123 65.5455 95.9825 65.9204 95.9825 66.3829V75.6197C95.9825 77.9381 97.7631 79.9125 100.052 79.9951C102.455 80.0815 104.429 78.1354 104.429 75.722V65.5455H110.616L106.739 38.8858C106.639 38.1989 106.867 37.5046 107.352 37.0138L123.703 20.4789C125.453 18.708 125.43 15.858 123.647 14.1167Z" fill="#FE6A00"/>
<path d="M38.2889 24.4966C42.9676 19.7592 42.9676 12.0782 38.2889 7.34076C33.6101 2.6033 26.0244 2.6033 21.3456 7.34076C16.6669 12.0782 16.6669 19.7592 21.3456 24.4966C26.0244 29.2341 33.6101 29.2341 38.2889 24.4966Z" fill="#FE6A00"/>
<path d="M101.63 7.59908H105.206V0L96.8196 4.11524C96.5687 4.23857 96.2934 4.30269 96.0145 4.30269H95.777C95.6638 4.30269 95.5724 4.2102 95.5724 4.09551V3.73665C95.5724 3.63799 95.4981 3.5566 95.4019 3.54796L94.5079 3.46657L94.3082 3.45054L94.1085 3.46657L93.2181 3.54796C93.1219 3.5566 93.0476 3.63922 93.0476 3.73665V4.09551C93.0476 4.2102 92.9563 4.30269 92.843 4.30269H92.6055C92.3266 4.30269 92.0514 4.23857 91.8005 4.11524L83.4174 0V7.59908H86.9933C84.158 9.81764 82.3311 13.2928 82.3311 17.2009C82.3311 23.901 87.6948 29.3321 94.3118 29.3321C100.929 29.3321 106.293 23.901 106.293 17.2009C106.293 13.2928 104.466 9.81764 101.63 7.59908Z" fill="#FE6A00"/>
</g>
<defs>
<clipPath id="clip0_238_2467">
<rect width="125" height="80" fill="white"/>
</clipPath>
</defs>
</svg>
