<svg width="101" height="98" viewBox="0 0 101 98" fill="none" xmlns="http://www.w3.org/2000/svg">
<path d="M31.4443 20.0429C34.4308 17.0524 34.4308 12.2039 31.4443 9.21349C28.4577 6.22304 23.6155 6.22304 20.6289 9.21349C17.6423 12.2039 17.6423 17.0524 20.6289 20.0429C23.6155 23.0333 28.4577 23.0333 31.4443 20.0429Z" fill="#FE6A00"/>
<path d="M52.1665 16.4667C56.7078 16.4667 60.3892 12.7805 60.3892 8.23334C60.3892 3.68619 56.7078 0 52.1665 0C47.6253 0 43.9438 3.68619 43.9438 8.23334C43.9438 12.7805 47.6253 16.4667 52.1665 16.4667Z" fill="#FE6A00"/>
<path d="M54.7523 59.1068C57.3742 56.4815 57.3742 52.2251 54.7523 49.5998C52.1304 46.9745 47.8795 46.9745 45.2576 49.5998C42.6357 52.2251 42.6357 56.4815 45.2576 59.1068C47.8795 61.732 52.1304 61.732 54.7523 59.1068Z" fill="#FE6A00"/>
<path d="M83.8514 41.1765C86.4733 38.5512 86.4733 34.2948 83.8514 31.6695C81.2295 29.0442 76.9786 29.0442 74.3567 31.6695C71.7348 34.2948 71.7348 38.5512 74.3567 41.1765C76.9786 43.8017 81.2295 43.8017 83.8514 41.1765Z" fill="#FE6A00"/>
<path d="M42.8962 61.215L35.4402 58.1333C34.7816 57.8616 34.0236 58.0527 33.5732 58.6048C32.9998 59.3077 34.2105 61.4938 34.414 61.7757C36.5712 64.7752 39.6552 66.7749 43.2251 68.2486C44.0935 68.9278 44.6275 69.949 44.6898 71.0507L46.0725 95.5786C46.149 96.937 47.2714 97.9992 48.6304 97.9992C49.9665 97.9992 51.0787 96.9709 51.1844 95.637L52.0843 84.2873C52.1025 84.0606 52.291 83.8869 52.5173 83.8869C52.7461 83.8869 52.9362 84.0645 52.9512 84.2936L53.6965 95.577C53.7864 96.9401 54.9175 98 56.282 98C57.6963 98 58.8494 96.8643 58.8731 95.4475L59.3061 68.8125C59.3211 67.8932 59.6658 67.0103 60.2771 66.3248C63.2475 64.1174 66.0136 61.8397 67.2015 59.0226C67.3087 58.7675 68.1006 56.3863 67.3955 55.6992C66.7858 55.1053 65.8496 55.0082 65.131 55.4639L58.0275 59.9695C56.5131 60.9299 54.83 61.5988 53.0663 61.9194C51.5559 62.1943 49.9216 62.3317 48.1351 62.3025C46.3351 62.2733 44.5589 61.9021 42.8962 61.215Z" fill="#FE6A00"/>
<path d="M60.2834 32.4342C61.4484 31.8593 62.8524 32.1278 63.7239 33.0913L70.62 40.7126C72.4633 42.7502 74.8981 44.1749 77.5893 44.7191C80.2861 45.264 82.7856 44.9079 85.1085 43.7469C87.2681 42.6681 89.0593 40.9724 90.3126 38.908L95.9695 29.5927C96.4617 28.7824 97.3404 28.288 98.2869 28.288C99.9803 28.288 101.259 29.8249 100.955 31.4928C99.5938 38.9743 96.4956 45.283 91.3009 50.1772C90.6202 50.8185 90.2156 51.6991 90.1856 52.6349L89.1279 86.4031C89.0845 87.7773 87.9598 88.8695 86.5866 88.8695C85.2709 88.8695 84.1722 87.8642 84.0539 86.5523L82.4914 69.1838C82.4733 68.9839 82.2966 68.8363 82.097 68.8544C81.9132 68.871 81.7713 69.0226 81.7665 69.2074L81.2783 88.443C81.2436 89.8236 80.1157 90.9245 78.7362 90.9245H78.0728C76.754 90.9245 75.6545 89.9152 75.5402 88.6002L72.5406 54.2437C72.4475 53.1791 71.8725 52.2172 70.9836 51.6248C65.2115 47.781 61.3443 42.4683 58.8534 36.0948C58.3068 34.6906 58.9331 33.1 60.2834 32.4342Z" fill="#FE6A00"/>
<path d="M28.7936 26.3451C28.3519 26.2077 28.3086 25.5988 28.7242 25.3966C30.8278 24.3723 36.2331 22.1333 45.0632 21.0719C56.7216 19.6708 65.4886 17.7098 73.8824 10.6122C77.1518 7.84798 79.1615 5.9478 80.3975 4.65811C81.6808 3.31945 83.7568 3.14333 85.2451 4.24822C86.739 5.35705 87.1736 7.40887 86.254 9.0271C84.4548 12.1909 81.1918 17.2083 77.1471 20.2308C74.1301 22.4855 72.2 24.2388 71.0106 25.4495C69.9261 26.5544 69.2896 28.0226 69.2304 29.5706L68.9394 37.2266C67.0905 34.3439 63.2761 28.13 58.363 30.8911C53.4207 35.1345 62.5615 47.4312 69.4055 52.4486C70.3394 56.6952 70.8268 83.0616 69.1152 91.0288C68.877 92.1368 68.3541 93.169 67.5661 93.9825C66.8184 94.7541 65.965 95.2201 65.2236 95.2201C63.7013 95.2201 62.4472 94.0228 62.3746 92.5001L61.1986 67.7638C61.1986 67.7638 69.0379 63.0212 69.243 57.1935C69.2722 56.3571 68.967 55.5437 68.3998 54.9284C67.4297 53.8757 65.8743 53.5937 64.6052 54.2556C62.4913 55.3581 60.159 57.0624 57.747 58.9847C60.3885 50.2064 55.492 44.0131 46.5547 47.1247C47.3008 40.0279 47.222 34.3463 46.0341 30.5609C45.7083 29.5216 44.8013 28.7729 43.7183 28.6631C40.2731 28.3172 32.2594 27.424 28.7936 26.3451Z" fill="#FE6A00"/>
<path d="M2.44996 1.81958C4.03613 1.40337 5.6854 2.22236 6.31482 3.73872C8.2299 8.35333 12.2604 17.596 14.7513 19.9519C17.9252 22.9538 24.7731 28.7673 41.0276 29.606C42.7116 29.6929 44.088 30.9818 44.2773 32.6592L44.2804 32.6877C44.4689 34.3644 43.416 35.932 41.7935 36.3885C38.5754 37.2936 35.0544 37.7406 31.2692 37.7872C30.5775 37.7959 30.0207 38.3527 30.0096 39.0453C29.9102 45.1494 31.0334 50.9424 33.208 56.4668C33.208 56.4668 30.2336 60.0152 34.7106 64.2184C39.1875 68.4208 41.8921 68.9815 41.8921 68.9815C40.0646 72.3727 37.3442 74.9229 33.6844 76.5901L34.6609 89.9119C34.7413 91.0129 33.9636 91.9914 32.8743 92.1588C31.8805 92.312 30.9167 91.7434 30.5696 90.7988L25.9436 78.2273L21.4667 78.8812L21.3145 87.5671C21.2947 88.6736 20.4279 89.5779 19.3252 89.6426L18.3511 89.7003C17.3021 89.7619 16.3674 89.0432 16.156 88.0125L13.819 76.5893C9.49427 74.7792 6.76757 72.8901 5.45745 70.9298C4.78702 69.9268 4.63242 68.6656 5.01023 67.5196C9.15668 54.9426 11.7091 42.9128 10.8304 32.0606C10.7389 30.932 10.3477 29.8493 9.68751 28.9307C5.28235 22.7974 1.88206 15.2859 0.0576835 5.61363C-0.262548 3.91562 0.780177 2.2579 2.44996 1.81958Z" fill="#FE6A00"/>
</svg>
