<svg width="48" height="50" viewBox="0 0 48 50" fill="none" xmlns="http://www.w3.org/2000/svg">
<g clip-path="url(#clip0_238_2348)">
<path d="M47.2874 15.1105C45.8436 14.2507 44.0236 16.9724 43.6102 17.5665C42.4802 19.1945 41.1255 20.8211 39.929 22.4079C39.4026 23.107 37.3699 26.1118 36.5377 26.6606C35.1963 27.5457 34.376 26.6314 34.9198 25.3144C35.6616 23.5056 36.9458 20.8504 37.6597 19.0257C38.3484 17.2661 38.7538 16.482 39.3866 14.7038C39.7376 13.7124 41.2704 10.2505 41.5549 9.08893C41.8394 7.92608 42.3087 6.44693 40.9181 5.92464C39.2178 5.28806 38.6727 6.33131 38.1383 7.32538C37.1505 9.15937 36.765 10.4578 36.1468 11.8093C34.9025 14.5284 33.9639 16.7332 32.6026 19.3818C32.2636 20.0437 31.2426 22.8053 30.0448 21.6145C28.8191 20.3958 31.5298 13.6872 31.8847 12.3609C32.9296 8.46033 33.0905 7.58985 34.2046 3.69462C34.5874 2.35236 34.9982 0.734998 32.8658 0.0838007C30.2123 -0.728203 29.42 4.49467 28.7021 6.44959C27.273 10.3501 26.7877 13.3669 25.2097 18.6509C24.9611 19.4842 24.7617 21.8059 23.3033 20.849C22.5495 20.356 22.9922 13.9596 22.963 12.3595C22.9151 9.65906 22.7928 8.17991 22.7463 6.00704C22.6825 3.18164 22.0683 1.24931 20.3613 1.53371C18.5267 1.84203 18.5799 2.72049 18.4908 5.26016C18.4456 6.47351 18.3286 10.1986 18.1851 12.1137C18.0401 14.0274 17.9989 21.7833 17.9989 21.7833C18.0109 22.0199 17.9444 22.3441 17.8394 22.699C17.9325 22.7641 18.0428 22.8451 18.0787 22.8677C18.9455 23.398 19.8375 23.5349 21.1616 23.9708C21.8543 24.198 22.519 24.4452 23.1252 24.824C23.7327 25.2027 24.1834 25.7795 24.8401 26.1011C25.207 26.2805 25.5115 26.5424 25.8664 26.7377C26.2666 26.9557 26.7359 27.0234 27.1746 27.147C27.7914 27.3211 28.387 27.4341 29.0291 27.4939C29.6034 27.5484 29.9158 28.0893 29.8135 28.4096C29.525 29.3186 27.3674 29.7465 26.0313 29.393C24.4506 28.973 23.5998 28.2009 23.29 28.1504C22.2903 27.9869 22.055 28.4388 22.0244 29.1618C22.0031 29.684 22.0125 29.793 22.4272 30.904C22.5442 31.2164 22.7716 31.9672 23.0015 32.1998C23.0015 32.1998 25.2429 34.7514 25.7521 35.4199C26.2626 36.0897 27.5455 37.5994 27.8845 38.0087C28.5931 38.8659 28.8669 39.1384 28.3538 39.7723C27.8792 40.361 27.1161 39.9078 26.2746 38.9988C25.6271 38.3011 24.9186 37.5954 24.1183 36.7263C23.6437 36.2106 21.93 33.9873 21.5392 34.0431C20.7827 34.1547 21.3384 34.9933 21.4993 35.3388C22.5176 37.5277 23.3339 38.9802 24.089 40.6747C24.4599 41.5066 25.6497 43.3991 24.5769 43.9692C23.855 44.3519 23.2249 43.2449 23.0321 42.8701C22.5868 41.9943 21.817 40.5258 21.4182 39.6288C20.9968 38.6852 19.67 35.6671 19.0891 35.6764C18.3499 35.6884 18.8205 36.8353 18.9003 37.1516C19.2247 38.4141 20.5408 42.2243 20.7508 43.1107C20.8652 43.5931 20.9901 44.0928 20.2496 44.3759C19.6421 44.6098 19.3643 43.9891 19.121 43.5266C18.8764 43.0642 16.7506 37.2818 16.4688 36.4738C16.2627 35.885 15.7296 35.8239 15.5475 36.503C15.4345 36.9256 15.8812 40.7624 15.8852 42.005C15.8878 42.7439 15.7057 43.1466 15.3853 43.1971C14.8549 43.2821 14.5464 42.9379 14.3749 42.0236C14.1968 41.072 14.0998 39.8055 13.9987 39.0533C13.8179 37.7177 13.4603 35.0956 13.4616 35.0943C13.443 34.6717 12.9684 33.9301 12.777 33.5554C12.3064 32.6384 11.6749 31.0011 11.3585 29.684C11.2029 29.0355 11.2123 28.3484 11.0806 27.6932C11.066 27.6228 11.0487 27.5537 11.0341 27.4833C10.6685 26.3696 10.1235 24.3176 8.57336 21.984C6.82783 19.3539 2.49127 16.8169 0.620774 17.9319C-0.0386173 18.3253 -0.328431 19.7221 0.570257 20.6829C1.57796 21.7607 2.42214 22.8558 3.21181 24.0891C3.77549 24.9649 4.47343 25.7928 4.82307 26.7736C5.13415 27.6414 5.25779 28.5491 5.61008 29.4143C6.24555 30.9572 6.14052 32.6251 6.60449 34.1946C7.0658 35.7601 8.0735 37.0718 8.66376 38.628C9.90809 41.908 10.5542 43.524 11.9913 45.3434C14.1077 48.0159 19.0771 47.2332 21.4993 47.98C23.0614 48.4625 25.0528 50.1051 26.6149 49.9921C29.2485 49.8007 31.1682 47.6863 31.6507 47.1082C32.5468 46.0384 33.4335 44.954 34.0889 43.7286C35.5473 40.9989 36.9485 37.2433 37.5401 34.9641C37.7794 34.0338 38.0944 32.0483 38.702 31.2974C38.7033 31.2948 42.0707 26.2712 43.7897 23.717C45.5086 21.1627 45.7399 20.8357 46.971 18.7014C48.2937 16.4103 48.2765 15.6992 47.2874 15.1105Z" fill="white"/>
</g>
<defs>
<clipPath id="clip0_238_2348">
<rect width="48" height="50" fill="white"/>
</clipPath>
</defs>
</svg>
