<svg width="53" height="45" viewBox="0 0 53 45" fill="none" xmlns="http://www.w3.org/2000/svg">
<g clip-path="url(#clip0_238_2337)">
<mask id="path-1-inside-1_238_2337" fill="white">
<path d="M25.8046 44.7725C26.0099 44.9264 26.2551 45 26.5002 45C26.7453 45 26.9838 44.9264 27.1958 44.7725C27.8186 44.3174 42.5128 33.5894 48.2964 27.7469C54.5703 21.4091 54.5703 11.0961 48.2964 4.75833C45.2556 1.69319 41.2143 0 36.9213 0C33.0656 0 29.4086 1.36526 26.5002 3.86823C23.5918 1.36526 19.9348 0 16.0791 0C11.7794 0 7.74482 1.69319 4.70394 4.75833C-1.56993 11.0961 -1.56993 21.4091 4.70394 27.7469C10.4876 33.5894 25.1818 44.3174 25.8046 44.7725ZM6.38007 6.45152C8.97044 3.83477 12.4154 2.3959 16.0791 2.3959C19.6897 2.3959 23.0949 3.80131 25.6721 6.34444C26.1292 6.79952 26.8646 6.79952 27.3283 6.34444C29.9054 3.79462 33.3107 2.3959 36.9213 2.3959C40.5849 2.3959 44.0299 3.83477 46.6203 6.45152C51.9733 11.859 51.9733 20.6529 46.6203 26.0537C41.6714 31.0529 29.5278 40.0877 26.5002 42.323C23.4726 40.0877 11.3289 31.0529 6.38007 26.0537C5.62482 25.2908 4.97557 24.4542 4.43232 23.5708H14.8799C15.3238 23.5708 15.7279 23.3165 15.9333 22.9216L18.9278 17.0122L24.9367 31.1199C25.1222 31.5616 25.5528 31.8427 26.0232 31.8427C26.0298 31.8427 26.0364 31.8427 26.0431 31.8427C26.5201 31.836 26.9507 31.5348 27.1229 31.0864L31.1708 20.6529L33.1517 23.3834C33.3769 23.6913 33.7281 23.872 34.1057 23.872H36.9677C37.6236 23.872 38.1536 23.3366 38.1536 22.674C38.1536 22.0115 37.6236 21.4761 36.9677 21.4761H34.7086L31.8068 17.4807C31.5484 17.126 31.1311 16.9453 30.7004 16.9988C30.2698 17.0524 29.9121 17.3401 29.7531 17.7484L25.9702 27.4993L20.1004 13.7262C19.9216 13.2979 19.5108 13.0168 19.0537 13.0034C18.5966 12.9833 18.1726 13.2443 17.9606 13.6526L14.1446 21.1749H3.82944C3.64394 21.1749 3.46507 21.2217 3.30607 21.3021C1.39144 16.3363 2.41169 10.4603 6.38007 6.45152Z"/>
</mask>
<path d="M25.8046 44.7725C26.0099 44.9264 26.2551 45 26.5002 45C26.7453 45 26.9838 44.9264 27.1958 44.7725C27.8186 44.3174 42.5128 33.5894 48.2964 27.7469C54.5703 21.4091 54.5703 11.0961 48.2964 4.75833C45.2556 1.69319 41.2143 0 36.9213 0C33.0656 0 29.4086 1.36526 26.5002 3.86823C23.5918 1.36526 19.9348 0 16.0791 0C11.7794 0 7.74482 1.69319 4.70394 4.75833C-1.56993 11.0961 -1.56993 21.4091 4.70394 27.7469C10.4876 33.5894 25.1818 44.3174 25.8046 44.7725ZM6.38007 6.45152C8.97044 3.83477 12.4154 2.3959 16.0791 2.3959C19.6897 2.3959 23.0949 3.80131 25.6721 6.34444C26.1292 6.79952 26.8646 6.79952 27.3283 6.34444C29.9054 3.79462 33.3107 2.3959 36.9213 2.3959C40.5849 2.3959 44.0299 3.83477 46.6203 6.45152C51.9733 11.859 51.9733 20.6529 46.6203 26.0537C41.6714 31.0529 29.5278 40.0877 26.5002 42.323C23.4726 40.0877 11.3289 31.0529 6.38007 26.0537C5.62482 25.2908 4.97557 24.4542 4.43232 23.5708H14.8799C15.3238 23.5708 15.7279 23.3165 15.9333 22.9216L18.9278 17.0122L24.9367 31.1199C25.1222 31.5616 25.5528 31.8427 26.0232 31.8427C26.0298 31.8427 26.0364 31.8427 26.0431 31.8427C26.5201 31.836 26.9507 31.5348 27.1229 31.0864L31.1708 20.6529L33.1517 23.3834C33.3769 23.6913 33.7281 23.872 34.1057 23.872H36.9677C37.6236 23.872 38.1536 23.3366 38.1536 22.674C38.1536 22.0115 37.6236 21.4761 36.9677 21.4761H34.7086L31.8068 17.4807C31.5484 17.126 31.1311 16.9453 30.7004 16.9988C30.2698 17.0524 29.9121 17.3401 29.7531 17.7484L25.9702 27.4993L20.1004 13.7262C19.9216 13.2979 19.5108 13.0168 19.0537 13.0034C18.5966 12.9833 18.1726 13.2443 17.9606 13.6526L14.1446 21.1749H3.82944C3.64394 21.1749 3.46507 21.2217 3.30607 21.3021C1.39144 16.3363 2.41169 10.4603 6.38007 6.45152Z" fill="white"/>
<path d="M25.8046 44.7725L29.403 39.9713L29.374 39.9495L29.3447 39.9281L25.8046 44.7725ZM27.1958 44.7725L30.721 49.6277L30.7285 49.6222L30.7359 49.6168L27.1958 44.7725ZM48.2964 4.75833L52.5605 0.537226L52.5559 0.532581L48.2964 4.75833ZM26.5002 3.86823L22.5864 8.41597L26.5002 11.7843L30.414 8.41597L26.5002 3.86823ZM4.70394 4.75833L0.444472 0.532579L0.439868 0.537229L4.70394 4.75833ZM6.38007 6.45152L2.11599 2.23042L6.38007 6.45152ZM25.6721 6.34444L29.9052 2.09233L29.8958 2.083L29.8864 2.07372L25.6721 6.34444ZM27.3283 6.34444L31.5308 10.6269L31.5396 10.6183L31.5483 10.6096L27.3283 6.34444ZM46.6203 26.0537L42.3589 21.83L42.3562 21.8326L46.6203 26.0537ZM26.5002 42.323L22.9365 47.15L26.5002 49.7811L30.0639 47.15L26.5002 42.323ZM6.38007 26.0537L2.11599 30.2748L6.38007 26.0537ZM4.43232 23.5708V17.5708H-6.30111L-0.678621 26.7138L4.43232 23.5708ZM15.9333 22.9216L21.2563 25.6903L21.271 25.6621L21.2854 25.6337L15.9333 22.9216ZM18.9278 17.0122L24.448 14.661L19.3993 2.80775L13.5757 14.3001L18.9278 17.0122ZM24.9367 31.1199L30.4686 28.7966L30.4628 28.7826L30.4568 28.7687L24.9367 31.1199ZM26.0431 31.8427V37.8427H26.0852L26.1272 37.8421L26.0431 31.8427ZM27.1229 31.0864L21.5292 28.9162L21.5256 28.9255L21.522 28.9348L27.1229 31.0864ZM31.1708 20.6529L36.0274 17.1296L29.5605 8.21532L25.577 18.4827L31.1708 20.6529ZM33.1517 23.3834L28.2951 26.9067L28.3022 26.9165L28.3094 26.9264L33.1517 23.3834ZM34.7086 21.4761L29.8538 25.0019L31.6507 27.4761H34.7086V21.4761ZM31.8068 17.4807L36.6615 13.9548L36.6566 13.948L31.8068 17.4807ZM29.7531 17.7484L24.1621 15.5708L24.1593 15.5782L29.7531 17.7484ZM25.9702 27.4993L20.4505 29.8516L26.2312 43.4155L31.564 29.6694L25.9702 27.4993ZM20.1004 13.7262L14.5639 16.0384L14.5723 16.0585L14.5808 16.0785L20.1004 13.7262ZM19.0537 13.0034L18.7904 18.9976L18.8342 18.9996L18.8781 19.0009L19.0537 13.0034ZM17.9606 13.6526L12.6357 10.8874L12.6226 10.9127L12.6097 10.9381L17.9606 13.6526ZM14.1446 21.1749V27.1749H17.8287L19.4954 23.8893L14.1446 21.1749ZM3.30607 21.3021L-2.29223 23.4605L0.0929857 29.6469L6.01114 26.6577L3.30607 21.3021ZM22.2061 49.5736C23.5278 50.5642 25.0585 51 26.5002 51V39C27.4516 39 28.492 39.2885 29.403 39.9713L22.2061 49.5736ZM26.5002 51C27.9938 51 29.4698 50.5362 30.721 49.6277L23.6706 39.9173C24.4979 39.3166 25.4969 39 26.5002 39V51ZM30.7359 49.6168C31.1778 49.2939 46.3561 38.2355 52.5605 31.968L44.0324 23.5258C38.6695 28.9432 24.4593 39.3408 23.6557 39.9281L30.7359 49.6168ZM52.5605 31.968C61.149 23.2921 61.149 9.21311 52.5605 0.537229L44.0324 8.97943C47.9917 12.979 47.9917 19.5262 44.0324 23.5258L52.5605 31.968ZM52.5559 0.532581C48.3986 -3.65792 42.8282 -6 36.9213 -6V6C39.6005 6 42.1125 7.04429 44.037 8.98408L52.5559 0.532581ZM36.9213 -6C31.624 -6 26.5795 -4.11608 22.5864 -0.679507L30.414 8.41597C32.2376 6.84659 34.5071 6 36.9213 6V-6ZM30.414 -0.679507C26.4208 -4.11607 21.3764 -6 16.0791 -6V6C18.4933 6 20.7628 6.84659 22.5864 8.41597L30.414 -0.679507ZM16.0791 -6C10.1643 -6 4.60086 -3.65697 0.444474 0.532581L8.96341 8.98408C10.8888 7.04335 13.3946 6 16.0791 6V-6ZM0.439868 0.537229C-8.14858 9.21311 -8.14858 23.2921 0.439868 31.968L8.96801 23.5258C5.00871 19.5262 5.00871 12.979 8.96801 8.97943L0.439868 0.537229ZM0.439868 31.968C6.64426 38.2355 21.8226 49.2939 22.2645 49.6168L29.3447 39.9281C28.541 39.3408 14.3309 28.9432 8.96801 23.5258L0.439868 31.968ZM10.6441 10.6726C12.112 9.18985 14.0235 8.3959 16.0791 8.3959V-3.6041C10.8074 -3.6041 5.82892 -1.52031 2.11599 2.23042L10.6441 10.6726ZM16.0791 8.3959C18.1006 8.3959 19.9951 9.17189 21.4577 10.6152L29.8864 2.07372C26.1947 -1.56927 21.2788 -3.6041 16.0791 -3.6041V8.3959ZM21.4389 10.5965C24.2537 13.3988 28.7503 13.3554 31.5308 10.6269L23.1259 2.06198C24.9788 0.243629 28.0047 0.200274 29.9052 2.09233L21.4389 10.5965ZM31.5483 10.6096C33.0036 9.16973 34.893 8.3959 36.9213 8.3959V-3.6041C31.7283 -3.6041 26.8073 -1.58049 23.1083 2.07926L31.5483 10.6096ZM36.9213 8.3959C38.9769 8.3959 40.8884 9.18985 42.3562 10.6726L50.8844 2.23042C47.1715 -1.52031 42.193 -3.6041 36.9213 -3.6041V8.3959ZM42.3562 10.6726C45.3961 13.7434 45.3924 18.7694 42.3589 21.83L50.8818 30.2774C58.5543 22.5364 58.5505 9.9746 50.8844 2.23042L42.3562 10.6726ZM42.3562 21.8326C37.812 26.4231 26.1225 35.1438 22.9365 37.496L30.0639 47.15C32.9331 45.0317 45.5309 35.6828 50.8844 30.2748L42.3562 21.8326ZM30.0639 37.496C26.8779 35.1438 15.1884 26.4231 10.6441 21.8326L2.11599 30.2748C7.46948 35.6828 20.0672 45.0317 22.9365 47.15L30.0639 37.496ZM10.6441 21.8326C10.2224 21.4065 9.85461 20.9341 9.54325 20.4278L-0.678621 26.7138C0.0965178 27.9743 1.02726 29.175 2.11599 30.2748L10.6441 21.8326ZM4.43232 29.5708H14.8799V17.5708H4.43232V29.5708ZM14.8799 29.5708C17.6486 29.5708 20.0588 27.9927 21.2563 25.6903L10.6103 20.153C11.3971 18.6402 12.9991 17.5708 14.8799 17.5708V29.5708ZM21.2854 25.6337L24.2799 19.7243L13.5757 14.3001L10.5812 20.2096L21.2854 25.6337ZM13.4077 19.3634L19.4166 33.4711L30.4568 28.7687L24.448 14.661L13.4077 19.3634ZM19.4047 33.4431C20.5334 36.1305 23.1564 37.8427 26.0232 37.8427V25.8427C27.9492 25.8427 29.711 26.9926 30.4686 28.7966L19.4047 33.4431ZM26.0232 37.8427C26.0232 37.8427 26.0232 37.8427 26.0232 37.8427C26.0232 37.8427 26.0233 37.8427 26.0233 37.8427C26.0233 37.8427 26.0233 37.8427 26.0233 37.8427C26.0233 37.8427 26.0233 37.8427 26.0233 37.8427C26.0234 37.8427 26.0234 37.8427 26.0234 37.8427C26.0234 37.8427 26.0234 37.8427 26.0234 37.8427C26.0234 37.8427 26.0234 37.8427 26.0235 37.8427C26.0235 37.8427 26.0235 37.8427 26.0235 37.8427C26.0235 37.8427 26.0235 37.8427 26.0235 37.8427C26.0236 37.8427 26.0236 37.8427 26.0236 37.8427C26.0236 37.8427 26.0236 37.8427 26.0236 37.8427C26.0236 37.8427 26.0236 37.8427 26.0237 37.8427C26.0237 37.8427 26.0237 37.8427 26.0237 37.8427C26.0237 37.8427 26.0237 37.8427 26.0237 37.8427C26.0237 37.8427 26.0238 37.8427 26.0238 37.8427C26.0238 37.8427 26.0238 37.8427 26.0238 37.8427C26.0238 37.8427 26.0238 37.8427 26.0238 37.8427C26.0239 37.8427 26.0239 37.8427 26.0239 37.8427C26.0239 37.8427 26.0239 37.8427 26.0239 37.8427C26.0239 37.8427 26.024 37.8427 26.024 37.8427C26.024 37.8427 26.024 37.8427 26.024 37.8427C26.024 37.8427 26.024 37.8427 26.024 37.8427C26.0241 37.8427 26.0241 37.8427 26.0241 37.8427C26.0241 37.8427 26.0241 37.8427 26.0241 37.8427C26.0241 37.8427 26.0241 37.8427 26.0242 37.8427C26.0242 37.8427 26.0242 37.8427 26.0242 37.8427C26.0242 37.8427 26.0242 37.8427 26.0242 37.8427C26.0243 37.8427 26.0243 37.8427 26.0243 37.8427C26.0243 37.8427 26.0243 37.8427 26.0243 37.8427C26.0243 37.8427 26.0243 37.8427 26.0244 37.8427C26.0244 37.8427 26.0244 37.8427 26.0244 37.8427C26.0244 37.8427 26.0244 37.8427 26.0244 37.8427C26.0244 37.8427 26.0245 37.8427 26.0245 37.8427C26.0245 37.8427 26.0245 37.8427 26.0245 37.8427C26.0245 37.8427 26.0245 37.8427 26.0245 37.8427C26.0246 37.8427 26.0246 37.8427 26.0246 37.8427C26.0246 37.8427 26.0246 37.8427 26.0246 37.8427C26.0246 37.8427 26.0247 37.8427 26.0247 37.8427C26.0247 37.8427 26.0247 37.8427 26.0247 37.8427C26.0247 37.8427 26.0247 37.8427 26.0247 37.8427C26.0248 37.8427 26.0248 37.8427 26.0248 37.8427C26.0248 37.8427 26.0248 37.8427 26.0248 37.8427C26.0248 37.8427 26.0248 37.8427 26.0249 37.8427C26.0249 37.8427 26.0249 37.8427 26.0249 37.8427C26.0249 37.8427 26.0249 37.8427 26.0249 37.8427C26.0249 37.8427 26.025 37.8427 26.025 37.8427C26.025 37.8427 26.025 37.8427 26.025 37.8427C26.025 37.8427 26.025 37.8427 26.0251 37.8427C26.0251 37.8427 26.0251 37.8427 26.0251 37.8427C26.0251 37.8427 26.0251 37.8427 26.0251 37.8427C26.0251 37.8427 26.0252 37.8427 26.0252 37.8427C26.0252 37.8427 26.0252 37.8427 26.0252 37.8427C26.0252 37.8427 26.0252 37.8427 26.0252 37.8427C26.0253 37.8427 26.0253 37.8427 26.0253 37.8427C26.0253 37.8427 26.0253 37.8427 26.0253 37.8427C26.0253 37.8427 26.0253 37.8427 26.0254 37.8427C26.0254 37.8427 26.0254 37.8427 26.0254 37.8427C26.0254 37.8427 26.0254 37.8427 26.0254 37.8427C26.0255 37.8427 26.0255 37.8427 26.0255 37.8427C26.0255 37.8427 26.0255 37.8427 26.0255 37.8427C26.0255 37.8427 26.0255 37.8427 26.0256 37.8427C26.0256 37.8427 26.0256 37.8427 26.0256 37.8427C26.0256 37.8427 26.0256 37.8427 26.0256 37.8427C26.0256 37.8427 26.0257 37.8427 26.0257 37.8427C26.0257 37.8427 26.0257 37.8427 26.0257 37.8427C26.0257 37.8427 26.0257 37.8427 26.0258 37.8427C26.0258 37.8427 26.0258 37.8427 26.0258 37.8427C26.0258 37.8427 26.0258 37.8427 26.0258 37.8427C26.0258 37.8427 26.0259 37.8427 26.0259 37.8427C26.0259 37.8427 26.0259 37.8427 26.0259 37.8427C26.0259 37.8427 26.0259 37.8427 26.0259 37.8427C26.026 37.8427 26.026 37.8427 26.026 37.8427C26.026 37.8427 26.026 37.8427 26.026 37.8427C26.026 37.8427 26.026 37.8427 26.0261 37.8427C26.0261 37.8427 26.0261 37.8427 26.0261 37.8427C26.0261 37.8427 26.0261 37.8427 26.0261 37.8427C26.0262 37.8427 26.0262 37.8427 26.0262 37.8427C26.0262 37.8427 26.0262 37.8427 26.0262 37.8427C26.0262 37.8427 26.0262 37.8427 26.0263 37.8427C26.0263 37.8427 26.0263 37.8427 26.0263 37.8427C26.0263 37.8427 26.0263 37.8427 26.0263 37.8427C26.0263 37.8427 26.0264 37.8427 26.0264 37.8427C26.0264 37.8427 26.0264 37.8427 26.0264 37.8427C26.0264 37.8427 26.0264 37.8427 26.0264 37.8427C26.0265 37.8427 26.0265 37.8427 26.0265 37.8427C26.0265 37.8427 26.0265 37.8427 26.0265 37.8427C26.0265 37.8427 26.0266 37.8427 26.0266 37.8427C26.0266 37.8427 26.0266 37.8427 26.0266 37.8427C26.0266 37.8427 26.0266 37.8427 26.0266 37.8427C26.0267 37.8427 26.0267 37.8427 26.0267 37.8427C26.0267 37.8427 26.0267 37.8427 26.0267 37.8427C26.0267 37.8427 26.0267 37.8427 26.0268 37.8427C26.0268 37.8427 26.0268 37.8427 26.0268 37.8427C26.0268 37.8427 26.0268 37.8427 26.0268 37.8427C26.0268 37.8427 26.0269 37.8427 26.0269 37.8427C26.0269 37.8427 26.0269 37.8427 26.0269 37.8427C26.0269 37.8427 26.0269 37.8427 26.027 37.8427C26.027 37.8427 26.027 37.8427 26.027 37.8427C26.027 37.8427 26.027 37.8427 26.027 37.8427C26.027 37.8427 26.0271 37.8427 26.0271 37.8427C26.0271 37.8427 26.0271 37.8427 26.0271 37.8427C26.0271 37.8427 26.0271 37.8427 26.0271 37.8427C26.0272 37.8427 26.0272 37.8427 26.0272 37.8427C26.0272 37.8427 26.0272 37.8427 26.0272 37.8427C26.0272 37.8427 26.0273 37.8427 26.0273 37.8427C26.0273 37.8427 26.0273 37.8427 26.0273 37.8427C26.0273 37.8427 26.0273 37.8427 26.0273 37.8427C26.0274 37.8427 26.0274 37.8427 26.0274 37.8427C26.0274 37.8427 26.0274 37.8427 26.0274 37.8427C26.0274 37.8427 26.0274 37.8427 26.0275 37.8427C26.0275 37.8427 26.0275 37.8427 26.0275 37.8427C26.0275 37.8427 26.0275 37.8427 26.0275 37.8427C26.0275 37.8427 26.0276 37.8427 26.0276 37.8427C26.0276 37.8427 26.0276 37.8427 26.0276 37.8427C26.0276 37.8427 26.0276 37.8427 26.0277 37.8427C26.0277 37.8427 26.0277 37.8427 26.0277 37.8427C26.0277 37.8427 26.0277 37.8427 26.0277 37.8427C26.0277 37.8427 26.0278 37.8427 26.0278 37.8427C26.0278 37.8427 26.0278 37.8427 26.0278 37.8427C26.0278 37.8427 26.0278 37.8427 26.0278 37.8427C26.0279 37.8427 26.0279 37.8427 26.0279 37.8427C26.0279 37.8427 26.0279 37.8427 26.0279 37.8427C26.0279 37.8427 26.028 37.8427 26.028 37.8427C26.028 37.8427 26.028 37.8427 26.028 37.8427C26.028 37.8427 26.028 37.8427 26.028 37.8427C26.0281 37.8427 26.0281 37.8427 26.0281 37.8427C26.0281 37.8427 26.0281 37.8427 26.0281 37.8427C26.0281 37.8427 26.0281 37.8427 26.0282 37.8427C26.0282 37.8427 26.0282 37.8427 26.0282 37.8427C26.0282 37.8427 26.0282 37.8427 26.0282 37.8427C26.0282 37.8427 26.0283 37.8427 26.0283 37.8427C26.0283 37.8427 26.0283 37.8427 26.0283 37.8427C26.0283 37.8427 26.0283 37.8427 26.0284 37.8427C26.0284 37.8427 26.0284 37.8427 26.0284 37.8427C26.0284 37.8427 26.0284 37.8427 26.0284 37.8427C26.0284 37.8427 26.0285 37.8427 26.0285 37.8427C26.0285 37.8427 26.0285 37.8427 26.0285 37.8427C26.0285 37.8427 26.0285 37.8427 26.0285 37.8427C26.0286 37.8427 26.0286 37.8427 26.0286 37.8427C26.0286 37.8427 26.0286 37.8427 26.0286 37.8427C26.0286 37.8427 26.0286 37.8427 26.0287 37.8427C26.0287 37.8427 26.0287 37.8427 26.0287 37.8427C26.0287 37.8427 26.0287 37.8427 26.0287 37.8427C26.0288 37.8427 26.0288 37.8427 26.0288 37.8427C26.0288 37.8427 26.0288 37.8427 26.0288 37.8427C26.0288 37.8427 26.0288 37.8427 26.0289 37.8427C26.0289 37.8427 26.0289 37.8427 26.0289 37.8427C26.0289 37.8427 26.0289 37.8427 26.0289 37.8427C26.0289 37.8427 26.029 37.8427 26.029 37.8427C26.029 37.8427 26.029 37.8427 26.029 37.8427C26.029 37.8427 26.029 37.8427 26.0291 37.8427C26.0291 37.8427 26.0291 37.8427 26.0291 37.8427C26.0291 37.8427 26.0291 37.8427 26.0291 37.8427C26.0291 37.8427 26.0292 37.8427 26.0292 37.8427C26.0292 37.8427 26.0292 37.8427 26.0292 37.8427C26.0292 37.8427 26.0292 37.8427 26.0292 37.8427C26.0293 37.8427 26.0293 37.8427 26.0293 37.8427C26.0293 37.8427 26.0293 37.8427 26.0293 37.8427C26.0293 37.8427 26.0293 37.8427 26.0294 37.8427C26.0294 37.8427 26.0294 37.8427 26.0294 37.8427C26.0294 37.8427 26.0294 37.8427 26.0294 37.8427C26.0295 37.8427 26.0295 37.8427 26.0295 37.8427C26.0295 37.8427 26.0295 37.8427 26.0295 37.8427C26.0295 37.8427 26.0295 37.8427 26.0296 37.8427C26.0296 37.8427 26.0296 37.8427 26.0296 37.8427C26.0296 37.8427 26.0296 37.8427 26.0296 37.8427C26.0296 37.8427 26.0297 37.8427 26.0297 37.8427C26.0297 37.8427 26.0297 37.8427 26.0297 37.8427C26.0297 37.8427 26.0297 37.8427 26.0297 37.8427C26.0298 37.8427 26.0298 37.8427 26.0298 37.8427C26.0298 37.8427 26.0298 37.8427 26.0298 37.8427C26.0298 37.8427 26.0299 37.8427 26.0299 37.8427C26.0299 37.8427 26.0299 37.8427 26.0299 37.8427C26.0299 37.8427 26.0299 37.8427 26.0299 37.8427C26.03 37.8427 26.03 37.8427 26.03 37.8427C26.03 37.8427 26.03 37.8427 26.03 37.8427C26.03 37.8427 26.03 37.8427 26.0301 37.8427C26.0301 37.8427 26.0301 37.8427 26.0301 37.8427C26.0301 37.8427 26.0301 37.8427 26.0301 37.8427C26.0301 37.8427 26.0302 37.8427 26.0302 37.8427C26.0302 37.8427 26.0302 37.8427 26.0302 37.8427C26.0302 37.8427 26.0302 37.8427 26.0303 37.8427C26.0303 37.8427 26.0303 37.8427 26.0303 37.8427C26.0303 37.8427 26.0303 37.8427 26.0303 37.8427C26.0303 37.8427 26.0304 37.8427 26.0304 37.8427C26.0304 37.8427 26.0304 37.8427 26.0304 37.8427C26.0304 37.8427 26.0304 37.8427 26.0304 37.8427C26.0305 37.8427 26.0305 37.8427 26.0305 37.8427C26.0305 37.8427 26.0305 37.8427 26.0305 37.8427C26.0305 37.8427 26.0306 37.8427 26.0306 37.8427C26.0306 37.8427 26.0306 37.8427 26.0306 37.8427C26.0306 37.8427 26.0306 37.8427 26.0306 37.8427C26.0307 37.8427 26.0307 37.8427 26.0307 37.8427C26.0307 37.8427 26.0307 37.8427 26.0307 37.8427C26.0307 37.8427 26.0307 37.8427 26.0308 37.8427C26.0308 37.8427 26.0308 37.8427 26.0308 37.8427C26.0308 37.8427 26.0308 37.8427 26.0308 37.8427C26.0308 37.8427 26.0309 37.8427 26.0309 37.8427C26.0309 37.8427 26.0309 37.8427 26.0309 37.8427C26.0309 37.8427 26.0309 37.8427 26.031 37.8427C26.031 37.8427 26.031 37.8427 26.031 37.8427C26.031 37.8427 26.031 37.8427 26.031 37.8427C26.031 37.8427 26.0311 37.8427 26.0311 37.8427C26.0311 37.8427 26.0311 37.8427 26.0311 37.8427C26.0311 37.8427 26.0311 37.8427 26.0311 37.8427C26.0312 37.8427 26.0312 37.8427 26.0312 37.8427C26.0312 37.8427 26.0312 37.8427 26.0312 37.8427C26.0312 37.8427 26.0312 37.8427 26.0313 37.8427C26.0313 37.8427 26.0313 37.8427 26.0313 37.8427C26.0313 37.8427 26.0313 37.8427 26.0313 37.8427C26.0314 37.8427 26.0314 37.8427 26.0314 37.8427C26.0314 37.8427 26.0314 37.8427 26.0314 37.8427C26.0314 37.8427 26.0314 37.8427 26.0315 37.8427C26.0315 37.8427 26.0315 37.8427 26.0315 37.8427C26.0315 37.8427 26.0315 37.8427 26.0315 37.8427C26.0315 37.8427 26.0316 37.8427 26.0316 37.8427C26.0316 37.8427 26.0316 37.8427 26.0316 37.8427C26.0316 37.8427 26.0316 37.8427 26.0317 37.8427C26.0317 37.8427 26.0317 37.8427 26.0317 37.8427C26.0317 37.8427 26.0317 37.8427 26.0317 37.8427C26.0317 37.8427 26.0318 37.8427 26.0318 37.8427C26.0318 37.8427 26.0318 37.8427 26.0318 37.8427C26.0318 37.8427 26.0318 37.8427 26.0318 37.8427C26.0319 37.8427 26.0319 37.8427 26.0319 37.8427C26.0319 37.8427 26.0319 37.8427 26.0319 37.8427C26.0319 37.8427 26.0319 37.8427 26.032 37.8427C26.032 37.8427 26.032 37.8427 26.032 37.8427C26.032 37.8427 26.032 37.8427 26.032 37.8427C26.0321 37.8427 26.0321 37.8427 26.0321 37.8427C26.0321 37.8427 26.0321 37.8427 26.0321 37.8427C26.0321 37.8427 26.0321 37.8427 26.0322 37.8427C26.0322 37.8427 26.0322 37.8427 26.0322 37.8427C26.0322 37.8427 26.0322 37.8427 26.0322 37.8427C26.0322 37.8427 26.0323 37.8427 26.0323 37.8427C26.0323 37.8427 26.0323 37.8427 26.0323 37.8427C26.0323 37.8427 26.0323 37.8427 26.0324 37.8427C26.0324 37.8427 26.0324 37.8427 26.0324 37.8427C26.0324 37.8427 26.0324 37.8427 26.0324 37.8427C26.0324 37.8427 26.0325 37.8427 26.0325 37.8427C26.0325 37.8427 26.0325 37.8427 26.0325 37.8427C26.0325 37.8427 26.0325 37.8427 26.0325 37.8427C26.0326 37.8427 26.0326 37.8427 26.0326 37.8427C26.0326 37.8427 26.0326 37.8427 26.0326 37.8427C26.0326 37.8427 26.0326 37.8427 26.0327 37.8427C26.0327 37.8427 26.0327 37.8427 26.0327 37.8427C26.0327 37.8427 26.0327 37.8427 26.0327 37.8427C26.0328 37.8427 26.0328 37.8427 26.0328 37.8427C26.0328 37.8427 26.0328 37.8427 26.0328 37.8427C26.0328 37.8427 26.0328 37.8427 26.0329 37.8427C26.0329 37.8427 26.0329 37.8427 26.0329 37.8427C26.0329 37.8427 26.0329 37.8427 26.0329 37.8427C26.0329 37.8427 26.033 37.8427 26.033 37.8427C26.033 37.8427 26.033 37.8427 26.033 37.8427C26.033 37.8427 26.033 37.8427 26.033 37.8427C26.0331 37.8427 26.0331 37.8427 26.0331 37.8427C26.0331 37.8427 26.0331 37.8427 26.0331 37.8427C26.0331 37.8427 26.0332 37.8427 26.0332 37.8427C26.0332 37.8427 26.0332 37.8427 26.0332 37.8427C26.0332 37.8427 26.0332 37.8427 26.0332 37.8427C26.0333 37.8427 26.0333 37.8427 26.0333 37.8427C26.0333 37.8427 26.0333 37.8427 26.0333 37.8427C26.0333 37.8427 26.0333 37.8427 26.0334 37.8427C26.0334 37.8427 26.0334 37.8427 26.0334 37.8427C26.0334 37.8427 26.0334 37.8427 26.0334 37.8427C26.0335 37.8427 26.0335 37.8427 26.0335 37.8427C26.0335 37.8427 26.0335 37.8427 26.0335 37.8427C26.0335 37.8427 26.0335 37.8427 26.0336 37.8427C26.0336 37.8427 26.0336 37.8427 26.0336 37.8427C26.0336 37.8427 26.0336 37.8427 26.0336 37.8427C26.0336 37.8427 26.0337 37.8427 26.0337 37.8427C26.0337 37.8427 26.0337 37.8427 26.0337 37.8427C26.0337 37.8427 26.0337 37.8427 26.0337 37.8427C26.0338 37.8427 26.0338 37.8427 26.0338 37.8427C26.0338 37.8427 26.0338 37.8427 26.0338 37.8427C26.0338 37.8427 26.0339 37.8427 26.0339 37.8427C26.0339 37.8427 26.0339 37.8427 26.0339 37.8427C26.0339 37.8427 26.0339 37.8427 26.0339 37.8427C26.034 37.8427 26.034 37.8427 26.034 37.8427C26.034 37.8427 26.034 37.8427 26.034 37.8427C26.034 37.8427 26.034 37.8427 26.0341 37.8427C26.0341 37.8427 26.0341 37.8427 26.0341 37.8427C26.0341 37.8427 26.0341 37.8427 26.0341 37.8427C26.0341 37.8427 26.0342 37.8427 26.0342 37.8427C26.0342 37.8427 26.0342 37.8427 26.0342 37.8427C26.0342 37.8427 26.0342 37.8427 26.0343 37.8427C26.0343 37.8427 26.0343 37.8427 26.0343 37.8427C26.0343 37.8427 26.0343 37.8427 26.0343 37.8427C26.0343 37.8427 26.0344 37.8427 26.0344 37.8427C26.0344 37.8427 26.0344 37.8427 26.0344 37.8427C26.0344 37.8427 26.0344 37.8427 26.0344 37.8427C26.0345 37.8427 26.0345 37.8427 26.0345 37.8427C26.0345 37.8427 26.0345 37.8427 26.0345 37.8427C26.0345 37.8427 26.0345 37.8427 26.0346 37.8427C26.0346 37.8427 26.0346 37.8427 26.0346 37.8427C26.0346 37.8427 26.0346 37.8427 26.0346 37.8427C26.0347 37.8427 26.0347 37.8427 26.0347 37.8427C26.0347 37.8427 26.0347 37.8427 26.0347 37.8427C26.0347 37.8427 26.0347 37.8427 26.0348 37.8427C26.0348 37.8427 26.0348 37.8427 26.0348 37.8427C26.0348 37.8427 26.0348 37.8427 26.0348 37.8427C26.0348 37.8427 26.0349 37.8427 26.0349 37.8427C26.0349 37.8427 26.0349 37.8427 26.0349 37.8427C26.0349 37.8427 26.0349 37.8427 26.035 37.8427C26.035 37.8427 26.035 37.8427 26.035 37.8427C26.035 37.8427 26.035 37.8427 26.035 37.8427C26.035 37.8427 26.0351 37.8427 26.0351 37.8427C26.0351 37.8427 26.0351 37.8427 26.0351 37.8427C26.0351 37.8427 26.0351 37.8427 26.0351 37.8427C26.0352 37.8427 26.0352 37.8427 26.0352 37.8427C26.0352 37.8427 26.0352 37.8427 26.0352 37.8427C26.0352 37.8427 26.0352 37.8427 26.0353 37.8427C26.0353 37.8427 26.0353 37.8427 26.0353 37.8427C26.0353 37.8427 26.0353 37.8427 26.0353 37.8427C26.0354 37.8427 26.0354 37.8427 26.0354 37.8427C26.0354 37.8427 26.0354 37.8427 26.0354 37.8427C26.0354 37.8427 26.0354 37.8427 26.0355 37.8427C26.0355 37.8427 26.0355 37.8427 26.0355 37.8427C26.0355 37.8427 26.0355 37.8427 26.0355 37.8427C26.0355 37.8427 26.0356 37.8427 26.0356 37.8427C26.0356 37.8427 26.0356 37.8427 26.0356 37.8427C26.0356 37.8427 26.0356 37.8427 26.0357 37.8427C26.0357 37.8427 26.0357 37.8427 26.0357 37.8427C26.0357 37.8427 26.0357 37.8427 26.0357 37.8427C26.0357 37.8427 26.0358 37.8427 26.0358 37.8427C26.0358 37.8427 26.0358 37.8427 26.0358 37.8427C26.0358 37.8427 26.0358 37.8427 26.0358 37.8427C26.0359 37.8427 26.0359 37.8427 26.0359 37.8427C26.0359 37.8427 26.0359 37.8427 26.0359 37.8427C26.0359 37.8427 26.0359 37.8427 26.036 37.8427C26.036 37.8427 26.036 37.8427 26.036 37.8427C26.036 37.8427 26.036 37.8427 26.036 37.8427C26.0361 37.8427 26.0361 37.8427 26.0361 37.8427C26.0361 37.8427 26.0361 37.8427 26.0361 37.8427C26.0361 37.8427 26.0361 37.8427 26.0362 37.8427C26.0362 37.8427 26.0362 37.8427 26.0362 37.8427C26.0362 37.8427 26.0362 37.8427 26.0362 37.8427C26.0362 37.8427 26.0363 37.8427 26.0363 37.8427C26.0363 37.8427 26.0363 37.8427 26.0363 37.8427C26.0363 37.8427 26.0363 37.8427 26.0363 37.8427C26.0364 37.8427 26.0364 37.8427 26.0364 37.8427C26.0364 37.8427 26.0364 37.8427 26.0364 37.8427C26.0364 37.8427 26.0365 37.8427 26.0365 37.8427C26.0365 37.8427 26.0365 37.8427 26.0365 37.8427C26.0365 37.8427 26.0365 37.8427 26.0365 37.8427C26.0366 37.8427 26.0366 37.8427 26.0366 37.8427C26.0366 37.8427 26.0366 37.8427 26.0366 37.8427C26.0366 37.8427 26.0366 37.8427 26.0367 37.8427C26.0367 37.8427 26.0367 37.8427 26.0367 37.8427C26.0367 37.8427 26.0367 37.8427 26.0367 37.8427C26.0368 37.8427 26.0368 37.8427 26.0368 37.8427C26.0368 37.8427 26.0368 37.8427 26.0368 37.8427C26.0368 37.8427 26.0368 37.8427 26.0369 37.8427C26.0369 37.8427 26.0369 37.8427 26.0369 37.8427C26.0369 37.8427 26.0369 37.8427 26.0369 37.8427C26.0369 37.8427 26.037 37.8427 26.037 37.8427C26.037 37.8427 26.037 37.8427 26.037 37.8427C26.037 37.8427 26.037 37.8427 26.037 37.8427C26.0371 37.8427 26.0371 37.8427 26.0371 37.8427C26.0371 37.8427 26.0371 37.8427 26.0371 37.8427C26.0371 37.8427 26.0372 37.8427 26.0372 37.8427C26.0372 37.8427 26.0372 37.8427 26.0372 37.8427C26.0372 37.8427 26.0372 37.8427 26.0372 37.8427C26.0373 37.8427 26.0373 37.8427 26.0373 37.8427C26.0373 37.8427 26.0373 37.8427 26.0373 37.8427C26.0373 37.8427 26.0373 37.8427 26.0374 37.8427C26.0374 37.8427 26.0374 37.8427 26.0374 37.8427C26.0374 37.8427 26.0374 37.8427 26.0374 37.8427C26.0374 37.8427 26.0375 37.8427 26.0375 37.8427C26.0375 37.8427 26.0375 37.8427 26.0375 37.8427C26.0375 37.8427 26.0375 37.8427 26.0376 37.8427C26.0376 37.8427 26.0376 37.8427 26.0376 37.8427C26.0376 37.8427 26.0376 37.8427 26.0376 37.8427C26.0376 37.8427 26.0377 37.8427 26.0377 37.8427C26.0377 37.8427 26.0377 37.8427 26.0377 37.8427C26.0377 37.8427 26.0377 37.8427 26.0377 37.8427C26.0378 37.8427 26.0378 37.8427 26.0378 37.8427C26.0378 37.8427 26.0378 37.8427 26.0378 37.8427C26.0378 37.8427 26.0378 37.8427 26.0379 37.8427C26.0379 37.8427 26.0379 37.8427 26.0379 37.8427C26.0379 37.8427 26.0379 37.8427 26.0379 37.8427C26.038 37.8427 26.038 37.8427 26.038 37.8427C26.038 37.8427 26.038 37.8427 26.038 37.8427C26.038 37.8427 26.038 37.8427 26.0381 37.8427C26.0381 37.8427 26.0381 37.8427 26.0381 37.8427C26.0381 37.8427 26.0381 37.8427 26.0381 37.8427C26.0381 37.8427 26.0382 37.8427 26.0382 37.8427C26.0382 37.8427 26.0382 37.8427 26.0382 37.8427C26.0382 37.8427 26.0382 37.8427 26.0383 37.8427C26.0383 37.8427 26.0383 37.8427 26.0383 37.8427C26.0383 37.8427 26.0383 37.8427 26.0383 37.8427C26.0383 37.8427 26.0384 37.8427 26.0384 37.8427C26.0384 37.8427 26.0384 37.8427 26.0384 37.8427C26.0384 37.8427 26.0384 37.8427 26.0384 37.8427C26.0385 37.8427 26.0385 37.8427 26.0385 37.8427C26.0385 37.8427 26.0385 37.8427 26.0385 37.8427C26.0385 37.8427 26.0385 37.8427 26.0386 37.8427C26.0386 37.8427 26.0386 37.8427 26.0386 37.8427C26.0386 37.8427 26.0386 37.8427 26.0386 37.8427C26.0387 37.8427 26.0387 37.8427 26.0387 37.8427C26.0387 37.8427 26.0387 37.8427 26.0387 37.8427C26.0387 37.8427 26.0387 37.8427 26.0388 37.8427C26.0388 37.8427 26.0388 37.8427 26.0388 37.8427C26.0388 37.8427 26.0388 37.8427 26.0388 37.8427C26.0388 37.8427 26.0389 37.8427 26.0389 37.8427C26.0389 37.8427 26.0389 37.8427 26.0389 37.8427C26.0389 37.8427 26.0389 37.8427 26.0389 37.8427C26.039 37.8427 26.039 37.8427 26.039 37.8427C26.039 37.8427 26.039 37.8427 26.039 37.8427C26.039 37.8427 26.0391 37.8427 26.0391 37.8427C26.0391 37.8427 26.0391 37.8427 26.0391 37.8427C26.0391 37.8427 26.0391 37.8427 26.0391 37.8427C26.0392 37.8427 26.0392 37.8427 26.0392 37.8427C26.0392 37.8427 26.0392 37.8427 26.0392 37.8427C26.0392 37.8427 26.0392 37.8427 26.0393 37.8427C26.0393 37.8427 26.0393 37.8427 26.0393 37.8427C26.0393 37.8427 26.0393 37.8427 26.0393 37.8427C26.0394 37.8427 26.0394 37.8427 26.0394 37.8427C26.0394 37.8427 26.0394 37.8427 26.0394 37.8427C26.0394 37.8427 26.0394 37.8427 26.0395 37.8427C26.0395 37.8427 26.0395 37.8427 26.0395 37.8427C26.0395 37.8427 26.0395 37.8427 26.0395 37.8427C26.0395 37.8427 26.0396 37.8427 26.0396 37.8427C26.0396 37.8427 26.0396 37.8427 26.0396 37.8427C26.0396 37.8427 26.0396 37.8427 26.0396 37.8427C26.0397 37.8427 26.0397 37.8427 26.0397 37.8427C26.0397 37.8427 26.0397 37.8427 26.0397 37.8427C26.0397 37.8427 26.0398 37.8427 26.0398 37.8427C26.0398 37.8427 26.0398 37.8427 26.0398 37.8427C26.0398 37.8427 26.0398 37.8427 26.0398 37.8427C26.0399 37.8427 26.0399 37.8427 26.0399 37.8427C26.0399 37.8427 26.0399 37.8427 26.0399 37.8427C26.0399 37.8427 26.0399 37.8427 26.04 37.8427C26.04 37.8427 26.04 37.8427 26.04 37.8427C26.04 37.8427 26.04 37.8427 26.04 37.8427C26.0401 37.8427 26.0401 37.8427 26.0401 37.8427C26.0401 37.8427 26.0401 37.8427 26.0401 37.8427C26.0401 37.8427 26.0401 37.8427 26.0402 37.8427C26.0402 37.8427 26.0402 37.8427 26.0402 37.8427C26.0402 37.8427 26.0402 37.8427 26.0402 37.8427C26.0402 37.8427 26.0403 37.8427 26.0403 37.8427C26.0403 37.8427 26.0403 37.8427 26.0403 37.8427C26.0403 37.8427 26.0403 37.8427 26.0403 37.8427C26.0404 37.8427 26.0404 37.8427 26.0404 37.8427C26.0404 37.8427 26.0404 37.8427 26.0404 37.8427C26.0404 37.8427 26.0405 37.8427 26.0405 37.8427C26.0405 37.8427 26.0405 37.8427 26.0405 37.8427C26.0405 37.8427 26.0405 37.8427 26.0405 37.8427C26.0406 37.8427 26.0406 37.8427 26.0406 37.8427C26.0406 37.8427 26.0406 37.8427 26.0406 37.8427C26.0406 37.8427 26.0406 37.8427 26.0407 37.8427C26.0407 37.8427 26.0407 37.8427 26.0407 37.8427C26.0407 37.8427 26.0407 37.8427 26.0407 37.8427C26.0407 37.8427 26.0408 37.8427 26.0408 37.8427C26.0408 37.8427 26.0408 37.8427 26.0408 37.8427C26.0408 37.8427 26.0408 37.8427 26.0409 37.8427C26.0409 37.8427 26.0409 37.8427 26.0409 37.8427C26.0409 37.8427 26.0409 37.8427 26.0409 37.8427C26.0409 37.8427 26.041 37.8427 26.041 37.8427C26.041 37.8427 26.041 37.8427 26.041 37.8427C26.041 37.8427 26.041 37.8427 26.041 37.8427C26.0411 37.8427 26.0411 37.8427 26.0411 37.8427C26.0411 37.8427 26.0411 37.8427 26.0411 37.8427C26.0411 37.8427 26.0411 37.8427 26.0412 37.8427C26.0412 37.8427 26.0412 37.8427 26.0412 37.8427C26.0412 37.8427 26.0412 37.8427 26.0412 37.8427C26.0413 37.8427 26.0413 37.8427 26.0413 37.8427C26.0413 37.8427 26.0413 37.8427 26.0413 37.8427C26.0413 37.8427 26.0413 37.8427 26.0414 37.8427C26.0414 37.8427 26.0414 37.8427 26.0414 37.8427C26.0414 37.8427 26.0414 37.8427 26.0414 37.8427C26.0414 37.8427 26.0415 37.8427 26.0415 37.8427C26.0415 37.8427 26.0415 37.8427 26.0415 37.8427C26.0415 37.8427 26.0415 37.8427 26.0416 37.8427C26.0416 37.8427 26.0416 37.8427 26.0416 37.8427C26.0416 37.8427 26.0416 37.8427 26.0416 37.8427C26.0416 37.8427 26.0417 37.8427 26.0417 37.8427C26.0417 37.8427 26.0417 37.8427 26.0417 37.8427C26.0417 37.8427 26.0417 37.8427 26.0417 37.8427C26.0418 37.8427 26.0418 37.8427 26.0418 37.8427C26.0418 37.8427 26.0418 37.8427 26.0418 37.8427C26.0418 37.8427 26.0418 37.8427 26.0419 37.8427C26.0419 37.8427 26.0419 37.8427 26.0419 37.8427C26.0419 37.8427 26.0419 37.8427 26.0419 37.8427C26.042 37.8427 26.042 37.8427 26.042 37.8427C26.042 37.8427 26.042 37.8427 26.042 37.8427C26.042 37.8427 26.042 37.8427 26.0421 37.8427C26.0421 37.8427 26.0421 37.8427 26.0421 37.8427C26.0421 37.8427 26.0421 37.8427 26.0421 37.8427C26.0421 37.8427 26.0422 37.8427 26.0422 37.8427C26.0422 37.8427 26.0422 37.8427 26.0422 37.8427C26.0422 37.8427 26.0422 37.8427 26.0422 37.8427C26.0423 37.8427 26.0423 37.8427 26.0423 37.8427C26.0423 37.8427 26.0423 37.8427 26.0423 37.8427C26.0423 37.8427 26.0424 37.8427 26.0424 37.8427C26.0424 37.8427 26.0424 37.8427 26.0424 37.8427C26.0424 37.8427 26.0424 37.8427 26.0424 37.8427C26.0425 37.8427 26.0425 37.8427 26.0425 37.8427C26.0425 37.8427 26.0425 37.8427 26.0425 37.8427C26.0425 37.8427 26.0425 37.8427 26.0426 37.8427C26.0426 37.8427 26.0426 37.8427 26.0426 37.8427C26.0426 37.8427 26.0426 37.8427 26.0426 37.8427C26.0427 37.8427 26.0427 37.8427 26.0427 37.8427C26.0427 37.8427 26.0427 37.8427 26.0427 37.8427C26.0427 37.8427 26.0427 37.8427 26.0428 37.8427C26.0428 37.8427 26.0428 37.8427 26.0428 37.8427C26.0428 37.8427 26.0428 37.8427 26.0428 37.8427C26.0428 37.8427 26.0429 37.8427 26.0429 37.8427C26.0429 37.8427 26.0429 37.8427 26.0429 37.8427C26.0429 37.8427 26.0429 37.8427 26.0429 37.8427C26.043 37.8427 26.043 37.8427 26.043 37.8427C26.043 37.8427 26.043 37.8427 26.043 37.8427C26.043 37.8427 26.0431 37.8427 26.0431 37.8427V25.8427C26.0431 25.8427 26.043 25.8427 26.043 25.8427C26.043 25.8427 26.043 25.8427 26.043 25.8427C26.043 25.8427 26.043 25.8427 26.0429 25.8427C26.0429 25.8427 26.0429 25.8427 26.0429 25.8427C26.0429 25.8427 26.0429 25.8427 26.0429 25.8427C26.0429 25.8427 26.0428 25.8427 26.0428 25.8427C26.0428 25.8427 26.0428 25.8427 26.0428 25.8427C26.0428 25.8427 26.0428 25.8427 26.0428 25.8427C26.0427 25.8427 26.0427 25.8427 26.0427 25.8427C26.0427 25.8427 26.0427 25.8427 26.0427 25.8427C26.0427 25.8427 26.0427 25.8427 26.0426 25.8427C26.0426 25.8427 26.0426 25.8427 26.0426 25.8427C26.0426 25.8427 26.0426 25.8427 26.0426 25.8427C26.0425 25.8427 26.0425 25.8427 26.0425 25.8427C26.0425 25.8427 26.0425 25.8427 26.0425 25.8427C26.0425 25.8427 26.0425 25.8427 26.0424 25.8427C26.0424 25.8427 26.0424 25.8427 26.0424 25.8427C26.0424 25.8427 26.0424 25.8427 26.0424 25.8427C26.0424 25.8427 26.0423 25.8427 26.0423 25.8427C26.0423 25.8427 26.0423 25.8427 26.0423 25.8427C26.0423 25.8427 26.0423 25.8427 26.0422 25.8427C26.0422 25.8427 26.0422 25.8427 26.0422 25.8427C26.0422 25.8427 26.0422 25.8427 26.0422 25.8427C26.0422 25.8427 26.0421 25.8427 26.0421 25.8427C26.0421 25.8427 26.0421 25.8427 26.0421 25.8427C26.0421 25.8427 26.0421 25.8427 26.0421 25.8427C26.042 25.8427 26.042 25.8427 26.042 25.8427C26.042 25.8427 26.042 25.8427 26.042 25.8427C26.042 25.8427 26.042 25.8427 26.0419 25.8427C26.0419 25.8427 26.0419 25.8427 26.0419 25.8427C26.0419 25.8427 26.0419 25.8427 26.0419 25.8427C26.0418 25.8427 26.0418 25.8427 26.0418 25.8427C26.0418 25.8427 26.0418 25.8427 26.0418 25.8427C26.0418 25.8427 26.0418 25.8427 26.0417 25.8427C26.0417 25.8427 26.0417 25.8427 26.0417 25.8427C26.0417 25.8427 26.0417 25.8427 26.0417 25.8427C26.0417 25.8427 26.0416 25.8427 26.0416 25.8427C26.0416 25.8427 26.0416 25.8427 26.0416 25.8427C26.0416 25.8427 26.0416 25.8427 26.0416 25.8427C26.0415 25.8427 26.0415 25.8427 26.0415 25.8427C26.0415 25.8427 26.0415 25.8427 26.0415 25.8427C26.0415 25.8427 26.0414 25.8427 26.0414 25.8427C26.0414 25.8427 26.0414 25.8427 26.0414 25.8427C26.0414 25.8427 26.0414 25.8427 26.0414 25.8427C26.0413 25.8427 26.0413 25.8427 26.0413 25.8427C26.0413 25.8427 26.0413 25.8427 26.0413 25.8427C26.0413 25.8427 26.0413 25.8427 26.0412 25.8427C26.0412 25.8427 26.0412 25.8427 26.0412 25.8427C26.0412 25.8427 26.0412 25.8427 26.0412 25.8427C26.0411 25.8427 26.0411 25.8427 26.0411 25.8427C26.0411 25.8427 26.0411 25.8427 26.0411 25.8427C26.0411 25.8427 26.0411 25.8427 26.041 25.8427C26.041 25.8427 26.041 25.8427 26.041 25.8427C26.041 25.8427 26.041 25.8427 26.041 25.8427C26.041 25.8427 26.0409 25.8427 26.0409 25.8427C26.0409 25.8427 26.0409 25.8427 26.0409 25.8427C26.0409 25.8427 26.0409 25.8427 26.0409 25.8427C26.0408 25.8427 26.0408 25.8427 26.0408 25.8427C26.0408 25.8427 26.0408 25.8427 26.0408 25.8427C26.0408 25.8427 26.0407 25.8427 26.0407 25.8427C26.0407 25.8427 26.0407 25.8427 26.0407 25.8427C26.0407 25.8427 26.0407 25.8427 26.0407 25.8427C26.0406 25.8427 26.0406 25.8427 26.0406 25.8427C26.0406 25.8427 26.0406 25.8427 26.0406 25.8427C26.0406 25.8427 26.0406 25.8427 26.0405 25.8427C26.0405 25.8427 26.0405 25.8427 26.0405 25.8427C26.0405 25.8427 26.0405 25.8427 26.0405 25.8427C26.0405 25.8427 26.0404 25.8427 26.0404 25.8427C26.0404 25.8427 26.0404 25.8427 26.0404 25.8427C26.0404 25.8427 26.0404 25.8427 26.0403 25.8427C26.0403 25.8427 26.0403 25.8427 26.0403 25.8427C26.0403 25.8427 26.0403 25.8427 26.0403 25.8427C26.0403 25.8427 26.0402 25.8427 26.0402 25.8427C26.0402 25.8427 26.0402 25.8427 26.0402 25.8427C26.0402 25.8427 26.0402 25.8427 26.0402 25.8427C26.0401 25.8427 26.0401 25.8427 26.0401 25.8427C26.0401 25.8427 26.0401 25.8427 26.0401 25.8427C26.0401 25.8427 26.0401 25.8427 26.04 25.8427C26.04 25.8427 26.04 25.8427 26.04 25.8427C26.04 25.8427 26.04 25.8427 26.04 25.8427C26.0399 25.8427 26.0399 25.8427 26.0399 25.8427C26.0399 25.8427 26.0399 25.8427 26.0399 25.8427C26.0399 25.8427 26.0399 25.8427 26.0398 25.8427C26.0398 25.8427 26.0398 25.8427 26.0398 25.8427C26.0398 25.8427 26.0398 25.8427 26.0398 25.8427C26.0398 25.8427 26.0397 25.8427 26.0397 25.8427C26.0397 25.8427 26.0397 25.8427 26.0397 25.8427C26.0397 25.8427 26.0397 25.8427 26.0396 25.8427C26.0396 25.8427 26.0396 25.8427 26.0396 25.8427C26.0396 25.8427 26.0396 25.8427 26.0396 25.8427C26.0396 25.8427 26.0395 25.8427 26.0395 25.8427C26.0395 25.8427 26.0395 25.8427 26.0395 25.8427C26.0395 25.8427 26.0395 25.8427 26.0395 25.8427C26.0394 25.8427 26.0394 25.8427 26.0394 25.8427C26.0394 25.8427 26.0394 25.8427 26.0394 25.8427C26.0394 25.8427 26.0394 25.8427 26.0393 25.8427C26.0393 25.8427 26.0393 25.8427 26.0393 25.8427C26.0393 25.8427 26.0393 25.8427 26.0393 25.8427C26.0392 25.8427 26.0392 25.8427 26.0392 25.8427C26.0392 25.8427 26.0392 25.8427 26.0392 25.8427C26.0392 25.8427 26.0392 25.8427 26.0391 25.8427C26.0391 25.8427 26.0391 25.8427 26.0391 25.8427C26.0391 25.8427 26.0391 25.8427 26.0391 25.8427C26.0391 25.8427 26.039 25.8427 26.039 25.8427C26.039 25.8427 26.039 25.8427 26.039 25.8427C26.039 25.8427 26.039 25.8427 26.0389 25.8427C26.0389 25.8427 26.0389 25.8427 26.0389 25.8427C26.0389 25.8427 26.0389 25.8427 26.0389 25.8427C26.0389 25.8427 26.0388 25.8427 26.0388 25.8427C26.0388 25.8427 26.0388 25.8427 26.0388 25.8427C26.0388 25.8427 26.0388 25.8427 26.0388 25.8427C26.0387 25.8427 26.0387 25.8427 26.0387 25.8427C26.0387 25.8427 26.0387 25.8427 26.0387 25.8427C26.0387 25.8427 26.0387 25.8427 26.0386 25.8427C26.0386 25.8427 26.0386 25.8427 26.0386 25.8427C26.0386 25.8427 26.0386 25.8427 26.0386 25.8427C26.0385 25.8427 26.0385 25.8427 26.0385 25.8427C26.0385 25.8427 26.0385 25.8427 26.0385 25.8427C26.0385 25.8427 26.0385 25.8427 26.0384 25.8427C26.0384 25.8427 26.0384 25.8427 26.0384 25.8427C26.0384 25.8427 26.0384 25.8427 26.0384 25.8427C26.0384 25.8427 26.0383 25.8427 26.0383 25.8427C26.0383 25.8427 26.0383 25.8427 26.0383 25.8427C26.0383 25.8427 26.0383 25.8427 26.0383 25.8427C26.0382 25.8427 26.0382 25.8427 26.0382 25.8427C26.0382 25.8427 26.0382 25.8427 26.0382 25.8427C26.0382 25.8427 26.0381 25.8427 26.0381 25.8427C26.0381 25.8427 26.0381 25.8427 26.0381 25.8427C26.0381 25.8427 26.0381 25.8427 26.0381 25.8427C26.038 25.8427 26.038 25.8427 26.038 25.8427C26.038 25.8427 26.038 25.8427 26.038 25.8427C26.038 25.8427 26.038 25.8427 26.0379 25.8427C26.0379 25.8427 26.0379 25.8427 26.0379 25.8427C26.0379 25.8427 26.0379 25.8427 26.0379 25.8427C26.0378 25.8427 26.0378 25.8427 26.0378 25.8427C26.0378 25.8427 26.0378 25.8427 26.0378 25.8427C26.0378 25.8427 26.0378 25.8427 26.0377 25.8427C26.0377 25.8427 26.0377 25.8427 26.0377 25.8427C26.0377 25.8427 26.0377 25.8427 26.0377 25.8427C26.0377 25.8427 26.0376 25.8427 26.0376 25.8427C26.0376 25.8427 26.0376 25.8427 26.0376 25.8427C26.0376 25.8427 26.0376 25.8427 26.0376 25.8427C26.0375 25.8427 26.0375 25.8427 26.0375 25.8427C26.0375 25.8427 26.0375 25.8427 26.0375 25.8427C26.0375 25.8427 26.0374 25.8427 26.0374 25.8427C26.0374 25.8427 26.0374 25.8427 26.0374 25.8427C26.0374 25.8427 26.0374 25.8427 26.0374 25.8427C26.0373 25.8427 26.0373 25.8427 26.0373 25.8427C26.0373 25.8427 26.0373 25.8427 26.0373 25.8427C26.0373 25.8427 26.0373 25.8427 26.0372 25.8427C26.0372 25.8427 26.0372 25.8427 26.0372 25.8427C26.0372 25.8427 26.0372 25.8427 26.0372 25.8427C26.0372 25.8427 26.0371 25.8427 26.0371 25.8427C26.0371 25.8427 26.0371 25.8427 26.0371 25.8427C26.0371 25.8427 26.0371 25.8427 26.037 25.8427C26.037 25.8427 26.037 25.8427 26.037 25.8427C26.037 25.8427 26.037 25.8427 26.037 25.8427C26.037 25.8427 26.0369 25.8427 26.0369 25.8427C26.0369 25.8427 26.0369 25.8427 26.0369 25.8427C26.0369 25.8427 26.0369 25.8427 26.0369 25.8427C26.0368 25.8427 26.0368 25.8427 26.0368 25.8427C26.0368 25.8427 26.0368 25.8427 26.0368 25.8427C26.0368 25.8427 26.0368 25.8427 26.0367 25.8427C26.0367 25.8427 26.0367 25.8427 26.0367 25.8427C26.0367 25.8427 26.0367 25.8427 26.0367 25.8427C26.0366 25.8427 26.0366 25.8427 26.0366 25.8427C26.0366 25.8427 26.0366 25.8427 26.0366 25.8427C26.0366 25.8427 26.0366 25.8427 26.0365 25.8427C26.0365 25.8427 26.0365 25.8427 26.0365 25.8427C26.0365 25.8427 26.0365 25.8427 26.0365 25.8427C26.0365 25.8427 26.0364 25.8427 26.0364 25.8427C26.0364 25.8427 26.0364 25.8427 26.0364 25.8427C26.0364 25.8427 26.0364 25.8427 26.0363 25.8427C26.0363 25.8427 26.0363 25.8427 26.0363 25.8427C26.0363 25.8427 26.0363 25.8427 26.0363 25.8427C26.0363 25.8427 26.0362 25.8427 26.0362 25.8427C26.0362 25.8427 26.0362 25.8427 26.0362 25.8427C26.0362 25.8427 26.0362 25.8427 26.0362 25.8427C26.0361 25.8427 26.0361 25.8427 26.0361 25.8427C26.0361 25.8427 26.0361 25.8427 26.0361 25.8427C26.0361 25.8427 26.0361 25.8427 26.036 25.8427C26.036 25.8427 26.036 25.8427 26.036 25.8427C26.036 25.8427 26.036 25.8427 26.036 25.8427C26.0359 25.8427 26.0359 25.8427 26.0359 25.8427C26.0359 25.8427 26.0359 25.8427 26.0359 25.8427C26.0359 25.8427 26.0359 25.8427 26.0358 25.8427C26.0358 25.8427 26.0358 25.8427 26.0358 25.8427C26.0358 25.8427 26.0358 25.8427 26.0358 25.8427C26.0358 25.8427 26.0357 25.8427 26.0357 25.8427C26.0357 25.8427 26.0357 25.8427 26.0357 25.8427C26.0357 25.8427 26.0357 25.8427 26.0357 25.8427C26.0356 25.8427 26.0356 25.8427 26.0356 25.8427C26.0356 25.8427 26.0356 25.8427 26.0356 25.8427C26.0356 25.8427 26.0355 25.8427 26.0355 25.8427C26.0355 25.8427 26.0355 25.8427 26.0355 25.8427C26.0355 25.8427 26.0355 25.8427 26.0355 25.8427C26.0354 25.8427 26.0354 25.8427 26.0354 25.8427C26.0354 25.8427 26.0354 25.8427 26.0354 25.8427C26.0354 25.8427 26.0354 25.8427 26.0353 25.8427C26.0353 25.8427 26.0353 25.8427 26.0353 25.8427C26.0353 25.8427 26.0353 25.8427 26.0353 25.8427C26.0352 25.8427 26.0352 25.8427 26.0352 25.8427C26.0352 25.8427 26.0352 25.8427 26.0352 25.8427C26.0352 25.8427 26.0352 25.8427 26.0351 25.8427C26.0351 25.8427 26.0351 25.8427 26.0351 25.8427C26.0351 25.8427 26.0351 25.8427 26.0351 25.8427C26.0351 25.8427 26.035 25.8427 26.035 25.8427C26.035 25.8427 26.035 25.8427 26.035 25.8427C26.035 25.8427 26.035 25.8427 26.035 25.8427C26.0349 25.8427 26.0349 25.8427 26.0349 25.8427C26.0349 25.8427 26.0349 25.8427 26.0349 25.8427C26.0349 25.8427 26.0348 25.8427 26.0348 25.8427C26.0348 25.8427 26.0348 25.8427 26.0348 25.8427C26.0348 25.8427 26.0348 25.8427 26.0348 25.8427C26.0347 25.8427 26.0347 25.8427 26.0347 25.8427C26.0347 25.8427 26.0347 25.8427 26.0347 25.8427C26.0347 25.8427 26.0347 25.8427 26.0346 25.8427C26.0346 25.8427 26.0346 25.8427 26.0346 25.8427C26.0346 25.8427 26.0346 25.8427 26.0346 25.8427C26.0345 25.8427 26.0345 25.8427 26.0345 25.8427C26.0345 25.8427 26.0345 25.8427 26.0345 25.8427C26.0345 25.8427 26.0345 25.8427 26.0344 25.8427C26.0344 25.8427 26.0344 25.8427 26.0344 25.8427C26.0344 25.8427 26.0344 25.8427 26.0344 25.8427C26.0344 25.8427 26.0343 25.8427 26.0343 25.8427C26.0343 25.8427 26.0343 25.8427 26.0343 25.8427C26.0343 25.8427 26.0343 25.8427 26.0343 25.8427C26.0342 25.8427 26.0342 25.8427 26.0342 25.8427C26.0342 25.8427 26.0342 25.8427 26.0342 25.8427C26.0342 25.8427 26.0341 25.8427 26.0341 25.8427C26.0341 25.8427 26.0341 25.8427 26.0341 25.8427C26.0341 25.8427 26.0341 25.8427 26.0341 25.8427C26.034 25.8427 26.034 25.8427 26.034 25.8427C26.034 25.8427 26.034 25.8427 26.034 25.8427C26.034 25.8427 26.034 25.8427 26.0339 25.8427C26.0339 25.8427 26.0339 25.8427 26.0339 25.8427C26.0339 25.8427 26.0339 25.8427 26.0339 25.8427C26.0339 25.8427 26.0338 25.8427 26.0338 25.8427C26.0338 25.8427 26.0338 25.8427 26.0338 25.8427C26.0338 25.8427 26.0338 25.8427 26.0337 25.8427C26.0337 25.8427 26.0337 25.8427 26.0337 25.8427C26.0337 25.8427 26.0337 25.8427 26.0337 25.8427C26.0337 25.8427 26.0336 25.8427 26.0336 25.8427C26.0336 25.8427 26.0336 25.8427 26.0336 25.8427C26.0336 25.8427 26.0336 25.8427 26.0336 25.8427C26.0335 25.8427 26.0335 25.8427 26.0335 25.8427C26.0335 25.8427 26.0335 25.8427 26.0335 25.8427C26.0335 25.8427 26.0335 25.8427 26.0334 25.8427C26.0334 25.8427 26.0334 25.8427 26.0334 25.8427C26.0334 25.8427 26.0334 25.8427 26.0334 25.8427C26.0333 25.8427 26.0333 25.8427 26.0333 25.8427C26.0333 25.8427 26.0333 25.8427 26.0333 25.8427C26.0333 25.8427 26.0333 25.8427 26.0332 25.8427C26.0332 25.8427 26.0332 25.8427 26.0332 25.8427C26.0332 25.8427 26.0332 25.8427 26.0332 25.8427C26.0332 25.8427 26.0331 25.8427 26.0331 25.8427C26.0331 25.8427 26.0331 25.8427 26.0331 25.8427C26.0331 25.8427 26.0331 25.8427 26.033 25.8427C26.033 25.8427 26.033 25.8427 26.033 25.8427C26.033 25.8427 26.033 25.8427 26.033 25.8427C26.033 25.8427 26.0329 25.8427 26.0329 25.8427C26.0329 25.8427 26.0329 25.8427 26.0329 25.8427C26.0329 25.8427 26.0329 25.8427 26.0329 25.8427C26.0328 25.8427 26.0328 25.8427 26.0328 25.8427C26.0328 25.8427 26.0328 25.8427 26.0328 25.8427C26.0328 25.8427 26.0328 25.8427 26.0327 25.8427C26.0327 25.8427 26.0327 25.8427 26.0327 25.8427C26.0327 25.8427 26.0327 25.8427 26.0327 25.8427C26.0326 25.8427 26.0326 25.8427 26.0326 25.8427C26.0326 25.8427 26.0326 25.8427 26.0326 25.8427C26.0326 25.8427 26.0326 25.8427 26.0325 25.8427C26.0325 25.8427 26.0325 25.8427 26.0325 25.8427C26.0325 25.8427 26.0325 25.8427 26.0325 25.8427C26.0325 25.8427 26.0324 25.8427 26.0324 25.8427C26.0324 25.8427 26.0324 25.8427 26.0324 25.8427C26.0324 25.8427 26.0324 25.8427 26.0324 25.8427C26.0323 25.8427 26.0323 25.8427 26.0323 25.8427C26.0323 25.8427 26.0323 25.8427 26.0323 25.8427C26.0323 25.8427 26.0322 25.8427 26.0322 25.8427C26.0322 25.8427 26.0322 25.8427 26.0322 25.8427C26.0322 25.8427 26.0322 25.8427 26.0322 25.8427C26.0321 25.8427 26.0321 25.8427 26.0321 25.8427C26.0321 25.8427 26.0321 25.8427 26.0321 25.8427C26.0321 25.8427 26.0321 25.8427 26.032 25.8427C26.032 25.8427 26.032 25.8427 26.032 25.8427C26.032 25.8427 26.032 25.8427 26.032 25.8427C26.0319 25.8427 26.0319 25.8427 26.0319 25.8427C26.0319 25.8427 26.0319 25.8427 26.0319 25.8427C26.0319 25.8427 26.0319 25.8427 26.0318 25.8427C26.0318 25.8427 26.0318 25.8427 26.0318 25.8427C26.0318 25.8427 26.0318 25.8427 26.0318 25.8427C26.0318 25.8427 26.0317 25.8427 26.0317 25.8427C26.0317 25.8427 26.0317 25.8427 26.0317 25.8427C26.0317 25.8427 26.0317 25.8427 26.0317 25.8427C26.0316 25.8427 26.0316 25.8427 26.0316 25.8427C26.0316 25.8427 26.0316 25.8427 26.0316 25.8427C26.0316 25.8427 26.0315 25.8427 26.0315 25.8427C26.0315 25.8427 26.0315 25.8427 26.0315 25.8427C26.0315 25.8427 26.0315 25.8427 26.0315 25.8427C26.0314 25.8427 26.0314 25.8427 26.0314 25.8427C26.0314 25.8427 26.0314 25.8427 26.0314 25.8427C26.0314 25.8427 26.0314 25.8427 26.0313 25.8427C26.0313 25.8427 26.0313 25.8427 26.0313 25.8427C26.0313 25.8427 26.0313 25.8427 26.0313 25.8427C26.0312 25.8427 26.0312 25.8427 26.0312 25.8427C26.0312 25.8427 26.0312 25.8427 26.0312 25.8427C26.0312 25.8427 26.0312 25.8427 26.0311 25.8427C26.0311 25.8427 26.0311 25.8427 26.0311 25.8427C26.0311 25.8427 26.0311 25.8427 26.0311 25.8427C26.0311 25.8427 26.031 25.8427 26.031 25.8427C26.031 25.8427 26.031 25.8427 26.031 25.8427C26.031 25.8427 26.031 25.8427 26.031 25.8427C26.0309 25.8427 26.0309 25.8427 26.0309 25.8427C26.0309 25.8427 26.0309 25.8427 26.0309 25.8427C26.0309 25.8427 26.0308 25.8427 26.0308 25.8427C26.0308 25.8427 26.0308 25.8427 26.0308 25.8427C26.0308 25.8427 26.0308 25.8427 26.0308 25.8427C26.0307 25.8427 26.0307 25.8427 26.0307 25.8427C26.0307 25.8427 26.0307 25.8427 26.0307 25.8427C26.0307 25.8427 26.0307 25.8427 26.0306 25.8427C26.0306 25.8427 26.0306 25.8427 26.0306 25.8427C26.0306 25.8427 26.0306 25.8427 26.0306 25.8427C26.0306 25.8427 26.0305 25.8427 26.0305 25.8427C26.0305 25.8427 26.0305 25.8427 26.0305 25.8427C26.0305 25.8427 26.0305 25.8427 26.0304 25.8427C26.0304 25.8427 26.0304 25.8427 26.0304 25.8427C26.0304 25.8427 26.0304 25.8427 26.0304 25.8427C26.0304 25.8427 26.0303 25.8427 26.0303 25.8427C26.0303 25.8427 26.0303 25.8427 26.0303 25.8427C26.0303 25.8427 26.0303 25.8427 26.0303 25.8427C26.0302 25.8427 26.0302 25.8427 26.0302 25.8427C26.0302 25.8427 26.0302 25.8427 26.0302 25.8427C26.0302 25.8427 26.0301 25.8427 26.0301 25.8427C26.0301 25.8427 26.0301 25.8427 26.0301 25.8427C26.0301 25.8427 26.0301 25.8427 26.0301 25.8427C26.03 25.8427 26.03 25.8427 26.03 25.8427C26.03 25.8427 26.03 25.8427 26.03 25.8427C26.03 25.8427 26.03 25.8427 26.0299 25.8427C26.0299 25.8427 26.0299 25.8427 26.0299 25.8427C26.0299 25.8427 26.0299 25.8427 26.0299 25.8427C26.0299 25.8427 26.0298 25.8427 26.0298 25.8427C26.0298 25.8427 26.0298 25.8427 26.0298 25.8427C26.0298 25.8427 26.0298 25.8427 26.0297 25.8427C26.0297 25.8427 26.0297 25.8427 26.0297 25.8427C26.0297 25.8427 26.0297 25.8427 26.0297 25.8427C26.0297 25.8427 26.0296 25.8427 26.0296 25.8427C26.0296 25.8427 26.0296 25.8427 26.0296 25.8427C26.0296 25.8427 26.0296 25.8427 26.0296 25.8427C26.0295 25.8427 26.0295 25.8427 26.0295 25.8427C26.0295 25.8427 26.0295 25.8427 26.0295 25.8427C26.0295 25.8427 26.0295 25.8427 26.0294 25.8427C26.0294 25.8427 26.0294 25.8427 26.0294 25.8427C26.0294 25.8427 26.0294 25.8427 26.0294 25.8427C26.0293 25.8427 26.0293 25.8427 26.0293 25.8427C26.0293 25.8427 26.0293 25.8427 26.0293 25.8427C26.0293 25.8427 26.0293 25.8427 26.0292 25.8427C26.0292 25.8427 26.0292 25.8427 26.0292 25.8427C26.0292 25.8427 26.0292 25.8427 26.0292 25.8427C26.0292 25.8427 26.0291 25.8427 26.0291 25.8427C26.0291 25.8427 26.0291 25.8427 26.0291 25.8427C26.0291 25.8427 26.0291 25.8427 26.0291 25.8427C26.029 25.8427 26.029 25.8427 26.029 25.8427C26.029 25.8427 26.029 25.8427 26.029 25.8427C26.029 25.8427 26.0289 25.8427 26.0289 25.8427C26.0289 25.8427 26.0289 25.8427 26.0289 25.8427C26.0289 25.8427 26.0289 25.8427 26.0289 25.8427C26.0288 25.8427 26.0288 25.8427 26.0288 25.8427C26.0288 25.8427 26.0288 25.8427 26.0288 25.8427C26.0288 25.8427 26.0288 25.8427 26.0287 25.8427C26.0287 25.8427 26.0287 25.8427 26.0287 25.8427C26.0287 25.8427 26.0287 25.8427 26.0287 25.8427C26.0286 25.8427 26.0286 25.8427 26.0286 25.8427C26.0286 25.8427 26.0286 25.8427 26.0286 25.8427C26.0286 25.8427 26.0286 25.8427 26.0285 25.8427C26.0285 25.8427 26.0285 25.8427 26.0285 25.8427C26.0285 25.8427 26.0285 25.8427 26.0285 25.8427C26.0285 25.8427 26.0284 25.8427 26.0284 25.8427C26.0284 25.8427 26.0284 25.8427 26.0284 25.8427C26.0284 25.8427 26.0284 25.8427 26.0284 25.8427C26.0283 25.8427 26.0283 25.8427 26.0283 25.8427C26.0283 25.8427 26.0283 25.8427 26.0283 25.8427C26.0283 25.8427 26.0282 25.8427 26.0282 25.8427C26.0282 25.8427 26.0282 25.8427 26.0282 25.8427C26.0282 25.8427 26.0282 25.8427 26.0282 25.8427C26.0281 25.8427 26.0281 25.8427 26.0281 25.8427C26.0281 25.8427 26.0281 25.8427 26.0281 25.8427C26.0281 25.8427 26.0281 25.8427 26.028 25.8427C26.028 25.8427 26.028 25.8427 26.028 25.8427C26.028 25.8427 26.028 25.8427 26.028 25.8427C26.028 25.8427 26.0279 25.8427 26.0279 25.8427C26.0279 25.8427 26.0279 25.8427 26.0279 25.8427C26.0279 25.8427 26.0279 25.8427 26.0278 25.8427C26.0278 25.8427 26.0278 25.8427 26.0278 25.8427C26.0278 25.8427 26.0278 25.8427 26.0278 25.8427C26.0278 25.8427 26.0277 25.8427 26.0277 25.8427C26.0277 25.8427 26.0277 25.8427 26.0277 25.8427C26.0277 25.8427 26.0277 25.8427 26.0277 25.8427C26.0276 25.8427 26.0276 25.8427 26.0276 25.8427C26.0276 25.8427 26.0276 25.8427 26.0276 25.8427C26.0276 25.8427 26.0275 25.8427 26.0275 25.8427C26.0275 25.8427 26.0275 25.8427 26.0275 25.8427C26.0275 25.8427 26.0275 25.8427 26.0275 25.8427C26.0274 25.8427 26.0274 25.8427 26.0274 25.8427C26.0274 25.8427 26.0274 25.8427 26.0274 25.8427C26.0274 25.8427 26.0274 25.8427 26.0273 25.8427C26.0273 25.8427 26.0273 25.8427 26.0273 25.8427C26.0273 25.8427 26.0273 25.8427 26.0273 25.8427C26.0273 25.8427 26.0272 25.8427 26.0272 25.8427C26.0272 25.8427 26.0272 25.8427 26.0272 25.8427C26.0272 25.8427 26.0272 25.8427 26.0271 25.8427C26.0271 25.8427 26.0271 25.8427 26.0271 25.8427C26.0271 25.8427 26.0271 25.8427 26.0271 25.8427C26.0271 25.8427 26.027 25.8427 26.027 25.8427C26.027 25.8427 26.027 25.8427 26.027 25.8427C26.027 25.8427 26.027 25.8427 26.027 25.8427C26.0269 25.8427 26.0269 25.8427 26.0269 25.8427C26.0269 25.8427 26.0269 25.8427 26.0269 25.8427C26.0269 25.8427 26.0268 25.8427 26.0268 25.8427C26.0268 25.8427 26.0268 25.8427 26.0268 25.8427C26.0268 25.8427 26.0268 25.8427 26.0268 25.8427C26.0267 25.8427 26.0267 25.8427 26.0267 25.8427C26.0267 25.8427 26.0267 25.8427 26.0267 25.8427C26.0267 25.8427 26.0267 25.8427 26.0266 25.8427C26.0266 25.8427 26.0266 25.8427 26.0266 25.8427C26.0266 25.8427 26.0266 25.8427 26.0266 25.8427C26.0266 25.8427 26.0265 25.8427 26.0265 25.8427C26.0265 25.8427 26.0265 25.8427 26.0265 25.8427C26.0265 25.8427 26.0265 25.8427 26.0264 25.8427C26.0264 25.8427 26.0264 25.8427 26.0264 25.8427C26.0264 25.8427 26.0264 25.8427 26.0264 25.8427C26.0264 25.8427 26.0263 25.8427 26.0263 25.8427C26.0263 25.8427 26.0263 25.8427 26.0263 25.8427C26.0263 25.8427 26.0263 25.8427 26.0263 25.8427C26.0262 25.8427 26.0262 25.8427 26.0262 25.8427C26.0262 25.8427 26.0262 25.8427 26.0262 25.8427C26.0262 25.8427 26.0262 25.8427 26.0261 25.8427C26.0261 25.8427 26.0261 25.8427 26.0261 25.8427C26.0261 25.8427 26.0261 25.8427 26.0261 25.8427C26.026 25.8427 26.026 25.8427 26.026 25.8427C26.026 25.8427 26.026 25.8427 26.026 25.8427C26.026 25.8427 26.026 25.8427 26.0259 25.8427C26.0259 25.8427 26.0259 25.8427 26.0259 25.8427C26.0259 25.8427 26.0259 25.8427 26.0259 25.8427C26.0259 25.8427 26.0258 25.8427 26.0258 25.8427C26.0258 25.8427 26.0258 25.8427 26.0258 25.8427C26.0258 25.8427 26.0258 25.8427 26.0258 25.8427C26.0257 25.8427 26.0257 25.8427 26.0257 25.8427C26.0257 25.8427 26.0257 25.8427 26.0257 25.8427C26.0257 25.8427 26.0256 25.8427 26.0256 25.8427C26.0256 25.8427 26.0256 25.8427 26.0256 25.8427C26.0256 25.8427 26.0256 25.8427 26.0256 25.8427C26.0255 25.8427 26.0255 25.8427 26.0255 25.8427C26.0255 25.8427 26.0255 25.8427 26.0255 25.8427C26.0255 25.8427 26.0255 25.8427 26.0254 25.8427C26.0254 25.8427 26.0254 25.8427 26.0254 25.8427C26.0254 25.8427 26.0254 25.8427 26.0254 25.8427C26.0253 25.8427 26.0253 25.8427 26.0253 25.8427C26.0253 25.8427 26.0253 25.8427 26.0253 25.8427C26.0253 25.8427 26.0253 25.8427 26.0252 25.8427C26.0252 25.8427 26.0252 25.8427 26.0252 25.8427C26.0252 25.8427 26.0252 25.8427 26.0252 25.8427C26.0252 25.8427 26.0251 25.8427 26.0251 25.8427C26.0251 25.8427 26.0251 25.8427 26.0251 25.8427C26.0251 25.8427 26.0251 25.8427 26.0251 25.8427C26.025 25.8427 26.025 25.8427 26.025 25.8427C26.025 25.8427 26.025 25.8427 26.025 25.8427C26.025 25.8427 26.0249 25.8427 26.0249 25.8427C26.0249 25.8427 26.0249 25.8427 26.0249 25.8427C26.0249 25.8427 26.0249 25.8427 26.0249 25.8427C26.0248 25.8427 26.0248 25.8427 26.0248 25.8427C26.0248 25.8427 26.0248 25.8427 26.0248 25.8427C26.0248 25.8427 26.0248 25.8427 26.0247 25.8427C26.0247 25.8427 26.0247 25.8427 26.0247 25.8427C26.0247 25.8427 26.0247 25.8427 26.0247 25.8427C26.0247 25.8427 26.0246 25.8427 26.0246 25.8427C26.0246 25.8427 26.0246 25.8427 26.0246 25.8427C26.0246 25.8427 26.0246 25.8427 26.0245 25.8427C26.0245 25.8427 26.0245 25.8427 26.0245 25.8427C26.0245 25.8427 26.0245 25.8427 26.0245 25.8427C26.0245 25.8427 26.0244 25.8427 26.0244 25.8427C26.0244 25.8427 26.0244 25.8427 26.0244 25.8427C26.0244 25.8427 26.0244 25.8427 26.0244 25.8427C26.0243 25.8427 26.0243 25.8427 26.0243 25.8427C26.0243 25.8427 26.0243 25.8427 26.0243 25.8427C26.0243 25.8427 26.0243 25.8427 26.0242 25.8427C26.0242 25.8427 26.0242 25.8427 26.0242 25.8427C26.0242 25.8427 26.0242 25.8427 26.0242 25.8427C26.0241 25.8427 26.0241 25.8427 26.0241 25.8427C26.0241 25.8427 26.0241 25.8427 26.0241 25.8427C26.0241 25.8427 26.0241 25.8427 26.024 25.8427C26.024 25.8427 26.024 25.8427 26.024 25.8427C26.024 25.8427 26.024 25.8427 26.024 25.8427C26.024 25.8427 26.0239 25.8427 26.0239 25.8427C26.0239 25.8427 26.0239 25.8427 26.0239 25.8427C26.0239 25.8427 26.0239 25.8427 26.0238 25.8427C26.0238 25.8427 26.0238 25.8427 26.0238 25.8427C26.0238 25.8427 26.0238 25.8427 26.0238 25.8427C26.0238 25.8427 26.0237 25.8427 26.0237 25.8427C26.0237 25.8427 26.0237 25.8427 26.0237 25.8427C26.0237 25.8427 26.0237 25.8427 26.0237 25.8427C26.0236 25.8427 26.0236 25.8427 26.0236 25.8427C26.0236 25.8427 26.0236 25.8427 26.0236 25.8427C26.0236 25.8427 26.0236 25.8427 26.0235 25.8427C26.0235 25.8427 26.0235 25.8427 26.0235 25.8427C26.0235 25.8427 26.0235 25.8427 26.0235 25.8427C26.0234 25.8427 26.0234 25.8427 26.0234 25.8427C26.0234 25.8427 26.0234 25.8427 26.0234 25.8427C26.0234 25.8427 26.0234 25.8427 26.0233 25.8427C26.0233 25.8427 26.0233 25.8427 26.0233 25.8427C26.0233 25.8427 26.0233 25.8427 26.0233 25.8427C26.0233 25.8427 26.0232 25.8427 26.0232 25.8427C26.0232 25.8427 26.0232 25.8427 26.0232 25.8427V37.8427ZM26.1272 37.8421C29.0734 37.8007 31.678 35.9605 32.7239 33.238L21.522 28.9348C22.2233 27.1091 23.9667 25.8712 25.9589 25.8432L26.1272 37.8421ZM32.7167 33.2566L36.7646 22.8231L25.577 18.4827L21.5292 28.9162L32.7167 33.2566ZM26.3142 24.1762L28.2951 26.9067L38.0083 19.8601L36.0274 17.1296L26.3142 24.1762ZM28.3094 26.9264C29.642 28.7476 31.7765 29.872 34.1057 29.872V17.872C35.6796 17.872 37.1119 18.6349 37.9939 19.8404L28.3094 26.9264ZM34.1057 29.872H36.9677V17.872H34.1057V29.872ZM36.9677 29.872C40.9944 29.872 44.1536 26.5928 44.1536 22.674H32.1536C32.1536 20.0803 34.2527 17.872 36.9677 17.872V29.872ZM44.1536 22.674C44.1536 18.7552 40.9944 15.4761 36.9677 15.4761V27.4761C34.2527 27.4761 32.1536 25.2677 32.1536 22.674H44.1536ZM36.9677 15.4761H34.7086V27.4761H36.9677V15.4761ZM39.5633 17.9502L36.6615 13.9548L26.9521 21.0065L29.8538 25.0019L39.5633 17.9502ZM36.6566 13.948C35.1212 11.8402 32.5685 10.7204 29.9602 11.0447L31.4407 22.953C29.6936 23.1702 27.9757 22.4117 26.9571 21.0134L36.6566 13.948ZM29.9602 11.0447C27.2497 11.3816 25.0871 13.1959 24.1621 15.5708L35.344 19.9259C34.737 21.4844 33.2899 22.7231 31.4407 22.953L29.9602 11.0447ZM24.1593 15.5782L20.3764 25.3291L31.564 29.6694L35.3469 19.9185L24.1593 15.5782ZM31.4898 25.1469L25.6201 11.3739L14.5808 16.0785L20.4505 29.8516L31.4898 25.1469ZM25.637 11.414C24.5533 8.81905 22.0507 7.08861 19.2293 7.00599L18.8781 19.0009C16.9709 18.945 15.2898 17.7767 14.5639 16.0384L25.637 11.414ZM19.317 7.0092C16.3741 6.87995 13.851 8.54725 12.6357 10.8874L23.2854 16.4178C22.4941 17.9414 20.8191 19.0867 18.7904 18.9976L19.317 7.0092ZM12.6097 10.9381L8.7937 18.4604L19.4954 23.8893L23.3114 16.367L12.6097 10.9381ZM14.1446 15.1749H3.82944V27.1749H14.1446V15.1749ZM3.82944 15.1749C2.63135 15.1749 1.53122 15.4766 0.600998 15.9464L6.01114 26.6577C5.39892 26.9669 4.65653 27.1749 3.82944 27.1749V15.1749ZM8.90436 19.1436C7.80091 16.2816 8.41144 12.928 10.6441 10.6726L2.11599 2.23042C-3.58806 7.99254 -5.01803 16.3909 -2.29223 23.4605L8.90436 19.1436Z" fill="white" mask="url(#path-1-inside-1_238_2337)"/>
</g>
<defs>
<clipPath id="clip0_238_2337">
<rect width="53" height="45" fill="white"/>
</clipPath>
</defs>
</svg>
