<svg width="52" height="52" viewBox="0 0 52 52" fill="none" xmlns="http://www.w3.org/2000/svg">
<g clip-path="url(#clip0_238_2320)">
<path d="M25.9999 18.9999C29.3136 18.9999 31.9999 16.3136 31.9999 12.9999C31.9999 9.68626 29.3136 7 25.9999 7C22.6863 7 20 9.68626 20 12.9999C20 16.3136 22.6863 18.9999 25.9999 18.9999Z" fill="white"/>
<path d="M26.0001 20C20.4777 20 16.0005 24.4772 16.0005 29.9996V33.9993C16.0005 36.2084 17.791 37.9989 20.0002 37.9989V45.9991C20.0002 49.3133 22.6868 51.9991 26.0001 51.9991C29.3134 51.9991 32 49.3124 32 45.9991V37.9989C34.2092 37.9989 35.9997 36.2084 35.9997 33.9993V29.9996C35.9997 24.4772 31.5225 20 26.0001 20Z" fill="white"/>
<path d="M42.0004 11.9999C45.3141 11.9999 48.0004 9.31361 48.0004 5.99993C48.0004 2.68626 45.3141 0 42.0004 0C38.6867 0 36.0005 2.68626 36.0005 5.99993C36.0005 9.31361 38.6867 11.9999 42.0004 11.9999Z" fill="white"/>
<path d="M52 22.9996V26.9993C52 29.1989 50.2 30.9989 48.0004 30.9989V39C48.0004 42.3202 45.3206 44.9999 42.0004 44.9999C38.6802 44.9999 36.0005 42.3202 36.0005 39V38.4401C37.2208 37.3603 38.0008 35.7604 38.0008 34.0002V30.0005C38.0008 25.7608 35.8012 22.0402 32.481 19.9203C33.781 15.9007 37.5614 13 42.0013 13C47.5202 13 52 17.4798 52 22.9996Z" fill="white"/>
<path d="M9.99944 11.9999C13.3131 11.9999 15.9994 9.31361 15.9994 5.99993C15.9994 2.68626 13.3131 0 9.99944 0C6.68577 0 3.99951 2.68626 3.99951 5.99993C3.99951 9.31361 6.68577 11.9999 9.99944 11.9999Z" fill="white"/>
<path d="M14.0001 34.0002C14.0001 35.7604 14.7801 37.3603 16.0004 38.4401V39C16.0004 42.3202 13.3207 44.9999 10.0005 44.9999C6.68027 44.9999 3.99967 42.3202 3.99967 39V30.9998C1.80007 30.9998 0 29.1997 0 27.0001V23.0005C0 17.4798 4.4798 13 9.9996 13C14.4395 13 18.2199 15.8999 19.5199 19.9203C16.1997 22.0402 14.0001 25.7608 14.0001 30.0005V34.0002Z" fill="white"/>
</g>
<defs>
<clipPath id="clip0_238_2320">
<rect width="52" height="52" fill="white"/>
</clipPath>
</defs>
</svg>
