<svg width="45" height="38" viewBox="0 0 45 38" fill="none" xmlns="http://www.w3.org/2000/svg">
<g clip-path="url(#clip0_238_2305)">
<path d="M38.3708 4.56822H28.975V1.8284C28.975 0.82065 28.1519 0 27.1412 0H18.745C17.7343 0 16.9112 0.82065 16.9112 1.8284V4.57008H6.62923C2.98204 4.56822 0 7.54331 0 11.1779V31.3903C0 35.0249 2.98204 38 6.62923 38H38.3708C42.0161 38 45 35.0249 45 31.3903V11.1779C45 7.54331 42.0161 4.56822 38.3708 4.56822ZM19.0572 2.13962H26.8291V4.56822H19.0572V2.13962Z" fill="white"/>
<path d="M30.5824 17.6152H25.8242V12.8691H19.1596V17.6152H14.4014V24.2582H19.1596V29.0043H25.8242V24.2582H30.5824V17.6152Z" fill="#808080"/>
<path d="M25.9002 29.0802H19.0815V24.3342H14.3232V17.5356H19.0834V12.7932H25.9021V17.5393H30.6622V24.3379H25.9002V29.0802ZM19.2376 28.9265H25.746V24.1804H30.5062V17.693H25.746V12.947H19.2376V17.693H14.4775V24.1823H19.2376V28.9265Z" fill="#808080"/>
</g>
<defs>
<clipPath id="clip0_238_2305">
<rect width="45" height="38" fill="white"/>
</clipPath>
</defs>
</svg>
