<svg width="26" height="21" viewBox="0 0 26 21" fill="none" xmlns="http://www.w3.org/2000/svg">
<g clip-path="url(#clip0_239_3735)">
<path d="M8.1756 21C17.9881 21 23.3542 12.9224 23.3542 5.91549C23.3542 5.68479 23.3482 5.45704 23.3393 5.2293C24.381 4.48099 25.2857 3.54634 26 2.48451C25.0446 2.90746 24.0149 3.19141 22.9375 3.31859C24.0387 2.66197 24.8839 1.6238 25.2827 0.387465C24.253 0.993803 23.1101 1.43746 21.8958 1.67408C20.9226 0.644789 19.5357 0 18.003 0C15.0565 0 12.6667 2.37507 12.6667 5.30028C12.6667 5.71732 12.7143 6.11958 12.8065 6.51C8.37202 6.28817 4.44048 4.1793 1.8125 0.970141C1.35417 1.75394 1.08929 2.66493 1.08929 3.63507C1.08929 5.47479 2.02976 7.09859 3.46429 8.04803C2.58929 8.02141 1.76786 7.78183 1.04762 7.38549C1.04762 7.4062 1.04762 7.42986 1.04762 7.45352C1.04762 10.0208 2.8869 12.1652 5.32738 12.6503C4.87798 12.7715 4.40774 12.8366 3.92262 12.8366C3.58036 12.8366 3.24405 12.8041 2.91964 12.742C3.59821 14.8479 5.56845 16.38 7.90179 16.4244C6.07143 17.8441 3.77083 18.693 1.27381 18.693C0.842262 18.693 0.419643 18.6693 0 18.619C2.36012 20.1215 5.16369 21 8.1756 21Z" fill="#FE6A00"/>
</g>
<defs>
<clipPath id="clip0_239_3735">
<rect width="26" height="21" fill="white"/>
</clipPath>
</defs>
</svg>
